<svg width="120" height="120" viewBox="0 0 120 120" fill="none" xmlns="http://www.w3.org/2000/svg">
<rect width="120" height="120" rx="60" fill="#F69F24"/>
<path d="M86.3213 49.8184C86.3213 53.2871 85.0088 56.6621 82.29 59.2871L81.8213 59.7559C75.0713 66.5996 77.415 72.4121 71.04 78.7871C67.29 82.5371 62.415 84.4121 57.54 84.4121C46.9463 84.4121 38.3213 75.8809 38.3213 65.1934C38.3213 52.4434 49.1025 47.5684 52.3838 46.6309C56.3213 45.5996 60.0713 43.6309 62.9775 40.7246C65.6963 37.9121 69.4463 36.4121 73.1025 36.4121C80.9775 36.4121 86.3213 43.0684 86.3213 49.8184ZM81.7275 49.8184C81.7275 45.5996 78.54 40.9121 73.1025 40.9121C65.6025 40.9121 65.9775 47.5684 53.6025 51.0371C47.5088 52.7246 42.8213 58.3496 42.8213 65.1934C42.8213 74.7559 51.0713 79.9121 57.54 79.9121C72.6338 79.9121 69.6338 65.7559 78.6338 56.5684L79.1025 56.0996C80.79 54.5059 81.7275 52.1621 81.7275 49.8184ZM61.4775 54.4121C66.6338 54.4121 68.2275 58.6309 68.2275 61.1621C68.2275 66.8809 62.6963 72.4121 57.0713 72.4121C51.915 72.4121 50.2275 68.1934 50.2275 65.5684C50.2275 59.8496 55.7588 54.4121 61.4775 54.4121Z" fill="white"/>
</svg>
