<svg width="115" height="118" viewBox="0 0 115 118" fill="none" xmlns="http://www.w3.org/2000/svg">
<path d="M5.77389 105.789C3.47892 100.819 2.32425 91.4024 4.14401 91.3442C5.54141 91.2962 10.3674 98.5303 12.1769 101.661C15.1216 106.763 8.92485 112.618 5.77389 105.789ZM79.9412 0.00790618C135.046 0.583854 119.917 96.3097 67.3984 115.4C26.7668 131.284 -5.24321 70.4848 0.716432 38.7228C6.34096 8.79912 49.7016 -0.308332 79.9412 0.00790618Z" fill="#F99F33"/>
<rect x="31.0439" y="40.7246" width="55.0231" height="36.1357" rx="5.13298" stroke="white" stroke-width="4"/>
<rect x="29.0439" y="46.9883" width="59.0231" height="5.31208" fill="white"/>
<rect x="76.2627" y="67.0566" width="7.08278" height="7.08278" rx="2.37766" fill="white"/>
<rect x="32.5859" y="55.25" width="28.3311" height="7.08278" rx="2.37766" fill="white"/>
</svg>
