<svg width="224" height="224" viewBox="0 0 224 224" fill="none" xmlns="http://www.w3.org/2000/svg">
<path d="M219.24 117.368L219.531 112.661L220.993 112.751L220.312 123.767L218.85 123.676L219.141 118.97L206.584 118.194L206.683 116.591L219.24 117.368Z" fill="#421B00"/>
<path d="M219.679 128.658L219.352 130.21L213.245 128.924L211.575 136.856L217.681 138.142L217.355 139.693L203.61 136.799L203.937 135.248L210.122 136.55L211.792 128.618L205.607 127.315L205.934 125.764L219.679 128.658Z" fill="#421B00"/>
<path d="M215.801 144.913L212.27 154.433L210.916 153.93L213.896 145.897L209.399 144.229L206.733 151.416L205.379 150.913L208.045 143.727L203.435 142.017L200.421 150.144L199.066 149.642L202.632 140.028L215.801 144.913Z" fill="#421B00"/>
<path d="M193.434 163.045C192.873 163.956 192.619 164.79 192.672 165.545C192.725 166.301 193.088 166.885 193.76 167.299L193.794 167.32C194.443 167.72 195.109 167.761 195.792 167.443C196.486 167.132 197.156 166.453 197.801 165.405L200.127 161.629L195.907 159.03L193.434 163.045ZM199.145 165.902C198.64 166.722 198.409 167.492 198.454 168.21C198.503 168.947 198.88 169.533 199.586 169.968L199.621 169.989C200.213 170.354 200.826 170.417 201.46 170.179C202.093 169.941 202.673 169.395 203.199 168.54L205.44 164.901L201.323 162.365L199.145 165.902ZM207.474 164.315L204.339 169.407C203.918 170.09 203.449 170.635 202.933 171.039C202.421 171.462 201.895 171.743 201.354 171.881C200.503 172.064 199.707 171.928 198.967 171.472L198.933 171.451C198.545 171.212 198.233 170.941 197.996 170.638C197.763 170.353 197.588 170.049 197.473 169.727C197.369 169.411 197.307 169.091 197.288 168.765C197.273 168.457 197.288 168.152 197.333 167.85C197.013 168.14 196.673 168.386 196.312 168.588C195.956 168.809 195.594 168.963 195.226 169.05C194.858 169.138 194.473 169.152 194.07 169.092C193.678 169.039 193.277 168.887 192.867 168.634L192.833 168.613C192.32 168.298 191.922 167.911 191.638 167.453C191.366 167.003 191.206 166.496 191.16 165.934C191.118 165.389 191.188 164.804 191.37 164.178C191.551 163.551 191.842 162.913 192.242 162.264L195.514 156.95L207.474 164.315Z" fill="#421B00"/>
<path d="M198.759 177.706L192.26 185.507L191.15 184.582L196.634 177.999L192.949 174.93L188.043 180.819L186.933 179.895L191.839 174.005L188.062 170.859L182.514 177.519L181.404 176.594L187.966 168.716L198.759 177.706Z" fill="#421B00"/>
<path d="M175.571 181.89C176.399 181.131 177.281 180.568 178.215 180.202C179.149 179.854 180.184 179.677 181.32 179.67L181.382 181.192C180.387 181.196 179.501 181.328 178.723 181.587C177.954 181.857 177.209 182.321 176.489 182.981C175.789 183.623 175.381 184.296 175.265 185.001C175.148 185.725 175.324 186.343 175.794 186.856L175.822 186.886C176.038 187.123 176.272 187.298 176.523 187.414C176.782 187.538 177.083 187.589 177.425 187.567C177.767 187.544 178.174 187.434 178.647 187.236C179.109 187.048 179.666 186.765 180.317 186.386C181.026 185.972 181.68 185.645 182.277 185.406C182.865 185.176 183.41 185.049 183.913 185.023C184.416 184.998 184.881 185.08 185.308 185.269C185.735 185.458 186.143 185.765 186.532 186.189L186.559 186.218C186.93 186.623 187.189 187.074 187.338 187.573C187.487 188.072 187.521 188.585 187.441 189.111C187.37 189.648 187.191 190.175 186.904 190.693C186.625 191.22 186.239 191.71 185.746 192.162C184.986 192.858 184.226 193.355 183.465 193.653C182.703 193.97 181.862 194.161 180.941 194.225L180.794 192.699C181.639 192.65 182.389 192.489 183.045 192.214C183.691 191.949 184.28 191.572 184.813 191.084C185.493 190.461 185.882 189.805 185.978 189.118C186.083 188.441 185.919 187.866 185.485 187.393L185.458 187.363C185.232 187.117 184.989 186.931 184.73 186.806C184.479 186.691 184.173 186.644 183.813 186.666C183.461 186.698 183.039 186.813 182.548 187.009C182.066 187.215 181.484 187.521 180.804 187.927C179.415 188.728 178.241 189.15 177.283 189.194C176.315 189.246 175.47 188.878 174.746 188.089L174.719 188.059C174.313 187.615 174.031 187.13 173.874 186.602C173.726 186.084 173.693 185.553 173.773 185.007C173.844 184.47 174.033 183.934 174.34 183.399C174.648 182.863 175.058 182.36 175.571 181.89Z" fill="#421B00"/>
<path d="M173.926 199.615L177.789 196.911L178.629 198.111L169.587 204.439L168.747 203.239L172.61 200.535L165.397 190.228L166.712 189.307L173.926 199.615Z" fill="#421B00"/>
<path d="M160.512 209.501L151.306 213.64L150.706 212.304L158.466 208.815L156.408 204.24L149.472 207.359L148.88 206.041L155.816 202.922L153.306 197.34L154.752 196.69L160.512 209.501Z" fill="#421B00"/>
<path d="M139.401 209.957C138.901 210.103 138.457 210.302 138.071 210.554C137.684 210.806 137.371 211.092 137.13 211.413C136.893 211.747 136.739 212.105 136.67 212.488C136.591 212.887 136.615 213.305 136.742 213.742L136.754 213.78C136.997 214.615 137.488 215.176 138.226 215.462C138.968 215.761 139.885 215.752 140.977 215.434L145.138 214.221L143.543 208.75L139.401 209.957ZM147.07 215.184L141.271 216.874C140.436 217.117 139.662 217.21 138.949 217.153C138.227 217.113 137.592 216.943 137.044 216.643C136.613 216.406 136.242 216.089 135.931 215.692C135.62 215.295 135.386 214.827 135.229 214.287L135.218 214.249C135.053 213.684 134.995 213.15 135.044 212.648C135.097 212.159 135.241 211.699 135.478 211.268C135.705 210.853 136.012 210.471 136.398 210.122C136.788 209.785 137.233 209.495 137.733 209.252L131.985 204.95L133.854 204.405L139.292 208.505L139.33 208.494L143.145 207.382L141.618 202.142L143.139 201.699L147.07 215.184Z" fill="#421B00"/>
<path d="M123.391 207.435C122.594 207.533 121.882 207.77 121.255 208.144C120.615 208.533 120.089 209.017 119.675 209.594C119.261 210.171 118.965 210.821 118.785 211.544C118.591 212.269 118.544 213.029 118.643 213.826L118.648 213.866C118.746 214.662 118.978 215.389 119.342 216.044C119.695 216.715 120.149 217.279 120.705 217.736C121.26 218.193 121.895 218.532 122.61 218.753C123.312 218.976 124.061 219.038 124.857 218.94C125.654 218.841 126.372 218.597 127.011 218.208C127.638 217.833 128.159 217.358 128.573 216.781C128.987 216.204 129.29 215.553 129.483 214.828C129.663 214.105 129.704 213.345 129.605 212.548L129.6 212.508C129.501 211.712 129.276 210.978 128.923 210.307C128.559 209.652 128.099 209.095 127.543 208.638C126.988 208.182 126.36 207.842 125.658 207.619C124.943 207.397 124.187 207.336 123.391 207.435ZM123.25 205.976C124.312 205.844 125.305 205.917 126.229 206.193C127.14 206.471 127.948 206.897 128.652 207.47C129.358 208.056 129.938 208.76 130.39 209.58C130.83 210.415 131.11 211.31 131.228 212.266L131.233 212.306C131.352 213.262 131.293 214.199 131.056 215.118C130.819 216.037 130.429 216.861 129.886 217.588C129.344 218.33 128.659 218.947 127.831 219.44C127.004 219.947 126.06 220.267 124.998 220.398C123.935 220.53 122.949 220.457 122.039 220.179C121.115 219.902 120.3 219.471 119.593 218.884C118.889 218.311 118.316 217.607 117.876 216.772C117.424 215.952 117.138 215.064 117.02 214.108C117.005 214.096 117.003 214.083 117.015 214.068C116.896 213.112 116.955 212.175 117.192 211.256C117.429 210.337 117.818 209.507 118.359 208.766C118.903 208.038 119.588 207.421 120.415 206.914C121.243 206.42 122.188 206.108 123.25 205.976Z" fill="#421B00"/>
<path d="M108.292 212.453L113.8 221.159L111.875 221.085L107.414 213.885L102.371 220.718L100.526 220.647L106.687 212.411L106.903 206.837L108.507 206.899L108.292 212.453Z" fill="#421B00"/>
<path d="M92.3505 206.279C91.5633 206.123 90.813 206.124 90.0996 206.282C89.3704 206.451 88.7189 206.744 88.1449 207.162C87.5709 207.58 87.0849 208.104 86.6869 208.734C86.2758 209.362 85.9921 210.069 85.8357 210.856L85.8279 210.896C85.6715 211.683 85.6633 212.445 85.8032 213.182C85.9275 213.93 86.1815 214.607 86.5653 215.216C86.9492 215.824 87.4457 216.345 88.0549 216.78C88.651 217.212 89.3426 217.506 90.1299 217.663C90.9171 217.819 91.6753 217.813 92.4044 217.644C93.1178 217.486 93.7615 217.198 94.3355 216.78C94.9095 216.362 95.4021 215.839 95.8132 215.212C96.2111 214.581 96.4883 213.873 96.6447 213.085L96.6525 213.046C96.8089 212.259 96.825 211.491 96.7007 210.744C96.5608 210.007 96.2989 209.334 95.915 208.726C95.5312 208.118 95.0413 207.598 94.4452 207.166C93.836 206.731 93.1378 206.435 92.3505 206.279ZM92.6753 204.85C93.725 205.059 94.645 205.439 95.4354 205.992C96.2126 206.542 96.8457 207.199 97.3347 207.965C97.821 208.743 98.1501 209.593 98.3218 210.514C98.4778 211.445 98.4619 212.383 98.2742 213.327L98.2664 213.367C98.0787 214.311 97.7283 215.183 97.2151 215.981C96.7019 216.779 96.0731 217.439 95.3287 217.959C94.5817 218.493 93.7374 218.864 92.7958 219.072C91.8517 219.294 90.8547 219.3 89.8051 219.092C88.7554 218.883 87.842 218.504 87.0647 217.954C86.2743 217.401 85.636 216.736 85.1496 215.957C84.6607 215.192 84.3382 214.343 84.1822 213.412C84.0105 212.492 84.0185 211.559 84.2062 210.614C84.1957 210.599 84.1983 210.585 84.214 210.575C84.4017 209.63 84.7521 208.759 85.2653 207.961C85.7785 207.162 86.4086 206.497 87.1556 205.963C87.9 205.443 88.7443 205.072 89.6885 204.85C90.63 204.642 91.6257 204.642 92.6753 204.85Z" fill="#421B00"/>
<path d="M72.7652 213.953L71.2852 213.385L76.3182 200.271L77.7982 200.839L72.7652 213.953Z" fill="#421B00"/>
<path d="M66.3621 211.468L65.0438 210.785L62.3679 196.719L57.1875 206.713L55.8157 206.002L62.2797 193.531L63.402 194.113L66.1539 208.513L71.4543 198.287L72.8261 198.998L66.3621 211.468Z" fill="#421B00"/>
<path d="M44.5119 196.279L48.1894 199.23L47.2726 200.372L38.6655 193.465L39.5824 192.322L43.2599 195.274L51.1348 185.462L52.3867 186.467L44.5119 196.279Z" fill="#421B00"/>
<path d="M40.2084 176.809C39.6661 176.217 39.0606 175.774 38.3917 175.48C37.7039 175.185 37.005 175.036 36.295 175.033C35.585 175.031 34.8832 175.166 34.1896 175.438C33.487 175.701 32.8398 176.104 32.248 176.646L32.2185 176.673C31.6267 177.215 31.1693 177.825 30.8463 178.502C30.5043 179.178 30.3082 179.875 30.258 180.593C30.2077 181.31 30.2997 182.024 30.5337 182.735C30.7588 183.436 31.1425 184.082 31.6847 184.674C32.227 185.266 32.842 185.709 33.5298 186.004C34.1986 186.299 34.8881 186.447 35.5981 186.45C36.3081 186.452 37.0144 186.322 37.717 186.059C38.4106 185.787 39.0533 185.379 39.6451 184.837L39.6747 184.81C40.2664 184.267 40.7333 183.658 41.0752 182.982C41.3983 182.305 41.5849 181.608 41.6352 180.89C41.6854 180.173 41.598 179.464 41.3729 178.763C41.1388 178.052 40.7507 177.401 40.2084 176.809ZM41.3154 175.849C42.0385 176.638 42.5552 177.489 42.8657 178.402C43.1672 179.305 43.2886 180.21 43.2302 181.116C43.1618 182.032 42.9246 182.911 42.5185 183.755C42.0935 184.598 41.526 185.345 40.8159 185.996L40.7863 186.023C40.0762 186.674 39.2782 187.169 38.3923 187.509C37.5064 187.849 36.6094 188.009 35.7014 187.988C34.7835 187.976 33.8833 187.776 33.0008 187.387C32.1084 187.008 31.3007 186.423 30.5777 185.634C29.8547 184.845 29.3424 183.999 29.041 183.096C28.7305 182.183 28.6094 181.269 28.6778 180.353C28.7362 179.447 28.978 178.572 29.403 177.729C29.809 176.885 30.3671 176.138 31.0772 175.487C31.078 175.468 31.0879 175.459 31.1068 175.46C31.8169 174.809 32.6149 174.314 33.5008 173.974C34.3867 173.634 35.2886 173.47 36.2065 173.481C37.1146 173.502 38.0148 173.702 38.9071 174.082C39.7897 174.471 40.5924 175.06 41.3154 175.849Z" fill="#421B00"/>
<path d="M22.9795 176.814L22.0909 175.334L30.0524 165.87L18.006 168.612L17.3344 167.494L25.413 158.147L13.3183 160.731L12.4607 159.303L27.1705 156.319L27.8628 157.471L20.0766 166.643L31.841 164.093L32.5229 165.229L22.9795 176.814Z" fill="#421B00"/>
<path d="M10.6054 154.529L10.0994 153.133L17.6676 140.978L7.08424 144.814L6.55778 143.361L19.7633 138.575L20.1941 139.763L12.4559 152.215L23.2845 148.29L23.811 149.743L10.6054 154.529Z" fill="#421B00"/>
<path d="M11.2841 132.251L10.3229 126.756L11.9239 126.476L12.8851 131.971L11.2841 132.251Z" fill="#421B00"/>
<path d="M3.51654 113.836L3.57115 118.551L2.10644 118.568L1.97864 107.533L3.44335 107.516L3.49795 112.231L16.0784 112.085L16.097 113.691L3.51654 113.836Z" fill="#421B00"/>
<path d="M2.25789 102.423L2.47099 100.852L8.65483 101.691L9.74461 93.6581L3.56077 92.8192L3.77387 91.2484L17.6925 93.1366L17.4794 94.7075L11.216 93.8578L10.1262 101.891L16.3896 102.74L16.1765 104.311L2.25789 102.423Z" fill="#421B00"/>
<path d="M4.97465 85.7567L7.81554 76.0089L9.20258 76.4132L6.80522 84.6391L11.4094 85.9809L13.5541 78.6219L14.9412 79.0261L12.7965 86.3851L17.5162 87.7607L19.9417 79.4384L21.3287 79.8427L18.4597 89.6868L4.97465 85.7567Z" fill="#421B00"/>
<path d="M25.8072 66.4147C26.2997 65.4646 26.4916 64.6148 26.3829 63.8653C26.2741 63.1159 25.8694 62.5595 25.1687 62.1963L25.133 62.1778C24.4561 61.8269 23.7888 61.8351 23.1313 62.2025C22.4619 62.5637 21.8441 63.2906 21.2777 64.3833L19.2369 68.3203L23.6372 70.6012L25.8072 66.4147ZM19.9014 63.9863C20.3446 63.1312 20.5176 62.3469 20.4203 61.6335C20.3173 60.902 19.8976 60.3455 19.1613 59.9638L19.1256 59.9453C18.508 59.6252 17.892 59.6073 17.2776 59.8915C16.6632 60.1757 16.1251 60.7632 15.6634 61.6539L13.6965 65.4485L17.9899 67.6739L19.9014 63.9863ZM11.7114 66.1824L14.4632 60.8736C14.8326 60.161 15.2598 59.5839 15.7449 59.1422C16.2243 58.6825 16.7285 58.3638 17.2576 58.186C18.0928 57.9409 18.8964 58.0184 19.6684 58.4186L19.704 58.437C20.1078 58.6464 20.4393 58.8935 20.6984 59.1785C20.9518 59.4454 21.148 59.7355 21.287 60.0486C21.4142 60.3556 21.4993 60.671 21.5425 60.9947C21.5799 61.3004 21.5874 61.6056 21.565 61.9104C21.8628 61.5977 22.1838 61.3271 22.5282 61.0988C22.8668 60.8524 23.2165 60.6721 23.5771 60.5577C23.9378 60.4433 24.3213 60.401 24.7277 60.4308C25.1223 60.4545 25.5333 60.5772 25.9609 60.7988L25.9965 60.8173C26.5309 61.0943 26.9565 61.4505 27.2733 61.8859C27.5781 62.3152 27.7744 62.8086 27.862 63.3664C27.9439 63.906 27.9173 64.495 27.7824 65.1332C27.6474 65.7714 27.4045 66.429 27.0536 67.106L24.1817 72.6464L11.7114 66.1824Z" fill="#421B00"/>
<path d="M19.421 52.14L25.3335 43.8858L26.5081 44.7271L21.5186 51.6926L25.4174 54.4853L29.881 48.2539L31.0555 49.0952L26.5919 55.3266L30.5885 58.1894L35.6363 51.1424L36.8108 51.9837L30.8399 60.3194L19.421 52.14Z" fill="#421B00"/>
<path d="M42.1315 46.3615C41.3604 47.1788 40.5222 47.8041 39.6168 48.2373C38.711 48.6517 37.6915 48.9037 36.5586 48.9934L36.3868 47.4796C37.3782 47.4034 38.2526 47.2077 39.0099 46.8923C39.7575 46.5677 40.4664 46.0503 41.1366 45.34C41.7884 44.6492 42.1465 43.948 42.211 43.2363C42.2749 42.5058 42.0539 41.9019 41.5479 41.4245L41.5188 41.397C41.2852 41.1766 41.0393 41.0182 40.781 40.9216C40.513 40.8158 40.2093 40.7868 39.87 40.8345C39.5307 40.8822 39.1326 41.0216 38.6756 41.2525C38.2278 41.4737 37.6931 41.7968 37.0714 42.2218C36.3941 42.6863 35.7662 43.0594 35.1877 43.3412C34.6183 43.6132 34.0838 43.7802 33.584 43.842C33.0843 43.9039 32.6145 43.856 32.1746 43.6985C31.7347 43.5409 31.3056 43.2648 30.8872 42.8701L30.858 42.8425C30.459 42.4661 30.1673 42.0346 29.9828 41.5478C29.7984 41.0611 29.7268 40.5522 29.7681 40.0211C29.7997 39.4807 29.9402 38.942 30.1895 38.4048C30.4292 37.8584 30.7785 37.342 31.2375 36.8555C31.9444 36.1063 32.6665 35.5554 33.4038 35.2027C34.1406 34.8311 34.9661 34.58 35.8802 34.4494L36.137 35.9607C35.298 36.0703 34.5614 36.2857 33.9273 36.607C33.3023 36.9185 32.7419 37.337 32.2462 37.8624C31.6128 38.5338 31.273 39.2155 31.2269 39.9077C31.171 40.5906 31.3766 41.1525 31.8437 41.5931L31.8729 41.6206C32.1161 41.8502 32.3718 42.0178 32.6398 42.1236C32.8981 42.2201 33.2064 42.2443 33.5646 42.196C33.913 42.1386 34.3252 41.9941 34.8011 41.7626C35.2673 41.522 35.8249 41.1745 36.4742 40.7203C37.8012 39.8206 38.941 39.3143 39.8935 39.2015C40.8552 39.0789 41.7252 39.3848 42.5036 40.1192L42.5328 40.1467C42.9707 40.5598 43.287 41.0238 43.4817 41.5386C43.6668 42.0442 43.7389 42.5721 43.6981 43.1221C43.6665 43.6624 43.5169 44.2109 43.2492 44.7676C42.9814 45.3242 42.6089 45.8555 42.1315 46.3615Z" fill="#421B00"/>
<path d="M42.7957 28.2589L39.1289 31.2238L38.2079 30.0847L46.7897 23.1457L47.7107 24.2847L44.044 27.2496L51.9545 37.0329L50.7062 38.0422L42.7957 28.2589Z" fill="#421B00"/>
<path d="M54.9744 17.7086L63.8479 12.8989L64.5459 14.1867L57.0661 18.241L59.4566 22.6513L66.1426 19.0272L66.831 20.2974L60.1451 23.9214L63.0615 29.3019L61.6679 30.0573L54.9744 17.7086Z" fill="#421B00"/>
<path d="M76.1895 15.5673C76.6787 15.3859 77.1069 15.1557 77.4743 14.8767C77.8417 14.5978 78.134 14.2896 78.3512 13.9522C78.5639 13.6022 78.6912 13.2339 78.7333 12.8474C78.7833 12.4436 78.7292 12.0285 78.571 11.602L78.557 11.5644C78.2546 10.7492 77.7249 10.2251 76.9679 9.99229C76.2063 9.74689 75.2925 9.82193 74.2264 10.2174L70.1627 11.7248L72.1447 17.0677L76.1895 15.5673ZM68.1671 10.9027L73.8298 8.80215C74.6451 8.49974 75.4104 8.35137 76.1259 8.35705C76.8493 8.34553 77.4947 8.46995 78.0622 8.73031C78.5092 8.93544 78.902 9.22493 79.2404 9.59877C79.5788 9.97261 79.8457 10.4229 80.0411 10.9497L80.0551 10.9873C80.2598 11.5392 80.3558 12.0671 80.343 12.5713C80.3256 13.0628 80.2144 13.5321 80.0092 13.9792C79.812 14.4091 79.5334 14.812 79.1735 15.1881C78.809 15.5516 78.3859 15.8726 77.9042 16.1512L83.945 20.0313L82.1201 20.7082L76.4028 17.0077L76.3652 17.0217L72.6402 18.4035L74.5384 23.5207L73.0521 24.072L68.1671 10.9027Z" fill="#421B00"/>
<path d="M92.0135 16.9403C92.8007 16.7839 93.4937 16.4962 94.0924 16.0773C94.7016 15.6425 95.1915 15.1224 95.5622 14.5168C95.9329 13.9113 96.1817 13.2413 96.3085 12.5069C96.4485 11.7699 96.4403 11.0077 96.2839 10.2205L96.2761 10.1811C96.1197 9.39387 95.836 8.68647 95.4249 8.05893C95.0243 7.41566 94.5305 6.8864 93.9433 6.47113C93.3562 6.05587 92.6981 5.76382 91.969 5.59498C91.253 5.42354 90.5013 5.41601 89.7141 5.57242C88.9268 5.72882 88.2286 6.02438 87.6194 6.4591C87.0207 6.87809 86.536 7.39037 86.1653 7.99592C85.7946 8.60147 85.5393 9.27276 85.3993 10.0098C85.2724 10.7442 85.2872 11.505 85.4436 12.2923L85.4514 12.3316C85.6078 13.1189 85.8863 13.8342 86.2869 14.4774C86.698 15.105 87.1971 15.6264 87.7842 16.0416C88.3714 16.4569 89.0229 16.7502 89.7389 16.9217C90.468 17.0905 91.2262 17.0967 92.0135 16.9403ZM92.2595 18.3849C91.2099 18.5934 90.2142 18.5935 89.2727 18.385C88.3442 18.1739 87.5078 17.8082 86.7634 17.2878C86.0164 16.7543 85.3876 16.095 84.877 15.3099C84.3769 14.5091 84.0331 13.6363 83.8454 12.6916L83.8376 12.6523C83.6499 11.7076 83.6406 10.7683 83.8097 9.8346C83.9788 8.90085 84.3078 8.05126 84.7968 7.28582C85.2831 6.50727 85.9215 5.84172 86.7119 5.28917C87.4996 4.7235 88.4184 4.3364 89.468 4.12787C90.5177 3.91933 91.5067 3.9206 92.4352 4.13167C93.3768 4.34013 94.221 4.71112 94.9681 5.24465C95.7125 5.76505 96.3347 6.42566 96.8348 7.22647C97.3453 8.01155 97.6945 8.87643 97.8821 9.82113C97.8979 9.83165 97.9005 9.84477 97.89 9.8605C98.0777 10.8052 98.0869 11.7444 97.9178 12.6782C97.7487 13.6119 97.421 14.4681 96.9347 15.2466C96.4457 16.0121 95.8074 16.6776 95.0196 17.2433C94.2292 17.7958 93.3092 18.1764 92.2595 18.3849Z" fill="#421B00"/>
<path d="M106.767 10.7529L100.637 2.47296L102.562 2.40606L107.538 9.26042L112.067 2.07576L113.912 2.01165L108.371 10.6771L108.564 16.2521L106.96 16.3078L106.767 10.7529Z" fill="#421B00"/>
<path d="M123.582 15.7407C124.378 15.8425 125.126 15.7898 125.827 15.5827C126.543 15.3641 127.173 15.0265 127.717 14.5701C128.26 14.1137 128.709 13.5574 129.063 12.9013C129.43 12.247 129.664 11.5217 129.766 10.7255L129.771 10.6857C129.873 9.88958 129.828 9.12869 129.638 8.40307C129.462 7.66587 129.162 7.00713 128.737 6.42687C128.313 5.8466 127.781 5.36061 127.144 4.9689C126.519 4.57888 125.809 4.33298 125.013 4.23119C124.217 4.12941 123.461 4.18785 122.745 4.40652C122.044 4.61362 121.422 4.94539 120.878 5.40182C120.334 5.85825 119.879 6.41365 119.512 7.06802C119.158 7.72409 118.931 8.45021 118.829 9.24636L118.824 9.28617C118.722 10.0823 118.759 10.849 118.934 11.5862C119.125 12.3118 119.432 12.9648 119.857 13.545C120.282 14.1253 120.807 14.6105 121.431 15.0005C122.069 15.3922 122.786 15.6389 123.582 15.7407ZM123.356 17.1886C122.295 17.0529 121.351 16.7366 120.524 16.2399C119.711 15.7448 119.034 15.1323 118.493 14.4024C117.954 13.6592 117.568 12.8343 117.333 11.9277C117.113 11.0095 117.064 10.0727 117.187 9.11731L117.192 9.07751C117.314 8.12212 117.603 7.2286 118.06 6.39693C118.517 5.56527 119.099 4.86421 119.806 4.29375C120.514 3.71002 121.331 3.28174 122.256 3.00889C123.183 2.72278 124.177 2.64759 125.238 2.7833C126.3 2.91902 127.237 3.23441 128.051 3.72949C128.877 4.22626 129.56 4.84625 130.099 5.58944C130.639 6.31937 131.019 7.14342 131.239 8.0616C131.474 8.96821 131.53 9.89921 131.408 10.8546C131.42 10.8696 131.418 10.8828 131.403 10.8944C131.281 11.8498 130.991 12.7433 130.534 13.575C130.077 14.4066 129.495 15.1143 128.786 15.6981C128.079 16.2685 127.263 16.6968 126.336 16.9829C125.411 17.2558 124.418 17.3243 123.356 17.1886Z" fill="#421B00"/>
<path d="M142.127 6.51904L143.644 6.97982L139.561 20.4194L138.044 19.9587L142.127 6.51904Z" fill="#421B00"/>
<path d="M149.131 8.6438L150.494 9.23243L154.156 23.075L158.619 12.7403L160.037 13.3528L154.469 26.2482L153.308 25.747L149.547 11.5775L144.982 22.1516L143.563 21.5391L149.131 8.6438Z" fill="#421B00"/>
<path d="M172.024 22.2147L168.151 19.5251L168.986 18.322L178.051 24.6167L177.216 25.8199L173.342 23.1303L166.166 33.4644L164.848 32.5488L172.024 22.2147Z" fill="#421B00"/>
<path d="M177.83 41.4157C178.411 41.9686 179.046 42.3688 179.734 42.6162C180.44 42.8632 181.148 42.9635 181.856 42.9171C182.565 42.8707 183.255 42.6875 183.928 42.3676C184.611 42.0569 185.229 41.6106 185.782 41.0288L185.81 40.9997C186.363 40.4179 186.777 39.7782 187.053 39.0804C187.347 38.3822 187.495 37.6735 187.495 36.9544C187.496 36.2352 187.355 35.5291 187.072 34.8361C186.799 34.1523 186.372 33.534 185.79 32.981C185.209 32.4281 184.564 32.0281 183.858 31.7812C183.17 31.5337 182.472 31.4332 181.764 31.4796C181.055 31.526 180.36 31.7046 179.677 32.0153C179.004 32.3352 178.391 32.786 177.838 33.3678L177.81 33.3969C177.257 33.9787 176.833 34.6187 176.539 35.317C176.263 36.0147 176.125 36.7232 176.125 37.4423C176.124 38.1615 176.26 38.8629 176.533 39.5467C176.816 40.2397 177.248 40.8627 177.83 41.4157ZM176.791 42.4498C176.016 41.7125 175.441 40.8992 175.069 40.0098C174.706 39.1296 174.522 38.2353 174.518 37.3271C174.523 36.4091 174.699 35.5152 175.046 34.6453C175.412 33.7749 175.926 32.9907 176.59 32.2925L176.617 32.2634C177.281 31.5653 178.043 31.016 178.903 30.6156C179.763 30.2153 180.647 29.9941 181.555 29.9521C182.471 29.9004 183.383 30.038 184.29 30.365C185.207 30.6824 186.053 31.2096 186.829 31.9469C187.604 32.6841 188.174 33.4929 188.537 34.3731C188.909 35.2625 189.093 36.1662 189.088 37.0842C189.092 37.9924 188.912 38.8817 188.546 39.7521C188.199 40.622 187.694 41.406 187.03 42.1042C187.031 42.1231 187.021 42.1328 187.002 42.1333C186.339 42.8314 185.577 43.3807 184.717 43.7811C183.856 44.1814 182.968 44.4075 182.051 44.4592C181.144 44.5012 180.232 44.3635 179.316 44.0462C178.409 43.7192 177.567 43.187 176.791 42.4498Z" fill="#421B00"/>
<path d="M194.795 39.9109L195.789 41.3211L188.543 51.3432L200.356 47.7259L201.108 48.7917L193.735 58.7058L205.608 55.2427L206.568 56.6037L192.117 60.6579L191.342 59.5592L198.435 49.8418L186.889 53.2461L186.126 52.1639L194.795 39.9109Z" fill="#421B00"/>
<path d="M208.74 61.1091L209.348 62.4634L202.71 75.1503L212.977 70.5343L213.611 71.9435L200.8 77.7032L200.281 76.5503L207.067 63.5551L196.562 68.2781L195.929 66.8689L208.74 61.1091Z" fill="#421B00"/>
<path d="M209.949 84.0533L211.285 89.4693L209.707 89.8585L208.371 84.4426L209.949 84.0533Z" fill="#421B00"/>
</svg>
