<svg width="133" height="132" viewBox="0 0 133 132" fill="none" xmlns="http://www.w3.org/2000/svg">
<ellipse cx="66.5" cy="66" rx="66.5" ry="66" fill="#FFDB31"/>
<path d="M122 65.2188C122 95.8623 96.9363 120.719 66 120.719C35.0637 120.719 10 95.8623 10 65.2188C10 34.5752 35.0637 9.71875 66 9.71875C96.9363 9.71875 122 34.5752 122 65.2188Z" stroke="white" stroke-width="2"/>
<path d="M99.0353 49.6612L89.5987 43.7619V38.8512C89.5987 37.2647 88.2696 35.9735 86.6365 35.9735H77.1501L71.3568 32.3463C68.7393 30.5608 65.2269 30.5524 62.5927 32.3146L56.6184 35.9736H47.3953C45.7622 35.9736 44.4331 37.2648 44.4331 38.8513V43.435L34.5203 49.5095C34.5123 49.5173 34.4957 49.5257 34.4877 49.5335C34.4058 49.5891 33.1666 50.4104 32.198 51.7578C32.1734 51.7895 32.1408 51.8295 32.1162 51.8612C32.1082 51.8773 32.0996 51.8851 32.0916 51.9012C31.4843 52.7782 31 53.8542 31 55.082V89.4479C31 91.5683 32.7728 93.2982 34.9633 93.2982H98.4367C100.619 93.2982 102.4 91.576 102.4 89.4479V55.3838C102.392 51.7727 99.3474 49.8515 99.0354 49.6601L99.0353 49.6612ZM89.5987 46.5283L97.7474 51.6225C97.7554 51.6303 97.772 51.6386 97.78 51.6386C97.7881 51.6464 98.1166 51.8377 98.5185 52.2125L89.6068 57.8883V46.5282L89.5987 46.5283ZM63.8891 34.2596C63.9057 34.2518 63.9217 34.2434 63.9303 34.2279C65.7437 33.0001 68.181 33.0162 69.9863 34.2518C70.0029 34.2596 70.0109 34.2679 70.0275 34.2835L72.7109 35.9656H61.107L63.8891 34.2596ZM46.8294 38.8433C46.8294 38.5402 47.0836 38.2933 47.3955 38.2933H86.6363C86.9482 38.2933 87.2024 38.5402 87.2024 38.8433L87.2029 59.4264L72.1933 68.9925L70.4126 67.8926C68.3777 66.4657 65.6611 66.4657 63.6182 67.8926L61.7556 69.0486L46.8295 59.6894L46.8294 38.8433ZM35.817 51.4628L44.4334 46.1857V58.1835L34.9143 52.2124C35.2589 51.8776 35.5954 51.614 35.817 51.4628ZM33.3962 55.0739C33.3962 54.763 33.462 54.4522 33.5685 54.1569L59.5317 70.4281L33.3956 86.6509L33.3962 55.0739ZM99.9951 89.4327C99.9951 90.2696 99.2974 90.9475 98.4358 90.9475H34.9625C34.1011 90.9475 33.4032 90.2696 33.4032 89.4327V89.4165L64.9479 69.8299C64.9726 69.8138 64.9892 69.806 65.0138 69.7899C66.2198 68.9369 67.8369 68.9369 69.0349 69.7899C69.0595 69.806 69.0761 69.8216 69.1007 69.8299L100.004 88.9539L100.003 89.4327L99.9951 89.4327ZM99.9951 86.1885L74.4086 70.3558L99.7988 54.1814C99.9138 54.5479 99.9877 54.9466 99.9877 55.3853L99.9871 86.1895L99.9951 86.1885Z" fill="white"/>
<path d="M66.7421 62.841C66.9425 62.841 67.1435 62.7948 67.3165 62.7023C69.6972 61.4928 72.3418 59.5983 74.3847 57.6337C76.1636 55.9233 78.3432 53.3432 78.5805 50.7855C78.7358 49.0751 77.9965 47.5808 76.4372 46.4719C74.5948 45.1624 72.7072 44.6385 70.8373 44.9158C68.9949 45.1931 67.6086 46.2022 66.7235 47.057C65.7934 46.1941 64.3429 45.1775 62.4642 44.9158C60.6854 44.6692 58.9345 45.1393 57.2474 46.3102C55.5143 47.5198 54.6936 49.014 54.812 50.7625C54.9488 52.8963 56.5177 55.3072 59.4633 57.9417C61.7525 59.983 64.4155 61.7315 66.1486 62.6868C66.3223 62.7948 66.5321 62.841 66.7421 62.841ZM57.0196 50.67C56.9465 49.5379 57.4758 48.59 58.6521 47.7738C59.628 47.0957 60.6039 46.7491 61.5526 46.7491C61.7256 46.7491 61.9082 46.7647 62.0813 46.7878C64.252 47.0882 65.7839 49.1063 65.7935 49.1294C65.9939 49.4067 66.3496 49.5684 66.7421 49.5684H66.751C67.1429 49.5609 67.4992 49.3836 67.6996 49.0988C67.718 49.0757 69.1043 47.0961 71.2203 46.7803C72.4062 46.6029 73.6831 46.9882 74.9963 47.9205C76.018 48.6448 76.4557 49.5384 76.3552 50.6474C76.2547 51.7414 75.5708 53.5898 72.8986 56.2168C71.1568 57.9271 68.867 59.6294 66.7605 60.7927C62.9203 58.5504 57.2473 54.0674 57.0195 50.67L57.0196 50.67Z" fill="white"/>
</svg>
