<svg width="40" height="27" viewBox="0 0 40 27" fill="none" xmlns="http://www.w3.org/2000/svg">
<path d="M4 3C3.4375 3 3 3.5 3 4V5.4375L13.75 14.25C15.0625 15.3125 16.875 15.3125 18.1875 14.25L21.375 11.625C20.5625 13.125 20.0625 14.875 20 16.6875C17.5625 18.5625 14.1875 18.5 11.875 16.5625L3 9.3125V20C3 20.5625 3.4375 21 4 21H20.75C21.125 22.125 21.75 23.125 22.5 24H4C1.75 24 0 22.25 0 20V4C0 1.8125 1.75 0 4 0H28C30.1875 0 32 1.8125 32 4V6.0625C31.625 6.0625 31.3125 6 31 6C29.8125 6 28.625 6.1875 27.5625 6.5625L29 5.4375V4C29 3.5 28.5 3 28 3H4ZM40 17C40 20.25 38.25 23.1875 35.5 24.8125C32.6875 26.4375 29.25 26.4375 26.5 24.8125C23.6875 23.1875 22 20.25 22 17C22 13.8125 23.6875 10.875 26.5 9.25C29.25 7.625 32.6875 7.625 35.5 9.25C38.25 10.875 40 13.8125 40 17ZM35.1875 14.3125C34.8125 13.9375 34.125 13.9375 33.75 14.3125L30 18.125L28.1875 16.3125C27.8125 15.9375 27.125 15.9375 26.75 16.3125C26.375 16.6875 26.375 17.375 26.75 17.75L29.25 20.25C29.625 20.625 30.3125 20.625 30.6875 20.25L35.1875 15.75C35.5625 15.375 35.5625 14.6875 35.1875 14.3125Z" fill="#FF9828"/>
</svg>
