<svg width="104" height="108" viewBox="0 0 104 108" fill="none" xmlns="http://www.w3.org/2000/svg">
<path d="M81.5052 93.137C69.6928 104.877 49.9671 107.385 44.8159 107.85C52.6731 102.905 59.8212 96.7537 66.6554 90.5193C73.4936 84.2814 81.0684 77.6829 86.1053 69.8734C86.4563 69.3297 85.847 68.4822 85.2633 68.9742C77.7336 75.3199 71.4721 83.2328 64.1956 89.918C57.5871 95.9895 50.44 101.406 43.6851 107.292C44.7998 102.758 52.4324 73.643 67.0285 63.487C82.8728 52.4619 103.62 54.2101 103.62 54.2101C103.62 54.2101 95.1751 79.5514 81.5052 93.137Z" fill="#98C44A"/>
<path d="M46.116 51.3601C53.8598 74.9914 42.5113 103.39 41.0149 106.957C40.543 91.0704 37.8686 75.3505 33.1462 60.1671C29.4849 48.3934 25.3562 34.1548 15.3868 26.1933C14.7027 25.6472 13.6391 26.572 14.2399 27.269C32.0525 47.9135 36.0122 79.3026 38.9288 105.688C31.385 99.07 3.86323 73.5542 0.609127 50.8391C-3.16552 24.4848 11.8368 0 11.8368 0C11.8368 0 37.838 26.0996 46.116 51.3601Z" fill="#98C44A"/>
</svg>
