<svg width="250" height="251" viewBox="0 0 250 251" fill="none" xmlns="http://www.w3.org/2000/svg">
<rect opacity="0.3" width="250" height="250" rx="125" fill="#F69F24"/>
<path d="M83.75 90.375C79.8828 90.375 76.875 93.5977 76.875 97.25V105.844L118.77 136.781C122.422 139.359 127.363 139.359 131.016 136.781L173.125 105.844V97.25C173.125 93.5977 169.902 90.375 166.25 90.375H83.75ZM76.875 114.438V152.25C76.875 156.117 79.8828 159.125 83.75 159.125H166.25C169.902 159.125 173.125 156.117 173.125 152.25V114.438L135.098 142.367C129.082 146.664 120.703 146.664 114.688 142.367L76.875 114.438ZM70 97.25C70 89.7305 76.0156 83.5 83.75 83.5H166.25C173.77 83.5 180 89.7305 180 97.25V152.25C180 159.984 173.77 166 166.25 166H83.75C76.0156 166 70 159.984 70 152.25V97.25Z" fill="#F69F24"/>
</svg>
