<svg width="250" height="250" viewBox="0 0 250 250" fill="none" xmlns="http://www.w3.org/2000/svg">
<rect opacity="0.3" width="250" height="250" rx="125" fill="#98C44A"/>
<path d="M125 95.2266L132.422 83.1172C135.352 78.4297 140.625 75.5 146.289 75.5H146.875C155.469 75.5 162.5 82.5312 162.5 91.125C162.5 94.8359 161.328 97.9609 159.375 100.5H168.75C175.586 100.5 181.25 106.164 181.25 113V163C181.25 170.031 175.586 175.5 168.75 175.5H81.25C74.2188 175.5 68.75 170.031 68.75 163V113C68.75 106.164 74.2188 100.5 81.25 100.5H90.4297C88.4766 97.9609 87.5 94.8359 87.5 91.125C87.5 82.5312 94.3359 75.5 103.125 75.5H103.516C109.18 75.5 114.453 78.4297 117.383 83.1172L125 95.2266ZM146.289 81.75C142.773 81.75 139.648 83.7031 137.695 86.4375L128.906 100.5H146.875C151.953 100.5 156.25 96.3984 156.25 91.125C156.25 86.0469 151.953 81.75 146.875 81.75H146.289ZM120.898 100.5L112.109 86.4375C110.156 83.7031 107.031 81.75 103.516 81.75H103.125C97.8516 81.75 93.75 86.0469 93.75 91.125C93.75 96.3984 97.8516 100.5 103.125 100.5H120.898ZM81.25 106.75C77.7344 106.75 75 109.68 75 113V131.75H175V113C175 109.68 172.07 106.75 168.75 106.75H131.641L142.969 120.422C143.945 121.789 143.945 123.742 142.578 124.914C141.211 125.891 139.258 125.695 138.086 124.523L125 108.508L111.719 124.523C110.547 125.695 108.594 125.891 107.227 124.914C105.859 123.742 105.859 121.789 106.836 120.422L118.164 106.75H81.25ZM75 138V150.5H175V138H75ZM175 163V156.75H75V163C75 166.516 77.7344 169.25 81.25 169.25H168.75C172.07 169.25 175 166.516 175 163Z" fill="#98C44A"/>
</svg>
