<svg width="79" height="83" viewBox="0 0 79 83" fill="none" xmlns="http://www.w3.org/2000/svg">
<path d="M62.14 71.0084C53.1342 79.9592 38.0951 81.8708 34.1678 82.2256C40.1582 78.4555 45.608 73.7658 50.8184 69.0126C56.0319 64.2568 61.807 59.226 65.6472 53.272C65.9148 52.8575 65.4503 52.2114 65.0052 52.5864C59.2645 57.4245 54.4907 63.4573 48.9431 68.5542C43.9047 73.1831 38.4557 77.3131 33.3057 81.8005C34.1556 78.3434 39.9747 56.146 51.1029 48.403C63.1827 39.9974 79.0001 41.3302 79.0001 41.3302C79.0001 41.3302 72.562 60.6506 62.14 71.0084Z" fill="#98C44A"/>
<path d="M35.1592 39.1574C41.0632 57.174 32.411 78.8255 31.2701 81.5447C30.9103 69.4328 28.8713 57.4478 25.2709 45.8719C22.4795 36.8955 19.3318 26.0399 11.731 19.97C11.2095 19.5536 10.3986 20.2587 10.8566 20.7901C24.437 36.5296 27.4559 60.4609 29.6796 80.5774C23.9282 75.5317 2.94536 56.0783 0.464403 38.7601C-2.41341 18.6674 9.02445 0 9.02445 0C9.02445 0 28.848 19.8985 35.1592 39.1574Z" fill="#98C44A"/>
</svg>
