<svg width="224" height="224" viewBox="0 0 224 224" fill="none" xmlns="http://www.w3.org/2000/svg">
<path d="M219.24 117.367L219.531 112.66L220.993 112.75L220.312 123.766L218.85 123.675L219.141 118.969L206.584 118.193L206.683 116.59L219.24 117.367Z" fill="#421B00"/>
<path d="M219.679 128.658L219.352 130.21L213.245 128.924L211.575 136.856L217.681 138.142L217.355 139.693L203.61 136.799L203.937 135.248L210.122 136.55L211.792 128.618L205.607 127.315L205.934 125.764L219.679 128.658Z" fill="#421B00"/>
<path d="M215.801 144.914L212.27 154.434L210.916 153.931L213.896 145.898L209.399 144.23L206.733 151.417L205.379 150.914L208.045 143.728L203.435 142.018L200.421 150.145L199.066 149.643L202.632 140.029L215.801 144.914Z" fill="#421B00"/>
<path d="M193.434 163.047C192.873 163.958 192.619 164.792 192.672 165.547C192.725 166.302 193.088 166.887 193.76 167.301L193.794 167.322C194.443 167.722 195.109 167.763 195.792 167.445C196.486 167.134 197.156 166.455 197.801 165.407L200.127 161.631L195.907 159.032L193.434 163.047ZM199.145 165.904C198.64 166.724 198.409 167.494 198.454 168.212C198.503 168.949 198.88 169.535 199.586 169.97L199.621 169.991C200.213 170.356 200.826 170.419 201.46 170.181C202.093 169.943 202.673 169.397 203.199 168.542L205.44 164.903L201.323 162.367L199.145 165.904ZM207.474 164.317L204.339 169.409C203.918 170.092 203.449 170.636 202.933 171.041C202.421 171.464 201.895 171.745 201.354 171.883C200.503 172.066 199.707 171.93 198.967 171.474L198.933 171.453C198.545 171.214 198.233 170.943 197.996 170.64C197.763 170.355 197.588 170.051 197.473 169.729C197.369 169.413 197.307 169.093 197.288 168.767C197.273 168.459 197.288 168.154 197.333 167.852C197.013 168.142 196.673 168.388 196.312 168.59C195.956 168.811 195.594 168.965 195.226 169.052C194.858 169.14 194.473 169.154 194.07 169.094C193.678 169.041 193.277 168.889 192.867 168.636L192.833 168.615C192.32 168.3 191.922 167.913 191.638 167.455C191.366 167.005 191.206 166.498 191.16 165.936C191.118 165.391 191.188 164.806 191.37 164.179C191.551 163.553 191.842 162.915 192.242 162.266L195.514 156.952L207.474 164.317Z" fill="#421B00"/>
<path d="M198.759 177.704L192.26 185.505L191.15 184.58L196.634 177.997L192.949 174.928L188.043 180.817L186.933 179.893L191.839 174.003L188.062 170.857L182.514 177.517L181.404 176.592L187.966 168.714L198.759 177.704Z" fill="#421B00"/>
<path d="M175.571 181.892C176.399 181.133 177.281 180.57 178.215 180.204C179.149 179.856 180.184 179.679 181.32 179.672L181.382 181.194C180.387 181.198 179.501 181.33 178.723 181.589C177.954 181.859 177.209 182.323 176.489 182.983C175.789 183.625 175.381 184.298 175.265 185.003C175.148 185.727 175.324 186.345 175.794 186.858L175.822 186.888C176.038 187.125 176.272 187.3 176.523 187.415C176.782 187.54 177.083 187.591 177.425 187.568C177.767 187.546 178.174 187.435 178.647 187.238C179.109 187.05 179.666 186.767 180.317 186.388C181.026 185.974 181.68 185.647 182.277 185.408C182.865 185.178 183.41 185.051 183.913 185.025C184.416 185 184.881 185.082 185.308 185.271C185.735 185.46 186.143 185.766 186.532 186.191L186.559 186.22C186.93 186.625 187.189 187.076 187.338 187.575C187.487 188.074 187.521 188.587 187.441 189.113C187.37 189.65 187.191 190.177 186.904 190.695C186.625 191.222 186.239 191.712 185.746 192.164C184.986 192.86 184.226 193.357 183.465 193.655C182.703 193.972 181.862 194.163 180.941 194.226L180.794 192.7C181.639 192.652 182.389 192.491 183.045 192.216C183.691 191.951 184.28 191.574 184.813 191.086C185.493 190.463 185.882 189.807 185.978 189.12C186.083 188.443 185.919 187.868 185.485 187.395L185.458 187.365C185.232 187.119 184.989 186.933 184.73 186.808C184.479 186.693 184.173 186.646 183.813 186.668C183.461 186.7 183.039 186.815 182.548 187.011C182.066 187.217 181.484 187.523 180.804 187.929C179.415 188.73 178.241 189.152 177.283 189.196C176.315 189.248 175.47 188.88 174.746 188.091L174.719 188.061C174.313 187.617 174.031 187.132 173.874 186.604C173.726 186.086 173.693 185.555 173.773 185.009C173.844 184.472 174.033 183.936 174.34 183.4C174.648 182.865 175.058 182.362 175.571 181.892Z" fill="#421B00"/>
<path d="M173.926 199.614L177.789 196.91L178.629 198.11L169.587 204.438L168.747 203.238L172.61 200.534L165.397 190.227L166.712 189.306L173.926 199.614Z" fill="#421B00"/>
<path d="M160.512 209.502L151.306 213.641L150.706 212.305L158.466 208.816L156.408 204.241L149.472 207.36L148.88 206.042L155.816 202.923L153.306 197.341L154.752 196.691L160.512 209.502Z" fill="#421B00"/>
<path d="M139.401 209.956C138.901 210.102 138.457 210.301 138.071 210.553C137.684 210.805 137.371 211.091 137.13 211.412C136.893 211.746 136.739 212.105 136.67 212.487C136.591 212.886 136.615 213.304 136.742 213.741L136.754 213.779C136.997 214.614 137.488 215.175 138.226 215.461C138.968 215.76 139.885 215.751 140.977 215.433L145.138 214.22L143.543 208.749L139.401 209.956ZM147.07 215.183L141.271 216.873C140.436 217.116 139.662 217.209 138.949 217.152C138.227 217.112 137.592 216.942 137.044 216.642C136.613 216.405 136.242 216.088 135.931 215.691C135.62 215.294 135.386 214.826 135.229 214.286L135.218 214.248C135.053 213.683 134.995 213.149 135.044 212.647C135.097 212.158 135.241 211.698 135.478 211.267C135.705 210.852 136.012 210.47 136.398 210.121C136.788 209.784 137.233 209.494 137.733 209.251L131.985 204.949L133.854 204.404L139.292 208.504L139.33 208.493L143.145 207.381L141.618 202.141L143.139 201.698L147.07 215.183Z" fill="#421B00"/>
<path d="M123.391 207.434C122.594 207.532 121.882 207.769 121.255 208.143C120.615 208.532 120.089 209.016 119.675 209.593C119.261 210.17 118.965 210.82 118.785 211.543C118.591 212.268 118.544 213.028 118.643 213.825L118.648 213.865C118.746 214.661 118.978 215.388 119.342 216.043C119.695 216.714 120.149 217.278 120.705 217.735C121.26 218.192 121.895 218.531 122.61 218.752C123.312 218.975 124.061 219.037 124.857 218.939C125.654 218.84 126.372 218.596 127.011 218.207C127.638 217.832 128.159 217.357 128.573 216.78C128.987 216.203 129.29 215.552 129.483 214.827C129.663 214.104 129.704 213.344 129.605 212.547L129.6 212.507C129.501 211.711 129.276 210.977 128.923 210.306C128.559 209.651 128.099 209.094 127.543 208.638C126.988 208.181 126.36 207.841 125.658 207.618C124.943 207.396 124.187 207.335 123.391 207.434ZM123.25 205.975C124.312 205.843 125.305 205.916 126.229 206.192C127.14 206.47 127.948 206.896 128.652 207.469C129.358 208.055 129.938 208.759 130.39 209.579C130.83 210.414 131.11 211.309 131.228 212.265L131.233 212.305C131.352 213.261 131.293 214.198 131.056 215.117C130.819 216.036 130.429 216.86 129.886 217.587C129.344 218.329 128.659 218.946 127.831 219.439C127.004 219.946 126.06 220.266 124.998 220.397C123.935 220.529 122.949 220.456 122.039 220.178C121.115 219.901 120.3 219.47 119.593 218.883C118.889 218.31 118.316 217.606 117.876 216.771C117.424 215.951 117.138 215.063 117.02 214.107C117.005 214.095 117.003 214.082 117.015 214.067C116.896 213.111 116.955 212.174 117.192 211.255C117.429 210.336 117.818 209.506 118.359 208.765C118.903 208.037 119.588 207.42 120.415 206.913C121.243 206.419 122.188 206.107 123.25 205.975Z" fill="#421B00"/>
<path d="M108.292 212.455L113.8 221.161L111.875 221.087L107.414 213.887L102.371 220.72L100.526 220.649L106.687 212.413L106.903 206.839L108.507 206.9L108.292 212.455Z" fill="#421B00"/>
<path d="M92.3505 206.279C91.5633 206.123 90.813 206.124 90.0996 206.282C89.3704 206.451 88.7189 206.744 88.1449 207.162C87.5709 207.58 87.0849 208.104 86.6869 208.734C86.2758 209.362 85.9921 210.069 85.8357 210.856L85.8279 210.896C85.6715 211.683 85.6633 212.445 85.8032 213.182C85.9275 213.93 86.1815 214.607 86.5653 215.216C86.9492 215.824 87.4457 216.345 88.0549 216.78C88.651 217.212 89.3426 217.506 90.1299 217.663C90.9171 217.819 91.6753 217.813 92.4044 217.644C93.1178 217.486 93.7615 217.198 94.3355 216.78C94.9095 216.362 95.4021 215.839 95.8132 215.212C96.2111 214.581 96.4883 213.873 96.6447 213.085L96.6525 213.046C96.8089 212.259 96.825 211.491 96.7007 210.744C96.5608 210.007 96.2989 209.334 95.915 208.726C95.5312 208.118 95.0413 207.598 94.4452 207.166C93.836 206.731 93.1378 206.435 92.3505 206.279ZM92.6753 204.85C93.725 205.059 94.645 205.439 95.4354 205.992C96.2126 206.542 96.8457 207.199 97.3347 207.965C97.821 208.743 98.1501 209.593 98.3218 210.514C98.4778 211.445 98.4619 212.383 98.2742 213.327L98.2664 213.367C98.0787 214.311 97.7283 215.183 97.2151 215.981C96.7019 216.779 96.0731 217.439 95.3287 217.959C94.5817 218.493 93.7374 218.864 92.7958 219.072C91.8517 219.294 90.8547 219.3 89.8051 219.092C88.7554 218.883 87.842 218.504 87.0647 217.954C86.2743 217.401 85.636 216.736 85.1496 215.957C84.6607 215.192 84.3382 214.343 84.1822 213.412C84.0105 212.492 84.0185 211.559 84.2062 210.614C84.1957 210.599 84.1983 210.585 84.214 210.575C84.4017 209.63 84.7521 208.759 85.2653 207.961C85.7785 207.162 86.4086 206.497 87.1556 205.963C87.9 205.443 88.7443 205.072 89.6885 204.85C90.63 204.642 91.6257 204.642 92.6753 204.85Z" fill="#421B00"/>
<path d="M72.7652 213.954L71.2852 213.386L76.3182 200.272L77.7982 200.84L72.7652 213.954Z" fill="#421B00"/>
<path d="M66.3621 211.468L65.0438 210.785L62.3679 196.719L57.1875 206.713L55.8157 206.002L62.2797 193.531L63.402 194.113L66.1539 208.513L71.4543 198.287L72.8261 198.998L66.3621 211.468Z" fill="#421B00"/>
<path d="M44.5119 196.278L48.1894 199.229L47.2726 200.372L38.6655 193.464L39.5824 192.321L43.2599 195.273L51.1348 185.461L52.3867 186.466L44.5119 196.278Z" fill="#421B00"/>
<path d="M40.2084 176.811C39.6661 176.219 39.0606 175.776 38.3917 175.482C37.7039 175.187 37.005 175.038 36.295 175.035C35.585 175.033 34.8832 175.168 34.1896 175.44C33.487 175.703 32.8398 176.106 32.248 176.648L32.2185 176.675C31.6267 177.217 31.1693 177.827 30.8463 178.504C30.5043 179.18 30.3082 179.877 30.258 180.595C30.2077 181.312 30.2997 182.026 30.5337 182.737C30.7588 183.438 31.1425 184.084 31.6847 184.676C32.227 185.268 32.842 185.711 33.5298 186.006C34.1986 186.301 34.8881 186.449 35.5981 186.452C36.3081 186.454 37.0144 186.324 37.717 186.061C38.4106 185.789 39.0533 185.381 39.6451 184.839L39.6747 184.812C40.2664 184.269 40.7333 183.66 41.0752 182.984C41.3983 182.307 41.5849 181.61 41.6352 180.892C41.6854 180.175 41.598 179.466 41.3729 178.765C41.1388 178.054 40.7507 177.403 40.2084 176.811ZM41.3154 175.851C42.0385 176.64 42.5552 177.491 42.8657 178.404C43.1672 179.307 43.2886 180.212 43.2302 181.118C43.1618 182.033 42.9246 182.913 42.5185 183.757C42.0935 184.6 41.526 185.347 40.8159 185.998L40.7863 186.025C40.0762 186.676 39.2782 187.171 38.3923 187.511C37.5064 187.851 36.6094 188.011 35.7014 187.99C34.7835 187.978 33.8833 187.778 33.0008 187.389C32.1084 187.01 31.3007 186.425 30.5777 185.636C29.8547 184.847 29.3424 184.001 29.041 183.098C28.7305 182.185 28.6094 181.271 28.6778 180.355C28.7362 179.449 28.978 178.574 29.403 177.731C29.809 176.887 30.3671 176.14 31.0772 175.489C31.078 175.47 31.0879 175.461 31.1068 175.462C31.8169 174.811 32.6149 174.316 33.5008 173.976C34.3867 173.636 35.2886 173.472 36.2065 173.483C37.1146 173.504 38.0148 173.704 38.9071 174.084C39.7897 174.473 40.5924 175.062 41.3154 175.851Z" fill="#421B00"/>
<path d="M22.9795 176.816L22.0909 175.336L30.0524 165.872L18.006 168.614L17.3344 167.496L25.413 158.149L13.3183 160.733L12.4607 159.305L27.1705 156.321L27.8628 157.473L20.0766 166.645L31.841 164.095L32.5229 165.231L22.9795 176.816Z" fill="#421B00"/>
<path d="M10.6054 154.528L10.0994 153.132L17.6676 140.977L7.08424 144.813L6.55778 143.36L19.7633 138.574L20.1941 139.762L12.4559 152.214L23.2845 148.289L23.811 149.742L10.6054 154.528Z" fill="#421B00"/>
<path d="M11.2841 132.253L10.3229 126.758L11.9239 126.478L12.8851 131.972L11.2841 132.253Z" fill="#421B00"/>
<path d="M3.51654 113.836L3.57115 118.551L2.10644 118.568L1.97864 107.533L3.44335 107.516L3.49795 112.231L16.0784 112.085L16.097 113.691L3.51654 113.836Z" fill="#421B00"/>
<path d="M2.25789 102.423L2.47099 100.852L8.65483 101.691L9.74461 93.6581L3.56077 92.8192L3.77387 91.2484L17.6925 93.1366L17.4794 94.7075L11.216 93.8578L10.1262 101.891L16.3896 102.74L16.1765 104.311L2.25789 102.423Z" fill="#421B00"/>
<path d="M4.97465 85.7577L7.81554 76.0099L9.20258 76.4141L6.80522 84.64L11.4094 85.9819L13.5541 78.6229L14.9412 79.0271L12.7965 86.3861L17.5162 87.7616L19.9417 79.4394L21.3287 79.8437L18.4597 89.6878L4.97465 85.7577Z" fill="#421B00"/>
<path d="M25.8072 66.4128C26.2997 65.4626 26.4916 64.6128 26.3829 63.8634C26.2741 63.1139 25.8694 62.5576 25.1687 62.1943L25.133 62.1759C24.4561 61.825 23.7888 61.8332 23.1313 62.2005C22.4619 62.5617 21.8441 63.2887 21.2777 64.3813L19.2369 68.3184L23.6372 70.5992L25.8072 66.4128ZM19.9014 63.9843C20.3446 63.1292 20.5176 62.3449 20.4203 61.6315C20.3173 60.9001 19.8976 60.3435 19.1613 59.9618L19.1256 59.9434C18.508 59.6233 17.892 59.6053 17.2776 59.8895C16.6632 60.1737 16.1251 60.7612 15.6634 61.652L13.6965 65.4465L17.9899 67.672L19.9014 63.9843ZM11.7114 66.1804L14.4632 60.8716C14.8326 60.159 15.2598 59.5819 15.7449 59.1402C16.2243 58.6805 16.7285 58.3618 17.2576 58.184C18.0928 57.9389 18.8964 58.0165 19.6684 58.4166L19.704 58.4351C20.1078 58.6444 20.4393 58.8915 20.6984 59.1765C20.9518 59.4435 21.148 59.7335 21.287 60.0467C21.4142 60.3537 21.4993 60.669 21.5425 60.9927C21.5799 61.2984 21.5874 61.6037 21.565 61.9085C21.8628 61.5957 22.1838 61.3252 22.5282 61.0968C22.8668 60.8505 23.2165 60.6701 23.5771 60.5557C23.9378 60.4413 24.3213 60.399 24.7277 60.4289C25.1223 60.4526 25.5333 60.5752 25.9609 60.7969L25.9965 60.8153C26.5309 61.0924 26.9565 61.4486 27.2733 61.884C27.5781 62.3132 27.7744 62.8067 27.862 63.3644C27.9439 63.9041 27.9173 64.493 27.7824 65.1313C27.6474 65.7695 27.4045 66.4271 27.0536 67.104L24.1817 72.6444L11.7114 66.1804Z" fill="#421B00"/>
<path d="M19.421 52.14L25.3335 43.8858L26.5081 44.7271L21.5186 51.6926L25.4174 54.4853L29.881 48.2539L31.0555 49.0952L26.5919 55.3266L30.5885 58.1894L35.6363 51.1424L36.8108 51.9837L30.8399 60.3194L19.421 52.14Z" fill="#421B00"/>
<path d="M42.1315 46.3634C41.3604 47.1808 40.5222 47.806 39.6168 48.2393C38.711 48.6536 37.6915 48.9056 36.5586 48.9954L36.3868 47.4815C37.3782 47.4054 38.2526 47.2096 39.0099 46.8942C39.7575 46.5697 40.4664 46.0523 41.1366 45.342C41.7884 44.6511 42.1465 43.9499 42.211 43.2383C42.2749 42.5078 42.0539 41.9038 41.5479 41.4265L41.5188 41.3989C41.2852 41.1786 41.0393 41.0201 40.781 40.9236C40.513 40.8178 40.2093 40.7888 39.87 40.8365C39.5307 40.8842 39.1326 41.0235 38.6756 41.2545C38.2278 41.4757 37.6931 41.7988 37.0714 42.2238C36.3941 42.6882 35.7662 43.0614 35.1877 43.3431C34.6183 43.6152 34.0838 43.7822 33.584 43.844C33.0843 43.9058 32.6145 43.858 32.1746 43.7004C31.7347 43.5429 31.3056 43.2668 30.8872 42.872L30.858 42.8445C30.459 42.4681 30.1673 42.0365 29.9828 41.5498C29.7984 41.0631 29.7268 40.5542 29.7681 40.023C29.7997 39.4827 29.9402 38.9439 30.1895 38.4068C30.4292 37.8604 30.7785 37.344 31.2375 36.8575C31.9444 36.1082 32.6665 35.5573 33.4038 35.2047C34.1406 34.8331 34.9661 34.582 35.8802 34.4513L36.137 35.9627C35.298 36.0722 34.5614 36.2877 33.9273 36.6089C33.3023 36.9204 32.7419 37.3389 32.2462 37.8643C31.6128 38.5357 31.273 39.2175 31.2269 39.9096C31.171 40.5926 31.3766 41.1544 31.8437 41.5951L31.8729 41.6226C32.1161 41.8521 32.3718 42.0197 32.6398 42.1255C32.8981 42.2221 33.2064 42.2462 33.5646 42.198C33.913 42.1405 34.3252 41.9961 34.8011 41.7646C35.2673 41.5239 35.8249 41.1765 36.4742 40.7223C37.8012 39.8226 38.941 39.3163 39.8935 39.2034C40.8552 39.0808 41.7252 39.3867 42.5036 40.1211L42.5328 40.1487C42.9707 40.5618 43.287 41.0258 43.4817 41.5406C43.6668 42.0462 43.7389 42.574 43.6981 43.1241C43.6665 43.6644 43.5169 44.2129 43.2492 44.7695C42.9814 45.3262 42.6089 45.8575 42.1315 46.3634Z" fill="#421B00"/>
<path d="M42.7957 28.2589L39.1289 31.2238L38.2079 30.0847L46.7897 23.1457L47.7107 24.2847L44.044 27.2496L51.9545 37.0329L50.7062 38.0422L42.7957 28.2589Z" fill="#421B00"/>
<path d="M54.9744 17.7096L63.8479 12.8999L64.5459 14.1877L57.0661 18.242L59.4566 22.6523L66.1426 19.0282L66.831 20.2984L60.1451 23.9224L63.0615 29.3029L61.6679 30.0583L54.9744 17.7096Z" fill="#421B00"/>
<path d="M76.1895 15.5673C76.6787 15.3859 77.1069 15.1557 77.4743 14.8767C77.8417 14.5978 78.134 14.2896 78.3512 13.9522C78.5639 13.6022 78.6912 13.2339 78.7333 12.8474C78.7833 12.4436 78.7292 12.0285 78.571 11.602L78.557 11.5644C78.2546 10.7492 77.7249 10.2251 76.9679 9.99229C76.2063 9.74689 75.2925 9.82193 74.2264 10.2174L70.1627 11.7248L72.1447 17.0677L76.1895 15.5673ZM68.1671 10.9027L73.8298 8.80215C74.6451 8.49974 75.4104 8.35137 76.1259 8.35705C76.8493 8.34553 77.4947 8.46995 78.0622 8.73031C78.5092 8.93544 78.902 9.22493 79.2404 9.59877C79.5788 9.97261 79.8457 10.4229 80.0411 10.9497L80.0551 10.9873C80.2598 11.5392 80.3558 12.0671 80.343 12.5713C80.3256 13.0628 80.2144 13.5321 80.0092 13.9792C79.812 14.4091 79.5334 14.812 79.1735 15.1881C78.809 15.5516 78.3859 15.8726 77.9042 16.1512L83.945 20.0313L82.1201 20.7082L76.4028 17.0077L76.3652 17.0217L72.6402 18.4035L74.5384 23.5207L73.0521 24.072L68.1671 10.9027Z" fill="#421B00"/>
<path d="M92.0135 16.9384C92.8007 16.782 93.4937 16.4943 94.0924 16.0753C94.7016 15.6406 95.1915 15.1204 95.5622 14.5149C95.9329 13.9093 96.1817 13.2394 96.3085 12.5049C96.4485 11.7679 96.4403 11.0058 96.2839 10.2185L96.2761 10.1792C96.1197 9.39192 95.836 8.68452 95.4249 8.05698C95.0243 7.41371 94.5305 6.88444 93.9433 6.46918C93.3562 6.05391 92.6981 5.76186 91.969 5.59303C91.253 5.42158 90.5013 5.41406 89.7141 5.57046C88.9268 5.72686 88.2286 6.02243 87.6194 6.45715C87.0207 6.87614 86.536 7.38841 86.1653 7.99397C85.7946 8.59952 85.5393 9.27081 85.3993 10.0078C85.2724 10.7422 85.2872 11.5031 85.4436 12.2903L85.4514 12.3297C85.6078 13.1169 85.8863 13.8322 86.2869 14.4755C86.698 15.103 87.1971 15.6244 87.7842 16.0397C88.3714 16.4549 89.0229 16.7483 89.7389 16.9197C90.468 17.0886 91.2262 17.0948 92.0135 16.9384ZM92.2595 18.3829C91.2099 18.5915 90.2142 18.5915 89.2727 18.3831C88.3442 18.172 87.5078 17.8062 86.7634 17.2858C86.0164 16.7523 85.3876 16.093 84.877 15.3079C84.3769 14.5071 84.0331 13.6344 83.8454 12.6897L83.8376 12.6503C83.6499 11.7056 83.6406 10.7664 83.8097 9.83264C83.9788 8.89889 84.3078 8.0493 84.7968 7.28387C85.2831 6.50531 85.9215 5.83976 86.7119 5.28722C87.4996 4.72155 88.4184 4.33445 89.468 4.12591C90.5177 3.91738 91.5067 3.91865 92.4352 4.12971C93.3768 4.33817 94.221 4.70917 94.9681 5.2427C95.7125 5.7631 96.3347 6.42371 96.8348 7.22451C97.3453 8.00959 97.6945 8.87448 97.8821 9.81918C97.8979 9.82969 97.9005 9.84281 97.89 9.85854C98.0777 10.8032 98.0869 11.7425 97.9178 12.6762C97.7487 13.61 97.421 14.4661 96.9347 15.2447C96.4457 16.0101 95.8074 16.6757 95.0196 17.2413C94.2292 17.7939 93.3092 18.1744 92.2595 18.3829Z" fill="#421B00"/>
<path d="M106.767 10.7519L100.637 2.47198L102.562 2.40509L107.538 9.25945L112.067 2.07478L113.912 2.01067L108.371 10.6761L108.564 16.2511L106.96 16.3068L106.767 10.7519Z" fill="#421B00"/>
<path d="M123.582 15.7407C124.378 15.8425 125.126 15.7898 125.827 15.5827C126.543 15.3641 127.173 15.0265 127.717 14.5701C128.26 14.1137 128.709 13.5574 129.063 12.9013C129.43 12.247 129.664 11.5217 129.766 10.7255L129.771 10.6857C129.873 9.88958 129.828 9.12869 129.638 8.40307C129.462 7.66587 129.162 7.00713 128.737 6.42687C128.313 5.8466 127.781 5.36061 127.144 4.9689C126.519 4.57888 125.809 4.33298 125.013 4.23119C124.217 4.12941 123.461 4.18785 122.745 4.40652C122.044 4.61362 121.422 4.94539 120.878 5.40182C120.334 5.85825 119.879 6.41365 119.512 7.06802C119.158 7.72409 118.931 8.45021 118.829 9.24636L118.824 9.28617C118.722 10.0823 118.759 10.849 118.934 11.5862C119.125 12.3118 119.432 12.9648 119.857 13.545C120.282 14.1253 120.807 14.6105 121.431 15.0005C122.069 15.3922 122.786 15.6389 123.582 15.7407ZM123.356 17.1886C122.295 17.0529 121.351 16.7366 120.524 16.2399C119.711 15.7448 119.034 15.1323 118.493 14.4024C117.954 13.6592 117.568 12.8343 117.333 11.9277C117.113 11.0095 117.064 10.0727 117.187 9.11731L117.192 9.07751C117.314 8.12212 117.603 7.2286 118.06 6.39693C118.517 5.56527 119.099 4.86421 119.806 4.29375C120.514 3.71002 121.331 3.28174 122.256 3.00889C123.183 2.72278 124.177 2.64759 125.238 2.7833C126.3 2.91902 127.237 3.23441 128.051 3.72949C128.877 4.22626 129.56 4.84625 130.099 5.58944C130.639 6.31937 131.019 7.14342 131.239 8.0616C131.474 8.96821 131.53 9.89921 131.408 10.8546C131.42 10.8696 131.418 10.8828 131.403 10.8944C131.281 11.8498 130.991 12.7433 130.534 13.575C130.077 14.4066 129.495 15.1143 128.786 15.6981C128.079 16.2685 127.263 16.6968 126.336 16.9829C125.411 17.2558 124.418 17.3243 123.356 17.1886Z" fill="#421B00"/>
<path d="M142.127 6.52002L143.644 6.9808L139.561 20.4204L138.044 19.9596L142.127 6.52002Z" fill="#421B00"/>
<path d="M149.131 8.64576L150.494 9.23438L154.156 23.077L158.619 12.7423L160.037 13.3548L154.469 26.2501L153.308 25.749L149.547 11.5794L144.982 22.1536L143.563 21.5411L149.131 8.64576Z" fill="#421B00"/>
<path d="M172.024 22.2128L168.151 19.5232L168.986 18.32L178.051 24.6148L177.216 25.818L173.342 23.1284L166.166 33.4625L164.848 32.5469L172.024 22.2128Z" fill="#421B00"/>
<path d="M177.83 41.4157C178.411 41.9686 179.046 42.3688 179.734 42.6162C180.44 42.8632 181.148 42.9635 181.856 42.9171C182.565 42.8707 183.255 42.6875 183.928 42.3676C184.611 42.0569 185.229 41.6106 185.782 41.0288L185.81 40.9997C186.363 40.4179 186.777 39.7782 187.053 39.0804C187.347 38.3822 187.495 37.6735 187.495 36.9544C187.496 36.2352 187.355 35.5291 187.072 34.8361C186.799 34.1523 186.372 33.534 185.79 32.981C185.209 32.4281 184.564 32.0281 183.858 31.7812C183.17 31.5337 182.472 31.4332 181.764 31.4796C181.055 31.526 180.36 31.7046 179.677 32.0153C179.004 32.3352 178.391 32.786 177.838 33.3678L177.81 33.3969C177.257 33.9787 176.833 34.6187 176.539 35.317C176.263 36.0147 176.125 36.7232 176.125 37.4423C176.124 38.1615 176.26 38.8629 176.533 39.5467C176.816 40.2397 177.248 40.8627 177.83 41.4157ZM176.791 42.4498C176.016 41.7125 175.441 40.8992 175.069 40.0098C174.706 39.1296 174.522 38.2353 174.518 37.3271C174.523 36.4091 174.699 35.5152 175.046 34.6453C175.412 33.7749 175.926 32.9907 176.59 32.2925L176.617 32.2634C177.281 31.5653 178.043 31.016 178.903 30.6156C179.763 30.2153 180.647 29.9941 181.555 29.9521C182.471 29.9004 183.383 30.038 184.29 30.365C185.207 30.6824 186.053 31.2096 186.829 31.9469C187.604 32.6841 188.174 33.4929 188.537 34.3731C188.909 35.2625 189.093 36.1662 189.088 37.0842C189.092 37.9924 188.912 38.8817 188.546 39.7521C188.199 40.622 187.694 41.406 187.03 42.1042C187.031 42.1231 187.021 42.1328 187.002 42.1333C186.339 42.8314 185.577 43.3807 184.717 43.7811C183.856 44.1814 182.968 44.4075 182.051 44.4592C181.144 44.5012 180.232 44.3635 179.316 44.0462C178.409 43.7192 177.567 43.187 176.791 42.4498Z" fill="#421B00"/>
<path d="M194.795 39.9119L195.789 41.3221L188.543 51.3442L200.356 47.7269L201.108 48.7927L193.735 58.7067L205.608 55.2437L206.568 56.6047L192.117 60.6588L191.342 59.5602L198.435 49.8428L186.889 53.2471L186.126 52.1649L194.795 39.9119Z" fill="#421B00"/>
<path d="M208.74 61.1082L209.348 62.4624L202.71 75.1493L212.977 70.5333L213.611 71.9425L200.8 77.7023L200.281 76.5493L207.067 63.5541L196.562 68.2771L195.929 66.8679L208.74 61.1082Z" fill="#421B00"/>
<path d="M209.949 84.0533L211.285 89.4693L209.707 89.8585L208.371 84.4426L209.949 84.0533Z" fill="#421B00"/>
</svg>
