<svg width="149" height="149" viewBox="0 0 149 149" fill="none" xmlns="http://www.w3.org/2000/svg">
<g clip-path="url(#clip0_1_10)">
<path d="M74.5 149C115.645 149 149 115.645 149 74.5C149 33.3548 115.645 0 74.5 0C33.3548 0 0 33.3548 0 74.5C0 115.645 33.3548 149 74.5 149Z" fill="#FF9828"/>
<path d="M136.676 73.6203C136.676 108.223 108.589 136.276 73.9392 136.276C39.2892 136.276 11.2023 108.223 11.2023 73.6203C11.2023 39.0175 39.2892 10.9641 73.9392 10.9641C108.589 10.9641 136.676 39.0175 136.676 73.6203Z" stroke="white" stroke-width="2.2406"/>
</g>
<g clip-path="url(#clip1_1_10)">
<path d="M106.204 48.3255H41.215C37.9321 48.3255 35.2709 50.9868 35.2709 54.2697V93.8974C35.2709 97.1803 37.9321 99.8415 41.215 99.8415H106.204C109.487 99.8415 112.149 97.1803 112.149 93.8974V54.2697C112.149 50.9868 109.487 48.3255 106.204 48.3255Z" stroke="white" stroke-width="2.37766"/>
<path d="M113.337 58.2344H34.082V65.3674H113.337V58.2344Z" fill="white"/>
<path d="M104.617 85.1797H99.8621C98.5489 85.1797 97.4844 86.2442 97.4844 87.5574V92.3127C97.4844 93.6258 98.5489 94.6903 99.8621 94.6903H104.617C105.931 94.6903 106.995 93.6258 106.995 92.3127V87.5574C106.995 86.2442 105.931 85.1797 104.617 85.1797Z" fill="white"/>
<path d="M74.5009 69.3281H41.2136C39.9005 69.3281 38.8359 70.3926 38.8359 71.7058V76.4611C38.8359 77.7742 39.9005 78.8387 41.2136 78.8387H74.5009C75.814 78.8387 76.8785 77.7742 76.8785 76.4611V71.7058C76.8785 70.3926 75.814 69.3281 74.5009 69.3281Z" fill="white"/>
</g>
<defs>
<clipPath id="clip0_1_10">
<rect width="149" height="149" fill="white"/>
</clipPath>
<clipPath id="clip1_1_10">
<rect width="80" height="55" fill="white" transform="translate(34 47)"/>
</clipPath>
</defs>
</svg>
