<svg width="118" height="119" viewBox="0 0 118 119" fill="none" xmlns="http://www.w3.org/2000/svg">
<path d="M52.791 47.3384C52.791 47.6509 53.041 47.9009 53.3535 47.9009C55.2285 47.9009 56.791 46.4009 56.791 44.5259C56.791 44.2134 56.4785 43.9009 56.166 43.9009C54.291 43.9009 52.791 45.4634 52.791 47.3384ZM47.791 54.6509C47.791 53.7134 47.9785 52.8384 48.291 52.3384C48.4785 52.0884 48.541 51.9634 48.6035 51.9634C48.666 51.9634 48.666 51.9009 48.791 51.9009C48.916 51.9009 49.166 51.9634 49.541 52.0884C49.916 52.1509 50.291 52.2759 50.6035 52.4009C51.9785 52.9634 53.541 52.9634 54.916 52.4009C55.2285 52.2759 55.6035 52.1509 55.9785 52.0884C56.3535 51.9634 56.6035 51.9009 56.7285 51.9009C56.8535 51.9009 56.916 51.9634 56.916 51.9634C56.9785 51.9634 57.041 52.0884 57.2285 52.3384C57.541 52.8384 57.7285 53.7134 57.7285 54.6509C57.7285 55.0884 57.7285 55.5259 57.666 55.9009H60.666C60.7285 55.5259 60.7285 55.0884 60.7285 54.6509C60.7285 51.9009 59.4785 48.9009 56.7285 48.9009C55.791 48.9009 54.6035 49.2759 53.791 49.5884C53.166 49.9009 52.3535 49.9009 51.7285 49.5884C50.916 49.2759 49.7285 48.9009 48.791 48.9009C46.041 48.9009 44.791 51.9009 44.791 54.6509C44.791 55.0884 44.791 55.5259 44.8535 55.9009H47.8535C47.791 55.5259 47.791 55.0884 47.791 54.6509ZM69.666 55.9009H72.666C72.7285 55.5259 72.791 55.0884 72.791 54.6509C72.791 51.9009 71.4785 48.9009 68.791 48.9009C67.791 48.9009 66.6035 49.2759 65.791 49.5884C65.166 49.9009 64.416 49.9009 63.7285 49.5884C62.916 49.3384 61.8535 48.9634 60.916 48.9009C61.166 49.1509 61.3535 49.4634 61.4785 49.7134C61.9785 50.5259 62.291 51.4634 62.541 52.3384L62.6035 52.4009C63.9785 52.9634 65.541 52.9634 66.916 52.4009C67.2285 52.2759 67.6035 52.1509 67.9785 52.0259C68.3535 51.9634 68.6035 51.9009 68.7285 51.9009C68.8535 51.9009 68.916 51.9634 68.916 51.9634C68.9785 51.9634 69.041 52.0884 69.2285 52.3384C69.541 52.8384 69.7285 53.6509 69.7285 54.6509C69.7285 55.0884 69.7285 55.5259 69.666 55.9009ZM68.166 43.9009C66.291 43.9009 64.791 45.4634 64.791 47.3384C64.791 47.6509 65.041 47.9009 65.3535 47.9009C67.2285 47.9009 68.791 46.4009 68.791 44.5259C68.791 44.2134 68.4785 43.9009 68.166 43.9009ZM71.291 60.9009C71.541 60.9009 71.791 61.1509 71.791 61.4009V65.4009H45.791V61.4009C45.791 61.1509 45.9785 60.9009 46.291 60.9009H71.291ZM45.791 72.4009V68.4009H71.791V72.4009C71.791 72.7134 71.541 72.9009 71.291 72.9009H46.291C45.9785 72.9009 45.791 72.7134 45.791 72.4009ZM46.291 57.9009C44.3535 57.9009 42.791 59.5259 42.791 61.4009V72.4009C42.791 74.3384 44.3535 75.9009 46.291 75.9009H71.291C73.166 75.9009 74.791 74.3384 74.791 72.4009V61.4009C74.791 59.5259 73.166 57.9009 71.291 57.9009H46.291ZM68.791 63.9009C69.291 63.9009 69.791 63.4634 69.791 62.9009C69.791 62.4009 69.291 61.9009 68.791 61.9009C68.2285 61.9009 67.791 62.4009 67.791 62.9009C67.791 63.4634 68.2285 63.9009 68.791 63.9009ZM69.791 70.9009C69.791 70.4009 69.291 69.9009 68.791 69.9009C68.2285 69.9009 67.791 70.4009 67.791 70.9009C67.791 71.4634 68.2285 71.9009 68.791 71.9009C69.291 71.9009 69.791 71.4634 69.791 70.9009ZM48.791 63.9009C49.291 63.9009 49.791 63.4634 49.791 62.9009C49.791 62.4009 49.291 61.9009 48.791 61.9009C48.2285 61.9009 47.791 62.4009 47.791 62.9009C47.791 63.4634 48.2285 63.9009 48.791 63.9009ZM49.791 70.9009C49.791 70.4009 49.291 69.9009 48.791 69.9009C48.2285 69.9009 47.791 70.4009 47.791 70.9009C47.791 71.4634 48.2285 71.9009 48.791 71.9009C49.291 71.9009 49.791 71.4634 49.791 70.9009Z" fill="white"/>
<path d="M105.786 64.1617L105.105 68.0516L106.113 68.2279L106.344 66.9059L112.922 68.0564L112.568 65.4151L111.507 65.2293L111.647 66.594L106.555 65.7032L106.794 64.3379L105.786 64.1617Z" fill="white"/>
<path d="M108.4 74.0689C111.122 75.1134 109.664 78.8191 106.973 77.7865L105.721 77.3056C102.989 76.2571 104.416 72.5396 107.147 73.588L108.4 74.0689ZM107.589 72.4378C103.419 70.8375 101.12 76.8595 105.279 78.4558L106.532 78.9366C110.691 80.533 113.011 74.5189 108.842 72.9187L107.589 72.4378Z" fill="white"/>
<path d="M103.765 84.7736C106.183 86.401 103.933 89.6863 101.542 88.0773L100.429 87.328C98.001 85.6945 100.224 82.3908 102.652 84.0244L103.765 84.7736ZM103.339 83.0023C99.6342 80.5089 96.0446 85.863 99.7407 88.3502L100.854 89.0994C104.55 91.5866 108.158 86.2448 104.453 83.7515L103.339 83.0023Z" fill="white"/>
<path d="M98.8024 96.8384C100.486 95.2729 98.2089 92.824 96.5253 94.3895C94.8336 95.9625 97.1107 98.4114 98.8024 96.8384ZM95.8741 99.4561L94.265 90.4079L93.4594 91.1569L95.0766 100.198L95.8741 99.4561ZM98.2561 96.2348C97.4103 97.0213 96.2412 95.7802 97.079 95.0011C97.9329 94.2072 99.102 95.4483 98.2561 96.2348ZM92.8404 96.1936C94.5241 94.6281 92.2469 92.1792 90.5633 93.7447C88.8717 95.3177 91.1488 97.7666 92.8404 96.1936ZM92.2942 95.59C91.4484 96.3765 90.2793 95.1354 91.1171 94.3563C91.971 93.5624 93.14 94.8035 92.2942 95.59Z" fill="white"/>
<path d="M76.5006 102.94L79.6484 104.335C78.3541 105.158 78.2745 106.376 78.7255 107.379C79.2578 108.563 80.6113 109.293 82.2365 108.562C83.3301 108.071 84.4181 107.593 85.5117 107.102L82.3497 100.069L81.226 100.574L82.3176 103.002L80.8328 103.67L77.6043 102.203L76.29 102.793L76.5006 102.94ZM81.7765 107.539C80.8534 107.954 80.1444 107.477 79.8602 106.845C79.5625 106.183 79.7077 105.406 80.6408 104.986L82.7777 104.025L83.9234 106.574L81.7765 107.539Z" fill="white"/>
<path d="M67.1363 106.575L71.4991 105.673L71.9176 107.699L67.7594 108.558L67.9909 109.678L72.1491 108.819L72.5697 110.855L68.2392 111.75L68.4818 112.924L74.0189 111.78C73.5002 109.27 72.9794 106.749 72.4608 104.239L66.8914 105.39L67.1363 106.575Z" fill="white"/>
<path d="M56.8709 105.986L55.562 105.971L58.9266 113.71L60.2685 113.726L63.8115 106.066L62.5025 106.051L61.7579 107.659L57.5891 107.611L56.8709 105.986ZM58.0271 108.738L61.2829 108.776L59.6126 112.42L58.0271 108.738Z" fill="white"/>
<path d="M50.5653 113.153L52.2096 105.631L47.0406 104.501L46.7963 105.618L50.7617 106.485L49.3617 112.89L50.5653 113.153Z" fill="white"/>
<path d="M38.6225 101.423L37.1623 104.047L33.6635 102.1L33.1072 103.1L36.606 105.047L35.4668 107.094L31.7853 105.045L31.2023 106.093L35.9603 108.741L39.699 102.022L38.6225 101.423Z" fill="white"/>
<path d="M26.4244 93.1588L26.4503 96.6017C25.167 95.7616 24.0246 96.1907 23.2963 97.0151C22.4369 97.9878 22.3292 99.5219 23.6647 100.702C24.5632 101.496 25.4462 102.29 26.3448 103.084L31.4502 97.3055L30.5269 96.4898L28.7644 98.4848L27.5444 97.4069L27.551 93.8606L26.4711 92.9066L26.4244 93.1588ZM24.4075 99.8609C23.6491 99.1909 23.7918 98.3482 24.2506 97.8288C24.7313 97.2848 25.499 97.097 26.2657 97.7743L28.0216 99.3256L26.1717 101.42L24.4075 99.8609Z" fill="white"/>
<path d="M14.268 90.3365L17.9255 87.7166C19.1148 86.8646 20.2929 87.1303 20.9567 88.1703C21.5871 89.126 21.4441 90.2297 20.3084 91.0432L16.6509 93.6631L17.3619 94.6557L21.0194 92.0358C22.7989 90.7611 22.8413 88.9312 21.8778 87.5105C20.8489 85.9608 19.0566 85.4044 17.2145 86.724L13.557 89.3438L14.268 90.3365Z" fill="white"/>
<path d="M17.0405 79.98L10.1272 83.3707L10.6649 84.4669L17.5782 81.0763L17.0405 79.98Z" fill="white"/>
<path d="M14.9831 75.2731L14.5949 74.0923L8.33543 76.1499L7.54881 73.7568L6.49337 74.1038C7.18381 76.2042 7.76777 77.9807 8.45821 80.0811L9.51365 79.7342L8.72359 77.3307L14.9831 75.2731Z" fill="white"/>
<path d="M5.76796 64.4124C4.82461 65.1873 4.70364 66.3228 4.84453 67.4249C5.0203 68.7997 5.83359 70.3037 7.41432 70.0905C9.051 69.8813 9.24876 68.3922 9.26217 66.849C9.2673 65.7616 9.438 64.8415 10.2673 64.7355C11.2274 64.6127 11.6627 65.5884 11.7799 66.5049C11.8929 67.3887 11.6869 68.3799 10.8292 69.044L11.5574 69.8824C12.7556 69.0195 13.0593 67.8384 12.8724 66.3763C12.6687 64.7833 11.8255 63.3053 10.111 63.5134C8.39796 63.7324 8.15262 65.2831 8.13528 66.8822C8.12177 67.9041 8.02326 68.7817 7.2813 68.8766C6.55025 68.97 6.02986 68.2825 5.89873 67.2568C5.80781 66.4589 6.03077 65.6874 6.50847 65.2604L5.76796 64.4124Z" fill="white"/>
<path d="M13.2951 48.6746L13.5453 47.3897L5.32713 49.3085L5.07066 50.6258L11.9686 55.4877L12.2188 54.2028L10.7704 53.1812L11.5671 49.089L13.2951 48.6746ZM10.3796 49.3173L9.75733 52.5132L6.47297 50.2152L10.3796 49.3173Z" fill="white"/>
<path d="M7.66325 40.1234L7.26572 40.9818L14.2529 44.2175L14.7752 43.0896L9.84427 40.8061L16.6103 39.1269L17.0032 38.2784L10.0161 35.0427L9.49836 36.1607L14.4692 38.4626L7.66325 40.1234Z" fill="white"/>
<path d="M13.56 28.5615L19.5651 33.3811C20.1435 32.6605 20.8114 31.8283 21.3897 31.1077C23.0765 29.0059 22.2983 26.8298 20.7523 25.6454C19.2475 24.4801 17.0301 24.2378 15.3845 26.2881L13.56 28.5615ZM15.2422 28.346L16.3025 27.0248C17.4385 25.6093 18.9465 25.8041 19.9795 26.5908C21.0553 27.4119 21.6405 28.8971 20.4632 30.3641L19.4029 31.6852L15.2422 28.346Z" fill="white"/>
<path d="M31.353 12.0053L30.1956 12.7477L31.5009 19.3464L26.0569 15.4024L24.8903 16.1508L31.7597 20.9315L32.843 20.2367L31.353 12.0053Z" fill="white"/>
<path d="M44.0507 13.3559L39.868 14.8896L39.1561 12.9481L43.1426 11.4863L42.7487 10.4122L38.7623 11.874L38.0465 9.92207L42.1982 8.39972L41.7854 7.27401L36.4771 9.2205C37.3594 11.6268 38.2456 14.0435 39.1279 16.4498L44.4673 14.492L44.0507 13.3559Z" fill="white"/>
<path d="M53.5502 5.7403C52.6604 5.07286 51.584 4.83036 50.5703 4.96788C47.9652 5.3213 46.8134 7.38688 47.1121 9.58871C47.3871 11.6161 48.8499 13.3159 51.6513 12.9359C52.9375 12.7614 53.8192 12.1422 54.4684 11.1994L54.044 8.07108L50.7848 8.51322L50.9327 9.60323L53.0583 9.31488L53.2682 10.8627C52.7273 11.4578 52.15 11.7027 51.496 11.7914C49.5122 12.0605 48.5004 10.8213 48.3111 9.42605C48.0814 7.81431 48.935 6.33311 50.7226 6.0906C51.4311 5.99448 52.2762 6.16846 52.8936 6.62863L53.5502 5.7403Z" fill="white"/>
<path d="M64.6156 11.2931L60.1752 10.9326L60.3426 8.87141L64.5746 9.21495L64.6672 8.0747L60.4351 7.73116L60.6033 5.65897L65.0108 6.01675L65.1078 4.82169L59.4724 4.36422C59.265 6.91882 59.0568 9.48438 58.8494 12.039L64.5177 12.4991L64.6156 11.2931Z" fill="white"/>
<path d="M70.0965 13.4898L71.2938 13.824L73.0654 7.47765L75.4916 8.15494L75.7903 7.08485C73.6607 6.49037 71.8596 5.98758 69.73 5.39311L69.4313 6.4632L71.8681 7.14344L70.0965 13.4898Z" fill="white"/>
<path d="M81.6621 17.9899L82.8265 18.588L83.2723 10.1606L82.0785 9.54743L75.488 14.8185L76.6523 15.4166L78.037 14.31L81.7453 16.2148L81.6621 17.9899ZM81.8568 15.0107L78.9606 13.523L82.0823 11.0086L81.8568 15.0107Z" fill="white"/>
<path d="M88.8527 18.4259C89.4491 18.9301 90.0288 19.4201 90.6252 19.9243C91.1628 20.3788 91.6186 21.2538 91.086 21.8839C90.5392 22.5307 89.6747 22.088 89.1539 21.6477L87.3898 20.1564L88.8527 18.4259ZM90.905 15.9981L92.6691 17.4894C93.3748 18.086 93.3667 18.8282 93.0187 19.2398C92.6282 19.7018 92.041 19.6808 91.3353 19.0842L89.5628 17.5858L90.905 15.9981ZM90.6898 14.3614L85.7188 20.2418C86.6344 21.0159 87.4997 21.7473 88.4153 22.5214C89.5746 23.5014 90.9333 23.9729 92.0198 22.6876C92.3962 22.2424 92.6916 21.2966 92.1635 20.4901C92.9096 20.732 93.5464 20.5069 93.9654 20.0112C94.9525 18.8436 94.5036 17.5855 93.3864 16.641L90.6898 14.3614Z" fill="white"/>
<path d="M99.9404 22.7726L93.883 27.5262L97.1494 31.6886L98.0494 30.9823L95.5435 27.7892L100.701 23.7418L99.9404 22.7726Z" fill="white"/>
<path d="M102.543 38.4535L100.492 34.4983L102.328 33.5466L104.282 37.3163L105.298 36.7898L103.344 33.0202L105.19 32.0634L107.225 35.9893L108.289 35.4376L105.687 30.4178C103.412 31.5973 101.127 32.7819 98.8513 33.9614L101.468 39.0104L102.543 38.4535Z" fill="white"/>
<path d="M111.018 46.1685C111.84 45.2654 111.795 44.1244 111.496 43.0543C111.124 41.7193 110.102 40.3487 108.568 40.7881C106.979 41.2317 106.999 42.7338 107.208 44.2627C107.361 45.3394 107.325 46.2745 106.519 46.4993C105.587 46.7596 105.015 45.857 104.767 44.9671C104.527 44.1089 104.588 43.0984 105.341 42.3173L104.499 41.5929C103.438 42.62 103.308 43.8325 103.704 45.2522C104.136 46.7991 105.184 48.1397 106.851 47.6859C108.514 47.2216 108.533 45.6518 108.319 44.067C108.184 43.0538 108.155 42.1712 108.875 41.9701C109.585 41.7719 110.2 42.377 110.478 43.3729C110.683 44.1493 110.574 44.945 110.163 45.4365L111.018 46.1685Z" fill="white"/>
</svg>
