<svg width="126" height="125" viewBox="0 0 126 125" fill="none" xmlns="http://www.w3.org/2000/svg">
<path d="M52.387 58.8465C53.7446 58.3939 55.1669 58.1353 56.7185 58.1353H61.8904C62.7308 58.1353 63.4419 58.8465 63.4419 59.6869C63.4419 60.592 62.7308 61.2385 61.8904 61.2385H56.7185C55.0376 61.2385 53.4861 61.6264 52.1284 62.2728C52.581 66.3457 56.072 69.5135 60.2742 69.5135H60.3388C66.6744 69.5135 72.7513 63.0486 72.7513 53.8039C72.7513 52.9634 72.6867 52.1877 72.5574 51.4119C71.0058 52.3816 69.0664 52.9634 67.0623 52.9634H60.3388C56.5892 52.9634 53.4214 55.4847 52.387 58.8465ZM48.9607 60.5273C49.3485 54.5797 54.2618 49.8603 60.3388 49.8603H67.0623C68.8724 49.8603 70.5533 49.2138 71.8462 48.0502C71.9109 47.9855 71.9755 47.9855 71.9755 47.9209C72.4281 47.533 72.816 47.0804 73.1392 46.5632C73.2039 46.4339 73.3332 46.24 73.3978 46.046C73.6564 45.6582 74.3029 45.6582 74.4322 46.046C74.5615 46.3046 74.6261 46.4986 74.6908 46.7572C74.8847 47.339 75.0787 47.9209 75.208 48.5027C75.208 48.632 75.2726 48.7613 75.2726 48.8906C75.6605 50.4422 75.8545 52.123 75.8545 53.8039C75.8545 64.2123 68.9371 72.6166 60.4035 72.6166H60.3388C55.0376 72.6166 50.5769 69.0609 49.2839 64.1476C47.1505 66.1518 45.8575 68.9963 45.8575 72.0994V73.1338C45.8575 74.0389 45.1464 74.6854 44.306 74.6854C43.4009 74.6854 42.7544 74.0389 42.7544 73.1338V72.0994C42.7544 67.2508 45.211 62.984 48.9607 60.5273Z" fill="white"/>
<path d="M110.11 72.9482L109.573 74.8431L122.136 73.0002L122.686 71.0576L112.956 62.9004L112.419 64.7953L114.462 66.5093L112.753 72.5443L110.11 72.9482ZM114.562 72.3515L115.897 67.6381L120.532 71.4967L114.562 72.3515Z" fill="white"/>
<path d="M119.873 83.0948L109.729 77.4991L105.883 84.4695L107.391 85.3008L110.34 79.9535L118.977 84.7179L119.873 83.0948Z" fill="white"/>
<path d="M113.686 95.4668L105.06 87.7335L99.7457 93.6608L101.027 94.8097L105.104 90.2626L112.448 96.847L113.686 95.4668Z" fill="white"/>
<path d="M97.3616 112.507L98.6532 111.909L93.7849 101.396L92.0879 102.182L95.5235 109.601L86.1258 104.943L84.8493 105.534L89.7175 116.047L91.3995 115.268L87.9361 107.789L97.3616 112.507Z" fill="white"/>
<path d="M72.8183 109.85L70.8722 110.152L77.7846 120.803L79.7798 120.493L83.1378 108.248L81.1916 108.55L80.4855 111.122L74.2873 112.084L72.8183 109.85ZM75.2168 113.648L80.0576 112.896L78.4826 118.718L75.2168 113.648Z" fill="white"/>
<path d="M65.6957 111.214L63.8311 111.07L63.0671 120.954L59.2884 120.662L59.1596 122.329C62.4763 122.585 65.2814 122.802 68.5981 123.058L68.7269 121.392L64.9317 121.098L65.6957 111.214Z" fill="white"/>
<path d="M45.5103 120.045L47.8645 113.698C48.63 111.635 50.3226 110.974 52.0259 111.712C53.6167 112.372 54.3678 113.869 53.6368 115.84L51.2826 122.186L53.0049 122.825L55.3591 116.479C56.5046 113.391 55.0164 111.073 52.6188 110.113C50.031 109.048 47.3278 109.863 46.1421 113.059L43.7879 119.406L45.5103 120.045Z" fill="white"/>
<path d="M35.4176 102.896L35.9276 108.051C33.8899 106.967 32.2369 107.767 31.2585 109.101C30.1039 110.676 30.1525 112.99 32.3148 114.575C33.7698 115.641 35.2016 116.711 36.6565 117.778L43.5154 108.421L42.0204 107.325L39.6526 110.555L37.677 109.107L37.2017 103.793L35.4531 102.511L35.4176 102.896ZM33.3128 113.213C32.0848 112.313 32.1833 111.031 32.7997 110.19C33.4455 109.309 34.5701 108.923 35.8114 109.833L38.6546 111.917L36.1693 115.307L33.3128 113.213Z" fill="white"/>
<path d="M25.9643 94.1373L24.7597 92.5792L18.7724 103.776L20.0073 105.373L32.3513 102.4L31.1467 100.841L28.5539 101.465L24.7176 96.5026L25.9643 94.1373ZM23.7971 98.0718L26.7932 101.948L20.9349 103.38L23.7971 98.0718Z" fill="white"/>
<path d="M11.9848 95.9515L22.5153 91.1223L19.197 83.8863L17.6325 84.6038L20.1781 90.1549L11.2121 94.2666L11.9848 95.9515Z" fill="white"/>
<path d="M11.2875 76.2215L10.6846 70.2276L9.1532 70.3816L9.75609 76.3756L11.2875 76.2215Z" fill="white"/>
<path d="M15.5886 50.3415L16.1824 48.4637L3.56963 49.9257L2.96086 51.8508L12.44 60.2986L13.0338 58.4208L11.0434 56.6458L12.9346 50.6652L15.5886 50.3415ZM11.1205 50.8032L9.64347 55.4741L5.12727 51.477L11.1205 50.8032Z" fill="white"/>
<path d="M6.18463 39.7422L16.1375 45.6712L20.2116 38.8322L18.7329 37.9513L15.6074 43.1979L7.13328 38.1497L6.18463 39.7422Z" fill="white"/>
<path d="M12.7085 27.6345L21.0769 35.6458L26.5819 29.8955L25.3385 28.7052L21.1154 33.1166L13.9903 26.2955L12.7085 27.6345Z" fill="white"/>
<path d="M29.3794 11.1968L28.0706 11.7561L32.6234 22.409L34.3431 21.6741L31.1301 14.1562L40.3848 19.092L41.6784 18.5392L37.1256 7.88624L35.4211 8.61468L38.6601 16.1935L29.3794 11.1968Z" fill="white"/>
<path d="M53.8489 14.5365L55.8034 14.2943L49.2212 3.43644L47.2174 3.6848L43.4852 15.8211L45.4397 15.5788L46.2244 13.0301L52.4492 12.2585L53.8489 14.5365ZM51.5682 10.6667L46.7066 11.2693L48.4595 5.4987L51.5682 10.6667Z" fill="white"/>
<path d="M60.8229 13.3544L62.6829 13.5487L63.713 3.6889L67.4824 4.0827L67.6561 2.42019C64.3475 2.07454 61.5493 1.7822 58.2407 1.43655L58.067 3.09906L61.8529 3.49458L60.8229 13.3544Z" fill="white"/>
<path d="M81.402 5.07243L78.8587 11.3454C78.0316 13.3853 76.32 13.995 74.6395 13.2065C73.0693 12.4984 72.3634 10.98 73.1532 9.03212L75.6965 2.75915L73.9941 2.0689L71.4507 8.34187C70.2132 11.394 71.6313 13.7548 73.999 14.7862C76.5537 15.9292 79.2801 15.1951 80.5611 12.0357L83.1045 5.76269L81.402 5.07243Z" fill="white"/>
<path d="M91.139 22.5676L90.7985 17.3986C92.7996 18.5482 94.4779 17.8036 95.4996 16.5016C96.7053 14.9653 96.7327 12.6516 94.6235 10.9964C93.2044 9.88275 91.8085 8.76627 90.3893 7.65259L83.227 16.7794L84.6853 17.9237L87.1578 14.7729L89.0847 16.2851L89.3853 21.6121L91.0909 22.9506L91.139 22.5676ZM93.5814 12.3244C94.7792 13.2644 94.6386 14.5426 93.995 15.3629C93.3206 16.2222 92.184 16.5714 90.9732 15.6212L88.2 13.4449L90.7952 10.1379L93.5814 12.3244Z" fill="white"/>
<path d="M100.298 31.56L101.457 33.1526L107.768 22.1353L106.58 20.5025L94.1549 23.1149L95.3134 24.7075L97.9233 24.1597L101.613 29.2321L100.298 31.56ZM102.579 27.6904L99.6974 23.7288L105.595 22.4677L102.579 27.6904Z" fill="white"/>
<path d="M114.362 30.2004L103.692 34.7134L106.793 42.0451L108.378 41.3746L105.999 35.7501L115.084 31.9076L114.362 30.2004Z" fill="white"/>
<path d="M114.492 50.0209L114.91 56.0306L116.445 55.9238L116.027 49.9142L114.492 50.0209Z" fill="white"/>
</svg>
