<svg width="24" height="33" viewBox="0 0 24 33" fill="none" xmlns="http://www.w3.org/2000/svg">
<path d="M13.4375 31.5167C16.6875 27.4542 24 17.7667 24 12.2667C24 5.64166 18.625 0.26667 12 0.26667C5.37499 0.26667 0 5.64166 0 12.2667C0 17.7667 7.31248 27.4542 10.5 31.5167C11.25 32.4542 12.6875 32.4542 13.4375 31.5167ZM12 8.26667C13.375 8.26667 14.6875 9.07915 15.4375 10.2667C16.125 11.5167 16.125 13.0791 15.4375 14.2667C14.6875 15.5167 13.375 16.2667 12 16.2667C10.5625 16.2667 9.25003 15.5167 8.5 14.2667C7.81248 13.0791 7.81248 11.5167 8.5 10.2667C9.25003 9.07915 10.5625 8.26667 12 8.26667Z" fill="#FF6034"/>
</svg>
