<svg width="150" height="74" viewBox="0 0 150 74" fill="none" xmlns="http://www.w3.org/2000/svg">
<g clip-path="url(#clip0_2944_1489)">
<path d="M54.3609 9.66107C55.4158 10.5504 56.2928 11.657 57.3124 12.5939C58.237 13.444 59.238 14.2031 60.1853 15.0263C60.0302 14.3913 58.9609 10.3147 56.9153 8.89166C54.696 7.34664 51.79 7.59276 51.79 7.59276C51.79 7.59276 52.9731 11.142 54.8863 13.0448C56.5409 14.6891 59.3042 15.0407 60.024 15.1049C58.9236 14.412 57.9226 13.5516 56.965 12.6767C56.0073 11.8038 54.9463 10.8793 54.241 9.78517C54.1913 9.70864 54.2761 9.59075 54.3589 9.65901L54.3609 9.66107ZM64.6446 0C64.6446 0 61.0023 3.6547 59.844 7.19358C58.7602 10.5029 60.3487 14.4802 60.5576 14.9808C60.6238 12.7553 60.9982 10.5546 61.66 8.42836C62.173 6.77992 62.75 4.78607 64.1482 3.67125C64.2433 3.59472 64.3922 3.72502 64.3095 3.82224C61.8151 6.71373 61.2608 11.1089 60.8513 14.805C61.9082 13.8784 65.7615 10.3043 66.2186 7.12326C66.7481 3.43132 64.6467 0.00413662 64.6467 0.00413662L64.6446 0Z" fill="#98C44A"/>
<path d="M73.8348 12.5897C82.499 12.5897 90.3068 16.3313 95.7258 22.2839H98.1892C92.4124 15.233 83.6407 10.7241 73.8348 10.7241C64.029 10.7241 55.2573 15.233 49.4805 22.2839H51.9438C57.3628 16.3313 65.1707 12.5897 73.8348 12.5897ZM73.8348 71.8054C65.7581 71.8054 58.428 68.5541 53.0793 63.2902H50.496C56.2604 69.6606 64.5874 73.671 73.8348 73.671C83.0822 73.671 91.4113 69.6627 97.1736 63.2902H94.5903C89.2437 68.552 81.9116 71.8054 73.8348 71.8054Z" fill="#ED6C32"/>
<path d="M37.2192 26.5427H34.0961C33.155 26.5427 32.3525 26.8757 31.6886 27.5396C31.0246 28.2036 30.6916 29.0081 30.6916 29.9472V38.2473C30.6916 39.1884 31.0246 39.9909 31.6886 40.6548C32.3525 41.3187 33.155 41.6517 34.0961 41.6517H37.2192C38.1603 41.6517 38.9628 41.3187 39.6267 40.6548C40.2907 39.9909 40.6237 39.1884 40.6237 38.2473V29.9472C40.6237 29.0061 40.2907 28.2036 39.6267 27.5396C38.9628 26.8757 38.1603 26.5427 37.2192 26.5427ZM36.9979 37.724C36.9979 38.328 36.6959 38.6299 36.092 38.6299H35.2254C34.6214 38.6299 34.3195 38.328 34.3195 37.724V30.4704C34.3195 29.8665 34.6214 29.5645 35.2254 29.5645H36.092C36.6959 29.5645 36.9979 29.8665 36.9979 30.4704V37.724ZM27.5809 26.5427H23.0575C22.8155 26.5427 22.6687 26.6627 22.6149 26.9047L20.2074 37.1097L17.7999 26.9047C17.7461 26.6627 17.5992 26.5427 17.3573 26.5427H12.8339C12.5919 26.5427 12.4719 26.6627 12.4719 26.9047V41.2898C12.4719 41.5318 12.5919 41.6517 12.8339 41.6517H15.746C15.9818 41.6517 16.0997 41.5297 16.0997 41.2898V31.1551L18.4865 41.2898C18.5403 41.5318 18.6872 41.6517 18.9292 41.6517H21.4877C21.7297 41.6517 21.8765 41.5297 21.9303 41.2898L24.3171 31.1551V41.2898C24.3171 41.5318 24.435 41.6517 24.6708 41.6517H27.583C27.825 41.6517 27.9449 41.5297 27.9449 41.2898V26.9047C27.9449 26.6627 27.825 26.5427 27.583 26.5427H27.5809ZM9.04679 33.6949C9.0261 33.6743 9.00956 33.6577 8.99715 33.6453C8.63519 33.2833 8.21533 33.0579 7.73755 32.971L4.2814 32.1354C3.84499 32.0279 3.62575 31.7259 3.62575 31.2295V30.3732C3.62575 29.8355 3.89463 29.5666 4.43239 29.5666H8.90407C9.14606 29.5666 9.26603 29.4446 9.26603 29.2046V26.9088C9.26603 26.6668 9.14606 26.5469 8.90407 26.5469H3.40444C2.46336 26.5469 1.66085 26.8799 0.996925 27.5438C0.332998 28.2077 0 29.0123 0 29.9513V32.4002C0 32.8842 0.119962 33.3164 0.361954 33.6991C0.448823 33.8397 0.554307 33.9742 0.674269 34.1024C0.694952 34.1231 0.711498 34.1396 0.723908 34.152C1.08586 34.514 1.50573 34.7394 1.98351 34.8263L5.43965 35.6619C5.87607 35.7695 6.09531 36.0714 6.09531 36.5678V37.8274C6.09531 38.3652 5.82643 38.6341 5.28867 38.6341H0.512941C0.270949 38.6341 0.150987 38.7561 0.150987 38.996V41.2939C0.150987 41.5359 0.270949 41.6559 0.512941 41.6559H6.31455C7.25563 41.6559 8.05813 41.3229 8.72206 40.6589C9.38599 39.995 9.71899 39.1925 9.71899 38.2514V35.4013C9.71899 34.9173 9.59902 34.485 9.35703 34.1024C9.27016 33.9618 9.16468 33.8273 9.04472 33.6991L9.04679 33.6949ZM97.1506 38.6299H93.1318C92.259 38.6299 91.8226 38.1935 91.8226 37.3207V35.8501C91.8226 35.6888 91.9033 35.6081 92.0646 35.6081H96.0937C96.3357 35.6081 96.4556 35.4861 96.4556 35.2462V32.9483C96.4556 32.7063 96.3336 32.5863 96.0937 32.5863H92.0646C91.9033 32.5863 91.8226 32.5057 91.8226 32.3443V29.8065C91.8226 29.6452 91.9033 29.5645 92.0646 29.5645H96.9003C97.1423 29.5645 97.2623 29.4425 97.2623 29.2026V26.9067C97.2623 26.6648 97.1423 26.5448 96.9003 26.5448H88.5588C88.3168 26.5448 88.1969 26.6648 88.1969 26.9067V38.2494C88.1969 39.1904 88.5298 39.9929 89.1938 40.6569C89.8577 41.3208 90.6602 41.6538 91.6013 41.6538H97.1526C97.3946 41.6538 97.5146 41.5318 97.5146 41.2918V38.9939C97.5146 38.752 97.3946 38.632 97.1526 38.632L97.1506 38.6299ZM85.0944 26.5427H82.1822C81.9402 26.5427 81.8203 26.6627 81.8203 26.9047V41.2898C81.8203 41.5318 81.9402 41.6517 82.1822 41.6517H85.0944C85.3302 41.6517 85.446 41.5297 85.446 41.2898V26.9047C85.446 26.6627 85.3281 26.5427 85.0944 26.5427ZM78.7095 26.5427H75.7973C75.5616 26.5427 75.4457 26.6627 75.4457 26.9047V32.3443C75.4457 32.5057 75.3651 32.5863 75.2037 32.5863H71.9792C71.8179 32.5863 71.7372 32.5057 71.7372 32.3443V26.9047C71.7372 26.6627 71.6194 26.5427 71.3856 26.5427H68.4734C68.2315 26.5427 68.1115 26.6627 68.1115 26.9047V41.2898C68.1115 41.5318 68.2315 41.6517 68.4734 41.6517H71.3856C71.6214 41.6517 71.7372 41.5297 71.7372 41.2898V35.8501C71.7372 35.6888 71.8179 35.6081 71.9792 35.6081H75.2037C75.3651 35.6081 75.4457 35.6888 75.4457 35.8501V41.2898C75.4457 41.5318 75.5636 41.6517 75.7973 41.6517H78.7095C78.9515 41.6517 79.0715 41.5297 79.0715 41.2898V26.9047C79.0715 26.6627 78.9515 26.5427 78.7095 26.5427ZM65.3524 26.5427H56.0657C55.8237 26.5427 55.7037 26.6627 55.7037 26.9047V29.2108C55.7037 29.4466 55.8237 29.5625 56.0657 29.5625H58.6655C58.8269 29.5625 58.9075 29.6431 58.9075 29.8044V41.2877C58.9075 41.5297 59.0275 41.6497 59.2695 41.6497H62.1817C62.4174 41.6497 62.5353 41.5276 62.5353 41.2877V29.8044C62.5353 29.6431 62.616 29.5625 62.7773 29.5625H65.3565C65.5985 29.5625 65.7185 29.4446 65.7185 29.2108V26.9047C65.7185 26.6627 65.5985 26.5427 65.3565 26.5427H65.3524ZM49.9 26.5427H46.7769C45.8358 26.5427 45.0333 26.8757 44.3694 27.5396C43.7054 28.2036 43.3724 29.0081 43.3724 29.9472V38.2473C43.3724 39.1884 43.7054 39.9909 44.3694 40.6548C45.0333 41.3187 45.8358 41.6517 46.7769 41.6517H49.9C50.8411 41.6517 51.6436 41.3187 52.3075 40.6548C52.9715 39.9909 53.3045 39.1884 53.3045 38.2473V29.9472C53.3045 29.0061 52.9715 28.2036 52.3075 27.5396C51.6436 26.8757 50.8411 26.5427 49.9 26.5427ZM49.6787 37.724C49.6787 38.328 49.3768 38.6299 48.7728 38.6299H47.9062C47.3022 38.6299 47.0003 38.328 47.0003 37.724V30.4704C47.0003 29.8665 47.3022 29.5645 47.9062 29.5645H48.7728C49.3768 29.5645 49.6787 29.8665 49.6787 30.4704V37.724Z" fill="#98C44A"/>
<path d="M97.5723 43.9124H88.2856C88.0436 43.9124 87.9236 44.0323 87.9236 44.2743V46.5805C87.9236 46.8163 88.0436 46.9321 88.2856 46.9321H90.8854C91.0468 46.9321 91.1274 47.0128 91.1274 47.1741V58.6573C91.1274 58.8993 91.2474 59.0193 91.4894 59.0193H94.4016C94.6374 59.0193 94.7532 58.8993 94.7532 58.6573V47.1741C94.7532 47.0128 94.8339 46.9321 94.9952 46.9321H97.5744C97.8164 46.9321 97.9363 46.8142 97.9363 46.5805V44.2743C97.9363 44.0323 97.8164 43.9124 97.5744 43.9124H97.5723ZM65.2591 50.2579H61.7326V46.7315C61.7326 46.5308 61.6313 46.4295 61.4307 46.4295H59.6167C59.4161 46.4295 59.3148 46.5308 59.3148 46.7315V50.2579H55.7883C55.5877 50.2579 55.4863 50.3593 55.4863 50.5599V52.3738C55.4863 52.5744 55.5877 52.6758 55.7883 52.6758H59.3148V56.2023C59.3148 56.4029 59.4161 56.5042 59.6167 56.5042H61.4307C61.6313 56.5042 61.7326 56.4029 61.7326 56.2023V52.6758H65.2591C65.4597 52.6758 65.5611 52.5744 65.5611 52.3738V50.5599C65.5611 50.3593 65.4597 50.2579 65.2591 50.2579ZM85.1728 43.9124H82.2606C82.0186 43.9124 81.8986 44.0323 81.8986 44.2743V58.6594C81.8986 58.9014 82.0186 59.0214 82.2606 59.0214H85.1728C85.4086 59.0214 85.5265 58.9014 85.5265 58.6594V44.2743C85.5265 44.0323 85.4086 43.9124 85.1728 43.9124ZM79.1395 43.9124H76.3597C76.1177 43.9124 75.9502 44.0323 75.855 44.2743L73.7495 49.4513C73.6213 49.7864 73.4372 49.956 73.1952 49.956H72.1776C72.0163 49.956 71.9356 49.8753 71.9356 49.714V44.2743C71.9356 44.0323 71.8177 43.9124 71.5819 43.9124H68.6697C68.4277 43.9124 68.3078 44.0323 68.3078 44.2743V58.6594C68.3078 58.9014 68.4277 59.0214 68.6697 59.0214H71.5819C71.8177 59.0214 71.9356 58.9014 71.9356 58.6594V53.2197C71.9356 53.0584 72.0163 52.9778 72.1776 52.9778H74.1528C74.7568 52.9778 75.0587 53.2797 75.0587 53.8837V58.6594C75.0587 58.9014 75.1808 59.0214 75.4207 59.0214H78.3225C78.5645 59.0214 78.6845 58.9014 78.6845 58.6594V52.7957C78.6845 51.8815 78.3618 51.1039 77.7165 50.4586C77.5076 50.2497 77.2904 50.0759 77.0609 49.9353L79.3567 44.2743C79.3836 44.2081 79.396 44.1502 79.396 44.1026C79.396 43.9744 79.3091 43.9124 79.1333 43.9124H79.1395ZM109.537 43.9124H103.736C102.795 43.9124 101.992 44.2454 101.328 44.9093C100.664 45.5732 100.331 46.3757 100.331 47.3168V55.6169C100.331 56.558 100.664 57.3605 101.328 58.0244C101.992 58.6884 102.795 59.0214 103.736 59.0214H109.537C109.779 59.0214 109.899 58.9014 109.899 58.6594V56.3636C109.899 56.1216 109.779 56.0016 109.537 56.0016H104.209C104.048 56.0016 103.963 55.921 103.957 55.7596V47.1761C103.963 47.0148 104.048 46.9342 104.209 46.9342H109.537C109.779 46.9342 109.899 46.8142 109.899 46.5722V44.2764C109.899 44.0344 109.779 43.9144 109.537 43.9144V43.9124ZM149.646 43.9124H146.734C146.492 43.9124 146.372 44.0323 146.372 44.2743V52.9178L143.46 44.2743C143.379 44.0323 143.218 43.9124 142.976 43.9124H138.785C138.543 43.9124 138.423 44.0323 138.423 44.2743V58.6594C138.423 58.9014 138.546 59.0214 138.785 59.0214H141.698C141.933 59.0214 142.051 58.9014 142.051 58.6594V49.956L144.992 58.6594C145.073 58.9014 145.234 59.0214 145.476 59.0214H149.646C149.882 59.0214 149.998 58.9014 149.998 58.6594V44.2743C149.998 44.0323 149.88 43.9124 149.646 43.9124ZM123.246 43.9124H120.334C120.098 43.9124 119.982 44.0323 119.982 44.2743V49.714C119.982 49.8753 119.902 49.956 119.74 49.956H116.516C116.355 49.956 116.274 49.8753 116.274 49.714V44.2743C116.274 44.0323 116.156 43.9124 115.92 43.9124H113.008C112.766 43.9124 112.646 44.0323 112.646 44.2743V58.6594C112.646 58.9014 112.766 59.0214 113.008 59.0214H115.92C116.156 59.0214 116.274 58.9014 116.274 58.6594V53.2197C116.274 53.0584 116.355 52.9778 116.516 52.9778H119.74C119.902 52.9778 119.982 53.0584 119.982 53.2197V58.6594C119.982 58.9014 120.1 59.0214 120.334 59.0214H123.246C123.488 59.0214 123.608 58.9014 123.608 58.6594V44.2743C123.608 44.0323 123.486 43.9124 123.246 43.9124ZM135.313 55.9996H131.294C130.421 55.9996 129.985 55.5631 129.985 54.6903V53.2197C129.985 53.0584 130.065 52.9778 130.227 52.9778H134.256C134.498 52.9778 134.618 52.8578 134.618 52.6158V50.32C134.618 50.078 134.498 49.958 134.256 49.958H130.227C130.065 49.958 129.985 49.8774 129.985 49.716V47.1782C129.985 47.0169 130.065 46.9362 130.227 46.9362H135.062C135.304 46.9362 135.424 46.8163 135.424 46.5743V44.2784C135.424 44.0365 135.302 43.9165 135.062 43.9165H126.721C126.479 43.9165 126.359 44.0365 126.359 44.2784V55.6211C126.359 56.5621 126.692 57.3646 127.356 58.0286C128.02 58.6925 128.822 59.0255 129.763 59.0255H135.315C135.557 59.0255 135.677 58.9055 135.677 58.6635V56.3677C135.677 56.1257 135.555 56.0058 135.315 56.0058L135.313 55.9996Z" fill="#ED6C32"/>
<path d="M100.659 31.7671H104.446C104.522 31.7671 104.562 31.8188 104.562 31.9201V32.824C104.562 32.9398 104.504 32.9977 104.388 32.9977H102.253L102.196 33.0556V34.0939C102.196 34.1394 102.214 34.1787 102.253 34.2098H103.906C103.958 34.2304 103.983 34.276 103.983 34.3442V35.3432C103.983 35.4321 103.937 35.4776 103.848 35.4776H102.233L102.193 35.5169V37.4777L102.136 37.5356H100.655C100.613 37.5356 100.588 37.4467 100.578 37.2667L100.597 31.9408L100.578 31.9222V31.9036C100.601 31.8147 100.628 31.7692 100.655 31.7692L100.659 31.7671Z" fill="#F59F25"/>
<path d="M109.063 31.7671H111.081C111.201 31.7671 111.28 31.9781 111.313 32.4021L112.312 37.4591C112.3 37.5108 112.26 37.5356 112.196 37.5356H111.005C110.901 37.5356 110.837 37.3826 110.812 37.0744C110.728 36.5201 110.664 36.2202 110.62 36.1705H109.524C109.474 36.1705 109.392 36.6007 109.274 37.4591L109.197 37.5356H107.89L107.832 37.4777C108.204 35.5997 108.479 34.1126 108.659 33.0164L108.91 31.8436C108.963 31.7919 109.015 31.7671 109.063 31.7671ZM109.563 35.0929L109.582 35.1115H110.312L110.351 35.0723L109.985 33.035L109.967 33.0164H109.948C109.888 33.0164 109.83 33.2397 109.77 33.6886C109.631 34.46 109.563 34.9275 109.563 35.0929Z" fill="#F59F25"/>
<path d="M117.16 31.7672H119.332C119.447 31.7672 119.505 31.8375 119.505 31.9782V32.7848C119.505 32.9255 119.435 32.9958 119.294 32.9958H117.487C117.387 32.9916 117.336 33.0413 117.334 33.1488L117.33 36.1334C117.344 36.2575 117.408 36.3258 117.522 36.3402H119.334C119.45 36.3402 119.507 36.3857 119.507 36.4747V37.3785C119.507 37.4819 119.468 37.5316 119.392 37.5316H116.93C116.674 37.4757 116.436 37.3413 116.219 37.1283C115.975 36.8614 115.853 36.5347 115.853 36.1479L115.849 33.1095L115.853 33.0144C115.853 32.7497 115.975 32.4684 116.219 32.1685C116.508 31.912 116.804 31.7838 117.104 31.7838L117.162 31.7651L117.16 31.7672Z" fill="#F59F25"/>
<path d="M123.178 31.7671H126.813L126.87 31.825L126.866 32.7289C126.854 32.8323 126.808 32.8819 126.732 32.8819H125.793C125.704 32.8819 125.658 32.9274 125.658 33.0164V37.3805C125.658 37.4839 125.619 37.5335 125.543 37.5335H124.388C124.3 37.5335 124.254 37.4694 124.254 37.3412V32.9584L124.146 32.8819H123.234C123.106 32.8736 123.042 32.8447 123.042 32.793V31.9015C123.056 31.8126 123.102 31.7671 123.176 31.7671H123.178Z" fill="#F59F25"/>
<path d="M131.35 31.7671H133.253C133.481 31.8126 133.706 31.947 133.925 32.1704C134.118 32.4414 134.213 32.6606 134.213 32.824L134.232 33.3431V35.8044C134.232 36.4849 134.18 36.8241 134.078 36.8241C133.983 37.0516 133.779 37.2647 133.462 37.4591L133.251 37.5356H131.348C130.986 37.4156 130.705 37.1778 130.502 36.8241C130.438 36.6979 130.407 36.5056 130.407 36.247V33.037C130.407 32.3959 130.722 31.9739 131.348 31.7671H131.35ZM131.812 33.1322V36.0154C131.812 36.2595 131.888 36.3815 132.043 36.3815C132.531 36.4063 132.773 36.3422 132.773 36.1891L132.792 36.0154V33.188C132.804 32.9957 132.728 32.886 132.56 32.8612H131.983C131.843 32.9129 131.785 33.0019 131.81 33.1301L131.812 33.1322Z" fill="#F59F25"/>
<path d="M137.617 31.7672H140.232C140.565 31.8458 140.834 32.0133 141.038 32.2677C141.191 32.4394 141.27 32.76 141.27 33.2295V33.6721C141.27 34.1106 141.193 34.3981 141.038 34.5367L140.962 34.6318V34.6711C141.179 34.8759 141.289 35.1572 141.289 35.517V37.4199C141.256 37.4964 141.204 37.5357 141.136 37.5357H140.058C139.955 37.5357 139.905 37.4778 139.905 37.362V35.4964C139.866 35.2792 139.758 35.1696 139.578 35.1696H139.04L138.964 35.2461V37.3227C138.964 37.4633 138.912 37.5337 138.811 37.5337H137.727C137.653 37.5337 137.601 37.4757 137.574 37.3599L137.562 31.823L137.619 31.7651L137.617 31.7672ZM138.964 32.9399V34.0734L139.022 34.1313H139.617C139.768 34.1313 139.866 34.0155 139.905 33.7859V33.1716C139.859 32.9668 139.731 32.8634 139.52 32.8634H139.04L138.964 32.9399Z" fill="#F59F25"/>
<path d="M144.656 31.7671H146.079C146.174 31.7671 146.321 31.9781 146.522 32.4021L147.138 33.4011H147.178C147.775 32.3297 148.09 31.7919 148.119 31.7857L148.195 31.7671H149.618V31.825C148.423 33.8726 147.821 34.9316 147.81 34.9978V37.4777L147.753 37.5356H146.522L146.464 37.4777V34.9978C146.441 34.9047 145.839 33.8478 144.656 31.825V31.7671Z" fill="#F59F25"/>
<path d="M96.8736 66.2211H96.4248V65.9026H97.7092V66.2211H97.2521V67.5758H96.8736V66.2211Z" fill="#ED6C32"/>
<path d="M99.314 66.9346C99.3058 66.7339 99.2995 66.4899 99.2995 66.2479H99.2913C99.2396 66.4609 99.1692 66.6988 99.1051 66.8953L98.9024 67.5468H98.6067L98.4288 66.8994C98.375 66.7029 98.3171 66.465 98.2778 66.2479H98.2737C98.2633 66.4733 98.2571 66.7319 98.2447 66.9408L98.2157 67.5757H97.8662L97.9738 65.9045H98.4784L98.6418 66.463C98.6935 66.6574 98.7452 66.8642 98.7825 67.0607H98.7907C98.8383 66.8663 98.8942 66.6471 98.95 66.4609L99.1279 65.9045H99.6222L99.7132 67.5757H99.343L99.3182 66.9366L99.314 66.9346Z" fill="#ED6C32"/>
</g>
<defs>
<clipPath id="clip0_2944_1489">
<rect width="150" height="73.6711" fill="white"/>
</clipPath>
</defs>
</svg>
