<svg width="151" height="75" viewBox="0 0 151 75" fill="none" xmlns="http://www.w3.org/2000/svg">
<g clip-path="url(#clip0_1574_1890)">
<path d="M54.7109 10.2325C55.7721 11.1269 56.6549 12.2414 57.6814 13.1845C58.6128 14.0395 59.6208 14.8041 60.5731 15.6336C60.4155 14.9941 59.3404 10.8906 57.2828 9.4586C55.0492 7.90383 52.125 8.15176 52.125 8.15176C52.125 8.15176 53.316 11.7224 55.2415 13.6386C56.9075 15.293 59.688 15.6475 60.4132 15.7124C59.3057 15.015 58.2977 14.1484 57.3338 13.2702C56.3699 12.392 55.3017 11.4606 54.5927 10.3599C54.544 10.2835 54.6298 10.163 54.7109 10.2325ZM65.0613 0.510005C65.0613 0.510005 61.3957 4.18954 60.2302 7.74859C59.1388 11.0806 60.7376 15.0822 60.9485 15.585C61.0157 13.3467 61.391 11.1292 62.0584 8.99055C62.5751 7.33151 63.1567 5.32491 64.5608 4.20113C64.6581 4.12466 64.8064 4.25442 64.723 4.35174C62.2113 7.262 61.6552 11.6853 61.2427 15.4042C62.3063 14.4705 66.1851 10.8743 66.6439 7.67212C67.1768 3.95783 65.0613 0.505371 65.0613 0.505371" fill="#8EC85B"/>
<path d="M74.309 13.1795C83.0305 13.1795 90.8877 16.9447 96.3399 22.9344H98.8191C93.0056 15.8372 84.1775 11.3003 74.309 11.3003C64.4405 11.3003 55.6124 15.8372 49.7988 22.9344H52.2781C57.7325 16.9447 65.5898 13.1795 74.309 13.1795ZM74.309 72.775C66.1806 72.775 58.803 69.5009 53.4204 64.2064H50.8207C56.6203 70.6177 65.0036 74.6541 74.309 74.6541C83.6144 74.6541 91.9976 70.6201 97.7973 64.2064H95.1952C89.8149 69.5032 82.4373 72.775 74.3067 72.775" fill="#F3743C"/>
<path d="M37.458 27.2233H34.3161C33.3707 27.2233 32.562 27.5569 31.8924 28.2266C31.2228 28.8962 30.8891 29.7049 30.8891 30.6502V39.0033C30.8891 39.9487 31.2228 40.7574 31.8924 41.427C32.562 42.0966 33.3684 42.4303 34.3161 42.4303H37.458C38.4034 42.4303 39.2121 42.0943 39.8817 41.427C40.5514 40.7574 40.885 39.951 40.885 39.0033V30.6502C40.885 29.7049 40.5514 28.8962 39.8817 28.2266C39.2121 27.5569 38.4057 27.2233 37.458 27.2233ZM37.2356 38.4774C37.2356 39.0844 36.9321 39.3903 36.3227 39.3903H35.4515C34.8421 39.3903 34.5385 39.0868 34.5385 38.4774V31.1785C34.5385 30.5715 34.8421 30.2656 35.4515 30.2656H36.3227C36.9298 30.2656 37.2356 30.5691 37.2356 31.1785V38.4774ZM27.7564 27.2233H23.2033C22.96 27.2233 22.8117 27.3437 22.7584 27.5894L20.3348 37.8587L17.9111 27.5894C17.8578 27.3461 17.7072 27.2233 17.4662 27.2233H12.9131C12.6698 27.2233 12.547 27.3437 12.547 27.5894V42.0665C12.547 42.3098 12.6698 42.4326 12.9131 42.4326H15.8442C16.0806 42.4326 16.1988 42.3098 16.1988 42.0665V31.8667L18.6016 42.0665C18.6549 42.3098 18.8055 42.4326 19.0465 42.4326H21.6208C21.864 42.4326 22.0123 42.3098 22.0656 42.0665L24.4685 31.8667V42.0665C24.4685 42.3098 24.5866 42.4326 24.823 42.4326H27.7541C27.9974 42.4326 28.1202 42.3098 28.1202 42.0665V27.5894C28.1202 27.3461 27.9974 27.2233 27.7541 27.2233M9.10152 34.4225C9.08067 34.4016 9.06445 34.3854 9.05055 34.3715C8.68445 34.0054 8.26274 33.7806 7.7831 33.6926L4.30515 32.8515C3.8649 32.7426 3.6471 32.439 3.6471 31.9385V31.0766C3.6471 30.5367 3.9182 30.2656 4.45808 30.2656H8.96018C9.20347 30.2656 9.32628 30.1428 9.32628 29.8995V27.587C9.32628 27.3437 9.20579 27.2209 8.96018 27.2209H3.42697C2.4816 27.2209 1.67294 27.5546 1.0033 28.2242C0.333661 28.8939 0 29.7025 0 30.6479V33.111C0 33.5976 0.122806 34.0332 0.3661 34.4178C0.454149 34.5592 0.558418 34.6959 0.681224 34.8233C0.702078 34.8442 0.718297 34.8604 0.7322 34.8743C1.09598 35.2404 1.52001 35.4651 1.99965 35.5532L5.4776 36.3943C5.91784 36.5032 6.13565 36.8067 6.13565 37.3072V38.5747C6.13565 39.1146 5.86455 39.3857 5.32467 39.3857H0.516711C0.273416 39.3857 0.150611 39.5085 0.150611 39.7518V42.0642C0.150611 42.3075 0.273416 42.4303 0.516711 42.4303H6.35577C7.30115 42.4303 8.10981 42.0943 8.77945 41.427C9.44909 40.7574 9.78275 39.951 9.78275 39.0033V36.1348C9.78275 35.6482 9.66226 35.2126 9.41665 34.8279C9.3286 34.6866 9.22433 34.5499 9.10152 34.4225ZM97.7719 39.3903H93.7262C92.848 39.3903 92.4078 38.95 92.4078 38.0719V36.5912C92.4078 36.4291 92.4889 36.348 92.6511 36.348H96.706C96.9493 36.348 97.0721 36.2251 97.0721 35.9819V33.6694C97.0721 33.4261 96.9493 33.3033 96.706 33.3033H92.6511C92.4889 33.3033 92.4078 33.2222 92.4078 33.06V30.5066C92.4078 30.3444 92.4889 30.2633 92.6511 30.2633H97.517C97.7603 30.2633 97.8808 30.1405 97.8808 29.8972V27.5847C97.8808 27.3414 97.7603 27.2186 97.517 27.2186H89.1222C88.8789 27.2186 88.7584 27.3391 88.7584 27.5847V39.001C88.7584 39.9464 89.092 40.7551 89.7617 41.4247C90.4313 42.0943 91.2377 42.428 92.1854 42.428H97.7719C98.0151 42.428 98.138 42.3052 98.138 42.0619V39.7494C98.138 39.5061 98.0151 39.3833 97.7719 39.3833M85.6373 27.2163H82.7061C82.4629 27.2163 82.34 27.3368 82.34 27.5824V42.0596C82.34 42.3029 82.4629 42.4257 82.7061 42.4257H85.6373C85.8736 42.4257 85.9918 42.3029 85.9918 42.0596V27.5824C85.9918 27.3391 85.8736 27.2163 85.6373 27.2163ZM79.2097 27.2163H76.2809C76.0445 27.2163 75.9263 27.3368 75.9263 27.5824V33.0577C75.9263 33.2199 75.8453 33.301 75.6831 33.301H72.4391C72.2769 33.301 72.1958 33.2199 72.1958 33.0577V27.5824C72.1958 27.3391 72.0777 27.2163 71.8413 27.2163H68.9102C68.6669 27.2163 68.5464 27.3368 68.5464 27.5824V42.0596C68.5464 42.3029 68.6669 42.4257 68.9102 42.4257H71.8413C72.0777 42.4257 72.1958 42.3029 72.1958 42.0596V36.5843C72.1958 36.4221 72.2769 36.341 72.4391 36.341H75.6831C75.8453 36.341 75.9263 36.4221 75.9263 36.5843V42.0596C75.9263 42.3029 76.0445 42.4257 76.2809 42.4257H79.2097C79.453 42.4257 79.5758 42.3029 79.5758 42.0596V27.5824C79.5758 27.3391 79.453 27.2163 79.2097 27.2163ZM65.7682 27.2163H56.4211C56.1778 27.2163 56.055 27.3368 56.055 27.5824V29.9041C56.055 30.1405 56.1755 30.2586 56.4211 30.2586H59.0371C59.1993 30.2586 59.2804 30.3397 59.2804 30.5019V42.0596C59.2804 42.3029 59.4032 42.4257 59.6465 42.4257H62.5753C62.8116 42.4257 62.9298 42.3029 62.9298 42.0596V30.5019C62.9298 30.3397 63.0109 30.2586 63.1731 30.2586H65.7682C66.0115 30.2586 66.1343 30.1405 66.1343 29.9041V27.5824C66.1343 27.3391 66.0115 27.2163 65.7682 27.2163ZM50.2183 27.2163H47.0763C46.1309 27.2163 45.3222 27.55 44.6526 28.2196C43.983 28.8892 43.6493 29.6979 43.6493 30.6433V38.9964C43.6493 39.9418 43.983 40.7504 44.6526 41.4201C45.3222 42.0897 46.1286 42.4234 47.0763 42.4234H50.2183C51.1636 42.4234 51.9723 42.0874 52.6419 41.4201C53.3116 40.7504 53.6452 39.9441 53.6452 38.9964V30.6433C53.6452 29.6979 53.3116 28.8892 52.6419 28.2196C51.9723 27.55 51.1659 27.2163 50.2183 27.2163ZM49.9958 38.4704C49.9958 39.0775 49.6923 39.3833 49.0829 39.3833H48.2117C47.6023 39.3833 47.2987 39.0798 47.2987 38.4704V31.1716C47.2987 30.5645 47.6023 30.2586 48.2117 30.2586H49.0829C49.69 30.2586 49.9958 30.5622 49.9958 31.1716V38.4704Z" fill="#8EC85B"/>
<path d="M85.7205 44.7034H82.7917C82.5484 44.7034 82.4279 44.8239 82.4279 45.0695V59.5466C82.4279 59.7899 82.5484 59.9104 82.7917 59.9104H85.7205C85.9569 59.9104 86.0751 59.7899 86.0751 59.5466V45.0695C86.0751 44.8262 85.9569 44.7034 85.7205 44.7034ZM65.68 51.0916H62.1326V47.5441C62.1326 47.3425 62.0306 47.2406 61.829 47.2406H60.0032C59.7993 47.2406 59.6996 47.3425 59.6996 47.5441V51.0916H56.1522C55.9483 51.0916 55.8486 51.1935 55.8486 51.3951V53.221C55.8486 53.4249 55.9506 53.5245 56.1522 53.5245H59.6996V57.072C59.6996 57.2759 59.8016 57.3755 60.0032 57.3755H61.829C62.0329 57.3755 62.1326 57.2736 62.1326 57.072V53.5245H65.68C65.8839 53.5245 65.9836 53.4226 65.9836 53.221V51.3951C65.9836 51.1912 65.8816 51.0916 65.68 51.0916ZM79.6498 44.7034H76.8507C76.6074 44.7034 76.4383 44.8239 76.3433 45.0695L74.2231 50.2806C74.0957 50.6189 73.908 50.788 73.6647 50.788H72.6406C72.4784 50.788 72.3973 50.7069 72.3973 50.5447V45.0695C72.3973 44.8262 72.2791 44.7034 72.0428 44.7034H69.114C68.8707 44.7034 68.7502 44.8239 68.7502 45.0695V59.5466C68.7502 59.7899 68.873 59.9104 69.114 59.9104H72.0428C72.2791 59.9104 72.3973 59.7899 72.3973 59.5466V54.0714C72.3973 53.9092 72.4784 53.8281 72.6406 53.8281H74.6286C75.2357 53.8281 75.5416 54.1316 75.5416 54.741V59.5466C75.5416 59.7899 75.6644 59.9104 75.9053 59.9104H78.8249C79.0682 59.9104 79.1887 59.7899 79.1887 59.5466V53.645C79.1887 52.7251 78.8643 51.9419 78.2155 51.2932C78.0046 51.0846 77.7868 50.9085 77.5574 50.7672L79.8699 45.0695C79.8977 45.0023 79.9116 44.9443 79.9116 44.898C79.9116 44.7706 79.8235 44.7057 79.6474 44.7057M98.1981 44.7057H88.8509C88.6076 44.7057 88.4871 44.8262 88.4871 45.0718V47.3935C88.4871 47.6298 88.6099 47.748 88.8509 47.748H91.4669C91.6291 47.748 91.7102 47.8291 91.7102 47.9913V59.5489C91.7102 59.7922 91.8307 59.9127 92.074 59.9127H95.0051C95.2414 59.9127 95.3596 59.7922 95.3596 59.5489V47.9913C95.3596 47.8291 95.4407 47.748 95.6029 47.748H98.1981C98.4413 47.748 98.5618 47.6298 98.5618 47.3935V45.0718C98.5618 44.8285 98.4413 44.7057 98.1981 44.7057ZM110.242 44.7057H104.403C103.458 44.7057 102.649 45.0393 101.98 45.709C101.31 46.3786 100.976 47.185 100.976 48.1327V56.4858C100.976 57.4311 101.31 58.2398 101.98 58.9094C102.649 59.5791 103.456 59.9127 104.403 59.9127H110.242C110.486 59.9127 110.606 59.7922 110.606 59.5489V57.2365C110.606 56.9932 110.483 56.8704 110.242 56.8704H104.878C104.716 56.8704 104.63 56.7893 104.626 56.6271V47.989C104.633 47.8268 104.716 47.7457 104.878 47.7457H110.242C110.486 47.7457 110.606 47.6252 110.606 47.3819V45.0695C110.606 44.8262 110.483 44.7034 110.242 44.7034M150.608 44.7034H147.677C147.434 44.7034 147.313 44.8239 147.313 45.0695V53.7678L144.382 45.0695C144.301 44.8262 144.139 44.7034 143.896 44.7034H139.679C139.435 44.7034 139.315 44.8239 139.315 45.0695V59.5466C139.315 59.7899 139.438 59.9104 139.679 59.9104H142.61C142.846 59.9104 142.964 59.7899 142.964 59.5466V50.788L145.925 59.5466C146.007 59.7899 146.169 59.9104 146.412 59.9104H150.608C150.845 59.9104 150.963 59.7899 150.963 59.5466V45.0695C150.963 44.8262 150.845 44.7034 150.608 44.7034ZM124.038 44.7034H121.107C120.871 44.7034 120.753 44.8239 120.753 45.0695V50.5447C120.753 50.7069 120.672 50.788 120.509 50.788H117.265C117.103 50.788 117.022 50.7069 117.022 50.5447V45.0695C117.022 44.8262 116.904 44.7034 116.668 44.7034H113.739C113.495 44.7034 113.373 44.8239 113.373 45.0695V59.5466C113.373 59.7899 113.495 59.9104 113.739 59.9104H116.668C116.904 59.9104 117.022 59.7899 117.022 59.5466V54.0714C117.022 53.9092 117.103 53.8281 117.265 53.8281H120.509C120.672 53.8281 120.753 53.9092 120.753 54.0714V59.5466C120.753 59.7899 120.871 59.9104 121.107 59.9104H124.038C124.282 59.9104 124.402 59.7899 124.402 59.5466V45.0695C124.402 44.8262 124.282 44.7034 124.038 44.7034ZM136.182 56.8704H132.136C131.258 56.8704 130.818 56.4301 130.818 55.552V54.0714C130.818 53.9092 130.899 53.8281 131.061 53.8281H135.116C135.36 53.8281 135.482 53.7052 135.482 53.462V51.1495C135.482 50.9062 135.362 50.7834 135.116 50.7834H131.061C130.899 50.7834 130.818 50.7023 130.818 50.5401V47.9844C130.818 47.8222 130.899 47.7411 131.061 47.7411H135.927C136.171 47.7411 136.293 47.6206 136.293 47.3773V45.0648C136.293 44.8215 136.171 44.6987 135.927 44.6987H127.532C127.289 44.6987 127.169 44.8192 127.169 45.0648V56.4811C127.169 57.4265 127.502 58.2352 128.172 58.9048C128.842 59.5744 129.648 59.9081 130.596 59.9081H136.182C136.425 59.9081 136.548 59.7876 136.548 59.5443V57.2319C136.548 56.9886 136.425 56.8658 136.182 56.8658" fill="#F3743C"/>
<path d="M110.326 35.9869H111.44L110.882 32.5923L110.323 35.9869H110.326ZM110.678 35.688L110.884 34.439L111.09 35.688H110.68H110.678ZM105.393 32.0015H101.312C101.129 32.0015 101.009 32.1196 101.009 32.3027V38.3549C101.009 38.538 101.127 38.6561 101.312 38.6561H102.533C102.716 38.6561 102.837 38.538 102.837 38.3549V36.1143H104.76C104.943 36.1143 105.061 35.9961 105.061 35.8131V34.8468C105.061 34.6638 104.943 34.5456 104.76 34.5456H102.837V33.5725H105.395C105.578 33.5725 105.699 33.4543 105.699 33.2712V32.305C105.699 32.122 105.58 32.0038 105.395 32.0038M105.397 32.305V33.2735H102.788C102.638 33.2735 102.536 33.3755 102.536 33.5261V34.5943C102.536 34.7449 102.638 34.8468 102.788 34.8468H104.762V35.82H102.791C102.64 35.82 102.538 35.922 102.538 36.0726V38.3642H101.312V32.3073H105.397V32.305ZM133.536 32.0038H132.222C131.787 32.0038 131.411 32.159 131.103 32.4672C130.795 32.7754 130.64 33.1507 130.64 33.5864V37.0782C130.64 37.5138 130.795 37.8892 131.103 38.1974C131.411 38.5055 131.787 38.6608 132.222 38.6608H133.536C133.972 38.6608 134.347 38.5055 134.655 38.1974C134.963 37.8892 135.119 37.5138 135.119 37.0782V33.5864C135.119 33.1507 134.963 32.7754 134.655 32.4672C134.347 32.159 133.972 32.0038 133.536 32.0038ZM134.82 37.0782C134.82 37.435 134.697 37.7316 134.444 37.9865C134.192 38.2391 133.895 38.3619 133.538 38.3619H132.225C131.868 38.3619 131.571 38.2391 131.319 37.9865C131.066 37.7339 130.943 37.4374 130.943 37.0782V33.5864C130.943 33.2295 131.066 32.9329 131.319 32.6781C131.571 32.4255 131.868 32.3027 132.225 32.3027H133.538C133.895 32.3027 134.192 32.4255 134.444 32.6781C134.697 32.9306 134.82 33.2272 134.82 33.5864V37.0782ZM150.754 32.0038H149.339C149.23 32.0038 149.077 32.0432 148.973 32.2309L148.131 33.7068L147.293 32.2332C147.188 32.0432 147.035 32.0038 146.924 32.0038H145.508C145.337 32.0038 145.261 32.1081 145.261 32.2123C145.261 32.2656 145.279 32.3235 145.314 32.3791L147.218 35.7181V38.3572C147.218 38.5403 147.337 38.6585 147.522 38.6585H148.745C148.926 38.6585 149.044 38.5403 149.044 38.3572V35.7181L150.947 32.3838C150.984 32.3212 151.002 32.2656 151.002 32.2123C151.002 32.1081 150.926 32.0038 150.754 32.0038ZM148.743 35.6393V38.3572H147.517V35.6393L145.615 32.3027H146.924C146.957 32.3027 146.991 32.3096 147.031 32.3791L148.131 34.3116L149.232 32.3791C149.271 32.3096 149.308 32.3027 149.339 32.3027H150.648L148.745 35.6393H148.743ZM112.233 32.2772C112.198 32.1057 112.075 32.0038 111.904 32.0038H109.86C109.686 32.0038 109.563 32.1057 109.531 32.2772L108.368 38.3341C108.363 38.3596 108.361 38.3827 108.361 38.4036C108.361 38.5217 108.433 38.6585 108.639 38.6585H109.916C110.092 38.6585 110.212 38.5542 110.242 38.3804L110.439 37.1547H111.329L111.524 38.3804C111.554 38.5542 111.674 38.6585 111.85 38.6585H113.127C113.331 38.6585 113.403 38.5217 113.403 38.4036C113.403 38.3827 113.403 38.3596 113.396 38.3294L112.235 32.2772H112.233ZM111.848 38.3619C111.834 38.3619 111.827 38.3619 111.825 38.3619C111.825 38.3619 111.82 38.3503 111.818 38.3364L111.582 36.8581H110.182L109.946 38.3341C109.943 38.3503 109.939 38.3596 109.941 38.3596C109.941 38.3596 109.934 38.3619 109.916 38.3619H108.669L109.825 32.3351C109.83 32.3143 109.835 32.3073 109.835 32.3073C109.835 32.3073 109.842 32.3027 109.86 32.3027H111.904C111.92 32.3027 111.929 32.305 111.929 32.305C111.929 32.305 111.936 32.312 111.938 32.3328L113.095 38.3596H111.848V38.3619ZM142.445 34.402V33.5887C142.445 33.1531 142.29 32.7777 141.982 32.4695C141.674 32.1613 141.298 32.0061 140.863 32.0061H138.358C138.175 32.0061 138.057 32.1243 138.057 32.3073V38.3596C138.057 38.5426 138.175 38.6608 138.358 38.6608H139.579C139.762 38.6608 139.88 38.5426 139.88 38.3596V36.1189H140.429C140.573 36.1189 140.619 36.1653 140.619 36.3089V38.3596C140.619 38.5426 140.738 38.6608 140.921 38.6608H142.163C142.346 38.6608 142.464 38.5426 142.464 38.3596V36.2742C142.464 35.915 142.357 35.5976 142.149 35.3242C142.343 35.0554 142.443 34.7449 142.443 34.402M142.165 36.2742V38.3619H140.918V36.3089C140.918 35.9984 140.74 35.82 140.429 35.82H139.815C139.7 35.82 139.581 35.8988 139.581 36.0726V38.3642H138.356V32.3073H140.863C141.22 32.3073 141.516 32.4301 141.771 32.6827C142.024 32.9353 142.146 33.2318 142.146 33.591V34.4043C142.146 34.724 142.049 34.9928 141.847 35.2315L141.813 35.2732V35.389L141.85 35.4308C142.063 35.6694 142.167 35.9475 142.167 36.2765M133.059 33.2782H132.695C132.357 33.2782 132.164 33.4728 132.164 33.8088V36.8604C132.164 37.1987 132.357 37.391 132.695 37.391H133.059C133.397 37.391 133.589 37.1964 133.589 36.8604V33.8088C133.589 33.4705 133.397 33.2782 133.059 33.2782ZM133.29 36.8604C133.29 37.0319 133.23 37.0921 133.059 37.0921H132.695C132.524 37.0921 132.463 37.0319 132.463 36.8604V33.8088C132.463 33.6373 132.524 33.5771 132.695 33.5771H133.059C133.23 33.5771 133.29 33.6373 133.29 33.8088V36.8604ZM140.473 33.2782H139.834C139.683 33.2782 139.584 33.3801 139.584 33.5307V34.5989C139.584 34.7495 139.686 34.8515 139.834 34.8515H140.473C140.751 34.8515 140.921 34.6847 140.921 34.4066V33.7277C140.921 33.4473 140.754 33.2805 140.473 33.2805M140.619 34.4043C140.619 34.5201 140.587 34.5503 140.473 34.5503H139.88V33.5771H140.473C140.589 33.5771 140.619 33.6095 140.619 33.7254V34.4043ZM127.544 32.0084H123.637C123.454 32.0084 123.336 32.1266 123.336 32.3096V33.2805C123.336 33.4612 123.454 33.5794 123.637 33.5794H124.682V38.3619C124.682 38.5449 124.801 38.6631 124.984 38.6631H126.207C126.388 38.6631 126.506 38.5449 126.506 38.3619V33.5794H127.542C127.725 33.5794 127.845 33.4635 127.845 33.2805V32.3096C127.845 32.1266 127.727 32.0084 127.542 32.0084M127.544 32.3096V33.2782H126.457C126.307 33.2782 126.205 33.3801 126.205 33.5307V38.3619H124.979V33.5307C124.979 33.3801 124.879 33.2782 124.729 33.2782H123.633V32.305H127.546L127.544 32.3096ZM120.238 32.0084H117.796C117.36 32.0084 116.985 32.1637 116.677 32.4718C116.369 32.78 116.214 33.1554 116.214 33.591V37.0828C116.214 37.5184 116.369 37.8938 116.677 38.202C116.985 38.5102 117.36 38.6654 117.796 38.6654H120.238C120.421 38.6654 120.54 38.5472 120.54 38.3642V37.398C120.54 37.2149 120.421 37.0967 120.238 37.0967H118.039V33.5817H120.238C120.421 33.5817 120.54 33.4635 120.54 33.2805V32.3143C120.54 32.1312 120.421 32.0131 120.238 32.0131M120.241 32.3143V33.2828H117.995C117.845 33.2828 117.745 33.3801 117.74 33.5354V37.1524C117.747 37.3006 117.847 37.398 117.995 37.398H120.241V38.3711H117.798C117.442 38.3711 117.145 38.2483 116.892 37.9958C116.64 37.7432 116.517 37.4466 116.517 37.0875V33.5956C116.517 33.2388 116.64 32.9422 116.892 32.6873C117.145 32.4348 117.442 32.312 117.798 32.312H120.243L120.241 32.3143Z" fill="#F9A032"/>
</g>
<defs>
<clipPath id="clip0_1574_1890">
<rect width="151" height="74.1445" fill="white" transform="translate(0 0.509766)"/>
</clipPath>
</defs>
</svg>
