<svg width="150" height="74" viewBox="0 0 150 74" fill="none" xmlns="http://www.w3.org/2000/svg">
<g clip-path="url(#clip0_2482_1331)">
<path d="M54.3609 9.66107C55.4158 10.5504 56.2928 11.657 57.3124 12.5939C58.237 13.444 59.238 14.2031 60.1853 15.0263C60.0302 14.3913 58.9609 10.3147 56.9153 8.89166C54.696 7.34664 51.79 7.59276 51.79 7.59276C51.79 7.59276 52.9731 11.142 54.8863 13.0448C56.5409 14.6891 59.3042 15.0407 60.024 15.1049C58.9236 14.412 57.9226 13.5516 56.965 12.6767C56.0073 11.8038 54.9463 10.8793 54.241 9.78517C54.1913 9.70864 54.2761 9.59075 54.3589 9.65901L54.3609 9.66107ZM64.6446 0C64.6446 0 61.0023 3.6547 59.844 7.19358C58.7602 10.5029 60.3487 14.4802 60.5576 14.9808C60.6238 12.7553 60.9982 10.5546 61.66 8.42836C62.173 6.77992 62.75 4.78607 64.1482 3.67125C64.2433 3.59472 64.3922 3.72502 64.3095 3.82224C61.8151 6.71373 61.2608 11.1089 60.8513 14.805C61.9082 13.8784 65.7615 10.3043 66.2186 7.12326C66.7481 3.43132 64.6467 0.00413662 64.6467 0.00413662L64.6446 0Z" fill="white"/>
<path d="M73.8348 12.5897C82.499 12.5897 90.3068 16.3313 95.7258 22.2839H98.1892C92.4124 15.233 83.6407 10.7241 73.8348 10.7241C64.029 10.7241 55.2573 15.233 49.4805 22.2839H51.9438C57.3628 16.3313 65.1707 12.5897 73.8348 12.5897ZM73.8348 71.8054C65.7581 71.8054 58.428 68.5541 53.0793 63.2902H50.496C56.2604 69.6606 64.5874 73.671 73.8348 73.671C83.0822 73.671 91.4113 69.6627 97.1736 63.2902H94.5903C89.2437 68.552 81.9116 71.8054 73.8348 71.8054Z" fill="white"/>
<path d="M37.2192 26.5425H34.0961C33.155 26.5425 32.3525 26.8755 31.6886 27.5394C31.0246 28.2033 30.6916 29.0079 30.6916 29.9469V38.247C30.6916 39.1881 31.0246 39.9906 31.6886 40.6546C32.3525 41.3185 33.155 41.6515 34.0961 41.6515H37.2192C38.1603 41.6515 38.9628 41.3185 39.6267 40.6546C40.2907 39.9906 40.6237 39.1881 40.6237 38.247V29.9469C40.6237 29.0058 40.2907 28.2033 39.6267 27.5394C38.9628 26.8755 38.1603 26.5425 37.2192 26.5425ZM36.9979 37.7238C36.9979 38.3277 36.6959 38.6297 36.092 38.6297H35.2254C34.6214 38.6297 34.3195 38.3277 34.3195 37.7238V30.4702C34.3195 29.8663 34.6214 29.5643 35.2254 29.5643H36.092C36.6959 29.5643 36.9979 29.8663 36.9979 30.4702V37.7238ZM27.5809 26.5425H23.0575C22.8155 26.5425 22.6687 26.6624 22.6149 26.9044L20.2074 37.1095L17.7999 26.9044C17.7461 26.6624 17.5992 26.5425 17.3573 26.5425H12.8339C12.5919 26.5425 12.4719 26.6624 12.4719 26.9044V41.2895C12.4719 41.5315 12.5919 41.6515 12.8339 41.6515H15.746C15.9818 41.6515 16.0997 41.5295 16.0997 41.2895V31.1548L18.4865 41.2895C18.5403 41.5315 18.6872 41.6515 18.9292 41.6515H21.4877C21.7297 41.6515 21.8765 41.5295 21.9303 41.2895L24.3171 31.1548V41.2895C24.3171 41.5315 24.435 41.6515 24.6708 41.6515H27.583C27.825 41.6515 27.9449 41.5295 27.9449 41.2895V26.9044C27.9449 26.6624 27.825 26.5425 27.583 26.5425H27.5809ZM9.04679 33.6947C9.0261 33.674 9.00956 33.6575 8.99715 33.6451C8.63519 33.2831 8.21532 33.0577 7.73755 32.9708L4.2814 32.1352C3.84499 32.0276 3.62575 31.7257 3.62575 31.2293V30.373C3.62575 29.8352 3.89463 29.5663 4.43239 29.5663H8.90407C9.14606 29.5663 9.26603 29.4443 9.26603 29.2044V26.9086C9.26603 26.6666 9.14606 26.5466 8.90407 26.5466H3.40444C2.46336 26.5466 1.66085 26.8796 0.996925 27.5435C0.332998 28.2075 0 29.012 0 29.9511V32.3999C0 32.8839 0.119962 33.3162 0.361954 33.6988C0.448823 33.8395 0.554307 33.9739 0.674269 34.1022C0.694952 34.1228 0.711498 34.1394 0.723908 34.1518C1.08586 34.5137 1.50573 34.7392 1.98351 34.8261L5.43965 35.6617C5.87607 35.7692 6.09531 36.0712 6.09531 36.5676V37.8272C6.09531 38.3649 5.82643 38.6338 5.28867 38.6338H0.512941C0.270949 38.6338 0.150987 38.7558 0.150987 38.9958V41.2937C0.150987 41.5357 0.270949 41.6556 0.512941 41.6556H6.31455C7.25563 41.6556 8.05813 41.3226 8.72206 40.6587C9.38599 39.9948 9.71899 39.1923 9.71899 38.2512V35.4011C9.71899 34.9171 9.59902 34.4848 9.35703 34.1022C9.27016 33.9615 9.16468 33.8271 9.04472 33.6988L9.04679 33.6947ZM97.1506 38.6297H93.1318C92.259 38.6297 91.8226 38.1933 91.8226 37.3204V35.8499C91.8226 35.6885 91.9033 35.6079 92.0646 35.6079H96.0937C96.3356 35.6079 96.4556 35.4859 96.4556 35.2459V32.948C96.4556 32.706 96.3336 32.5861 96.0937 32.5861H92.0646C91.9033 32.5861 91.8226 32.5054 91.8226 32.3441V29.8063C91.8226 29.6449 91.9033 29.5643 92.0646 29.5643H96.9003C97.1423 29.5643 97.2622 29.4423 97.2622 29.2023V26.9065C97.2622 26.6645 97.1423 26.5445 96.9003 26.5445H88.5588C88.3168 26.5445 88.1968 26.6645 88.1968 26.9065V38.2491C88.1968 39.1902 88.5298 39.9927 89.1938 40.6566C89.8577 41.3206 90.6602 41.6535 91.6013 41.6535H97.1526C97.3946 41.6535 97.5146 41.5315 97.5146 41.2916V38.9937C97.5146 38.7517 97.3946 38.6317 97.1526 38.6317L97.1506 38.6297ZM85.0944 26.5425H82.1822C81.9402 26.5425 81.8203 26.6624 81.8203 26.9044V41.2895C81.8203 41.5315 81.9402 41.6515 82.1822 41.6515H85.0944C85.3302 41.6515 85.446 41.5295 85.446 41.2895V26.9044C85.446 26.6624 85.3281 26.5425 85.0944 26.5425ZM78.7095 26.5425H75.7973C75.5615 26.5425 75.4457 26.6624 75.4457 26.9044V32.3441C75.4457 32.5054 75.3651 32.5861 75.2037 32.5861H71.9792C71.8179 32.5861 71.7372 32.5054 71.7372 32.3441V26.9044C71.7372 26.6624 71.6194 26.5425 71.3856 26.5425H68.4734C68.2315 26.5425 68.1115 26.6624 68.1115 26.9044V41.2895C68.1115 41.5315 68.2315 41.6515 68.4734 41.6515H71.3856C71.6214 41.6515 71.7372 41.5295 71.7372 41.2895V35.8499C71.7372 35.6885 71.8179 35.6079 71.9792 35.6079H75.2037C75.3651 35.6079 75.4457 35.6885 75.4457 35.8499V41.2895C75.4457 41.5315 75.5636 41.6515 75.7973 41.6515H78.7095C78.9515 41.6515 79.0715 41.5295 79.0715 41.2895V26.9044C79.0715 26.6624 78.9515 26.5425 78.7095 26.5425ZM65.3524 26.5425H56.0657C55.8237 26.5425 55.7037 26.6624 55.7037 26.9044V29.2106C55.7037 29.4464 55.8237 29.5622 56.0657 29.5622H58.6655C58.8269 29.5622 58.9075 29.6429 58.9075 29.8042V41.2875C58.9075 41.5294 59.0275 41.6494 59.2695 41.6494H62.1817C62.4174 41.6494 62.5353 41.5274 62.5353 41.2875V29.8042C62.5353 29.6429 62.616 29.5622 62.7773 29.5622H65.3565C65.5985 29.5622 65.7185 29.4443 65.7185 29.2106V26.9044C65.7185 26.6624 65.5985 26.5425 65.3565 26.5425H65.3524ZM49.9 26.5425H46.7769C45.8358 26.5425 45.0333 26.8755 44.3694 27.5394C43.7054 28.2033 43.3724 29.0079 43.3724 29.9469V38.247C43.3724 39.1881 43.7054 39.9906 44.3694 40.6546C45.0333 41.3185 45.8358 41.6515 46.7769 41.6515H49.9C50.8411 41.6515 51.6436 41.3185 52.3075 40.6546C52.9715 39.9906 53.3045 39.1881 53.3045 38.247V29.9469C53.3045 29.0058 52.9715 28.2033 52.3075 27.5394C51.6436 26.8755 50.8411 26.5425 49.9 26.5425ZM49.6787 37.7238C49.6787 38.3277 49.3767 38.6297 48.7728 38.6297H47.9062C47.3022 38.6297 47.0003 38.3277 47.0003 37.7238V30.4702C47.0003 29.8663 47.3022 29.5643 47.9062 29.5643H48.7728C49.3767 29.5643 49.6787 29.8663 49.6787 30.4702V37.7238Z" fill="white"/>
<path d="M97.5723 43.9121H88.2856C88.0436 43.9121 87.9236 44.0321 87.9236 44.2741V46.5802C87.9236 46.816 88.0436 46.9318 88.2856 46.9318H90.8854C91.0468 46.9318 91.1274 47.0125 91.1274 47.1738V58.6571C91.1274 58.8991 91.2474 59.019 91.4894 59.019H94.4016C94.6374 59.019 94.7532 58.8991 94.7532 58.6571V47.1738C94.7532 47.0125 94.8339 46.9318 94.9952 46.9318H97.5744C97.8164 46.9318 97.9363 46.8139 97.9363 46.5802V44.2741C97.9363 44.0321 97.8164 43.9121 97.5744 43.9121H97.5723ZM65.2591 50.2577H61.7326V46.7312C61.7326 46.5306 61.6313 46.4292 61.4307 46.4292H59.6167C59.4161 46.4292 59.3148 46.5306 59.3148 46.7312V50.2577H55.7883C55.5877 50.2577 55.4863 50.359 55.4863 50.5597V52.3736C55.4863 52.5742 55.5877 52.6755 55.7883 52.6755H59.3148V56.202C59.3148 56.4026 59.4161 56.504 59.6167 56.504H61.4307C61.6313 56.504 61.7326 56.4026 61.7326 56.202V52.6755H65.2591C65.4597 52.6755 65.5611 52.5742 65.5611 52.3736V50.5597C65.5611 50.359 65.4597 50.2577 65.2591 50.2577ZM85.1728 43.9121H82.2606C82.0186 43.9121 81.8986 44.0321 81.8986 44.2741V58.6592C81.8986 58.9011 82.0186 59.0211 82.2606 59.0211H85.1728C85.4086 59.0211 85.5265 58.9011 85.5265 58.6592V44.2741C85.5265 44.0321 85.4086 43.9121 85.1728 43.9121ZM79.1395 43.9121H76.3597C76.1177 43.9121 75.9502 44.0321 75.855 44.2741L73.7495 49.451C73.6213 49.7861 73.4372 49.9557 73.1952 49.9557H72.1776C72.0163 49.9557 71.9356 49.875 71.9356 49.7137V44.2741C71.9356 44.0321 71.8177 43.9121 71.5819 43.9121H68.6697C68.4277 43.9121 68.3078 44.0321 68.3078 44.2741V58.6592C68.3078 58.9011 68.4277 59.0211 68.6697 59.0211H71.5819C71.8177 59.0211 71.9356 58.9011 71.9356 58.6592V53.2195C71.9356 53.0582 72.0163 52.9775 72.1776 52.9775H74.1528C74.7568 52.9775 75.0587 53.2795 75.0587 53.8834V58.6592C75.0587 58.9011 75.1808 59.0211 75.4207 59.0211H78.3225C78.5645 59.0211 78.6845 58.9011 78.6845 58.6592V52.7955C78.6845 51.8813 78.3618 51.1036 77.7165 50.4583C77.5076 50.2494 77.2904 50.0757 77.0609 49.935L79.3567 44.2741C79.3836 44.2079 79.396 44.15 79.396 44.1024C79.396 43.9742 79.3091 43.9121 79.1333 43.9121H79.1395ZM109.537 43.9121H103.736C102.795 43.9121 101.992 44.2451 101.328 44.909C100.664 45.573 100.331 46.3755 100.331 47.3165V55.6167C100.331 56.5578 100.664 57.3603 101.328 58.0242C101.992 58.6881 102.795 59.0211 103.736 59.0211H109.537C109.779 59.0211 109.899 58.9011 109.899 58.6592V56.3633C109.899 56.1213 109.779 56.0014 109.537 56.0014H104.209C104.048 56.0014 103.963 55.9207 103.957 55.7594V47.1759C103.963 47.0146 104.048 46.9339 104.209 46.9339H109.537C109.779 46.9339 109.899 46.8139 109.899 46.572V44.2761C109.899 44.0341 109.779 43.9142 109.537 43.9142V43.9121ZM149.646 43.9121H146.734C146.492 43.9121 146.372 44.0321 146.372 44.2741V52.9175L143.46 44.2741C143.379 44.0321 143.218 43.9121 142.976 43.9121H138.785C138.543 43.9121 138.423 44.0321 138.423 44.2741V58.6592C138.423 58.9011 138.546 59.0211 138.785 59.0211H141.698C141.933 59.0211 142.051 58.9011 142.051 58.6592V49.9557L144.992 58.6592C145.073 58.9011 145.234 59.0211 145.476 59.0211H149.646C149.882 59.0211 149.998 58.9011 149.998 58.6592V44.2741C149.998 44.0321 149.88 43.9121 149.646 43.9121ZM123.246 43.9121H120.334C120.098 43.9121 119.982 44.0321 119.982 44.2741V49.7137C119.982 49.875 119.902 49.9557 119.74 49.9557H116.516C116.355 49.9557 116.274 49.875 116.274 49.7137V44.2741C116.274 44.0321 116.156 43.9121 115.92 43.9121H113.008C112.766 43.9121 112.646 44.0321 112.646 44.2741V58.6592C112.646 58.9011 112.766 59.0211 113.008 59.0211H115.92C116.156 59.0211 116.274 58.9011 116.274 58.6592V53.2195C116.274 53.0582 116.355 52.9775 116.516 52.9775H119.74C119.902 52.9775 119.982 53.0582 119.982 53.2195V58.6592C119.982 58.9011 120.1 59.0211 120.334 59.0211H123.246C123.488 59.0211 123.608 58.9011 123.608 58.6592V44.2741C123.608 44.0321 123.486 43.9121 123.246 43.9121ZM135.313 55.9993H131.294C130.421 55.9993 129.985 55.5629 129.985 54.6901V53.2195C129.985 53.0582 130.065 52.9775 130.227 52.9775H134.256C134.498 52.9775 134.618 52.8575 134.618 52.6156V50.3197C134.618 50.0777 134.498 49.9578 134.256 49.9578H130.227C130.065 49.9578 129.985 49.8771 129.985 49.7158V47.178C129.985 47.0166 130.065 46.936 130.227 46.936H135.062C135.304 46.936 135.424 46.816 135.424 46.574V44.2782C135.424 44.0362 135.302 43.9162 135.062 43.9162H126.721C126.479 43.9162 126.359 44.0362 126.359 44.2782V55.6208C126.359 56.5619 126.692 57.3644 127.356 58.0283C128.02 58.6922 128.822 59.0252 129.763 59.0252H135.315C135.557 59.0252 135.677 58.9053 135.677 58.6633V56.3675C135.677 56.1255 135.555 56.0055 135.315 56.0055L135.313 55.9993Z" fill="white"/>
<path d="M100.659 31.7666H104.446C104.522 31.7666 104.562 31.8183 104.562 31.9197V32.8235C104.562 32.9393 104.504 32.9972 104.388 32.9972H102.253L102.196 33.0552V34.0934C102.196 34.139 102.214 34.1782 102.253 34.2093H103.906C103.958 34.23 103.983 34.2755 103.983 34.3437V35.3427C103.983 35.4316 103.937 35.4771 103.848 35.4771H102.233L102.193 35.5164V37.4772L102.136 37.5351H100.655C100.613 37.5351 100.588 37.4462 100.578 37.2662L100.597 31.9403L100.578 31.9217V31.9031C100.601 31.8142 100.628 31.7687 100.655 31.7687L100.659 31.7666Z" fill="white"/>
<path d="M109.063 31.7666H111.081C111.201 31.7666 111.28 31.9776 111.313 32.4016L112.312 37.4586C112.3 37.5103 112.26 37.5351 112.196 37.5351H111.005C110.901 37.5351 110.837 37.3821 110.812 37.0739C110.728 36.5196 110.664 36.2197 110.62 36.17H109.524C109.474 36.17 109.392 36.6002 109.274 37.4586L109.197 37.5351H107.89L107.832 37.4772C108.204 35.5992 108.479 34.1121 108.659 33.0159L108.91 31.8431C108.963 31.7914 109.015 31.7666 109.063 31.7666ZM109.563 35.0924L109.582 35.1111H110.312L110.351 35.0718L109.985 33.0345L109.967 33.0159H109.948C109.888 33.0159 109.83 33.2392 109.77 33.6881C109.631 34.4595 109.563 34.927 109.563 35.0924Z" fill="white"/>
<path d="M117.16 31.7667H119.332C119.447 31.7667 119.505 31.837 119.505 31.9777V32.7843C119.505 32.925 119.435 32.9953 119.294 32.9953H117.487C117.387 32.9912 117.336 33.0408 117.334 33.1483L117.33 36.1329C117.344 36.257 117.408 36.3253 117.522 36.3397H119.334C119.45 36.3397 119.507 36.3853 119.507 36.4742V37.378C119.507 37.4815 119.468 37.5311 119.392 37.5311H116.93C116.674 37.4753 116.436 37.3408 116.219 37.1278C115.975 36.861 115.853 36.5342 115.853 36.1474L115.849 33.109L115.853 33.0139C115.853 32.7492 115.975 32.4679 116.219 32.168C116.508 31.9115 116.804 31.7833 117.104 31.7833L117.162 31.7646L117.16 31.7667Z" fill="white"/>
<path d="M123.178 31.7666H126.813L126.87 31.8245L126.866 32.7284C126.854 32.8318 126.808 32.8814 126.732 32.8814H125.793C125.704 32.8814 125.658 32.9269 125.658 33.0159V37.38C125.658 37.4834 125.619 37.533 125.543 37.533H124.388C124.3 37.533 124.254 37.4689 124.254 37.3407V32.9579L124.146 32.8814H123.234C123.106 32.8731 123.042 32.8442 123.042 32.7925V31.901C123.056 31.8121 123.102 31.7666 123.176 31.7666H123.178Z" fill="white"/>
<path d="M131.35 31.7666H133.253C133.481 31.8121 133.706 31.9465 133.925 32.1699C134.118 32.4409 134.213 32.6601 134.213 32.8235L134.232 33.3427V35.8039C134.232 36.4844 134.18 36.8236 134.078 36.8236C133.983 37.0511 133.779 37.2642 133.462 37.4586L133.251 37.5351H131.348C130.986 37.4152 130.705 37.1773 130.502 36.8236C130.438 36.6975 130.407 36.5051 130.407 36.2466V33.0365C130.407 32.3954 130.722 31.9734 131.348 31.7666H131.35ZM131.812 33.1317V36.0149C131.812 36.259 131.888 36.381 132.043 36.381C132.531 36.4058 132.773 36.3417 132.773 36.1886L132.792 36.0149V33.1875C132.804 32.9952 132.728 32.8856 132.56 32.8607H131.983C131.843 32.9124 131.785 33.0014 131.81 33.1296L131.812 33.1317Z" fill="white"/>
<path d="M137.617 31.7667H140.232C140.565 31.8453 140.834 32.0128 141.038 32.2672C141.191 32.4389 141.27 32.7595 141.27 33.229V33.6716C141.27 34.1101 141.193 34.3976 141.038 34.5362L140.962 34.6313V34.6706C141.179 34.8754 141.289 35.1567 141.289 35.5166V37.4194C141.256 37.4959 141.204 37.5352 141.136 37.5352H140.058C139.955 37.5352 139.905 37.4773 139.905 37.3615V35.4959C139.866 35.2787 139.758 35.1691 139.578 35.1691H139.04L138.964 35.2456V37.3222C138.964 37.4628 138.912 37.5332 138.811 37.5332H137.727C137.653 37.5332 137.601 37.4753 137.574 37.3594L137.562 31.8226L137.619 31.7646L137.617 31.7667ZM138.964 32.9394V34.0729L139.022 34.1308H139.617C139.768 34.1308 139.866 34.015 139.905 33.7854V33.1711C139.859 32.9663 139.731 32.8629 139.52 32.8629H139.04L138.964 32.9394Z" fill="white"/>
<path d="M144.656 31.7666H146.079C146.174 31.7666 146.321 31.9776 146.522 32.4016L147.138 33.4006H147.178C147.775 32.3292 148.09 31.7914 148.119 31.7852L148.195 31.7666H149.618V31.8245C148.423 33.8721 147.821 34.9311 147.81 34.9973V37.4772L147.753 37.5351H146.522L146.464 37.4772V34.9973C146.441 34.9042 145.839 33.8473 144.656 31.8245V31.7666Z" fill="white"/>
<path d="M96.8736 66.2214H96.4248V65.9028H97.7092V66.2214H97.2521V67.5761H96.8736V66.2214Z" fill="white"/>
<path d="M99.314 66.9353C99.3058 66.7347 99.2995 66.4906 99.2995 66.2486H99.2913C99.2396 66.4616 99.1692 66.6995 99.1051 66.896L98.9024 67.5475H98.6067L98.4288 66.9001C98.375 66.7036 98.3171 66.4658 98.2778 66.2486H98.2737C98.2633 66.4741 98.2571 66.7326 98.2447 66.9415L98.2157 67.5765H97.8662L97.9738 65.9053H98.4784L98.6418 66.4637C98.6935 66.6581 98.7452 66.865 98.7825 67.0615H98.7907C98.8383 66.867 98.8942 66.6478 98.95 66.4616L99.1279 65.9053H99.6222L99.7132 67.5765H99.343L99.3182 66.9374L99.314 66.9353Z" fill="white"/>
</g>
<defs>
<clipPath id="clip0_2482_1331">
<rect width="150" height="73.6711" fill="white"/>
</clipPath>
</defs>
</svg>
