<svg width="40" height="39" viewBox="0 0 40 39" fill="none" xmlns="http://www.w3.org/2000/svg">
<path d="M9.6957 5.10073C10.2525 5.56992 10.7155 6.15505 11.2535 6.64938C11.7422 7.09835 12.2706 7.49887 12.7702 7.93409C12.6877 7.59882 12.1233 5.44596 11.044 4.69493C9.87245 3.87972 8.33838 4.00895 8.33838 4.00895C8.33838 4.00895 8.96275 5.88282 9.9736 6.88744C10.847 7.7555 12.3056 7.94091 12.6865 7.97538C12.1055 7.60968 11.577 7.15483 11.0716 6.69386C10.5659 6.23259 10.0059 5.74462 9.63339 5.16721C9.60745 5.12702 9.65252 5.06432 9.6957 5.10073Z" fill="white"/>
<path d="M15.1255 0C15.1255 0 13.2028 1.9299 12.5907 3.79779C12.0182 5.54521 12.8573 7.64514 12.9679 7.90884C13.0028 6.7341 13.2007 5.57176 13.5498 4.44901C13.8206 3.57841 14.1259 2.52559 14.8631 1.93687C14.9136 1.89648 14.9923 1.96486 14.9478 2.0164C13.6307 3.5429 13.3379 5.864 13.1222 7.81501C13.6801 7.3256 15.7151 5.43888 15.9557 3.75924C16.2349 1.81052 15.1255 0 15.1255 0Z" fill="white"/>
<path d="M19.9768 37.9111C15.1753 37.9111 10.8733 35.7345 8.00355 32.3169H6.7433C9.78091 36.3119 14.5823 38.8963 19.9768 38.8963C25.3712 38.8963 30.1727 36.3119 33.2104 32.3169H31.9501C29.0803 35.7345 24.7782 37.9111 19.9768 37.9111ZM19.9768 6.64725C24.8238 6.64725 29.1627 8.86471 32.0321 12.3383H33.2848C30.2514 8.288 25.415 5.66211 19.9768 5.66211C14.5386 5.66211 9.70227 8.288 6.66895 12.3383H7.92158C10.7911 8.86471 15.1298 6.64725 19.9768 6.64725Z" fill="white"/>
<path d="M32.2862 13.6187H31.0921C30.9956 13.6187 30.9474 13.6683 30.9474 13.7674V15.9987C30.9474 16.0649 30.9143 16.098 30.8483 16.098H29.526C29.4599 16.098 29.4268 16.0649 29.4268 15.9987V13.7674C29.4268 13.6683 29.3786 13.6187 29.2822 13.6187H28.0881C27.9888 13.6187 27.9392 13.6683 27.9392 13.7674V19.6682C27.9392 19.7673 27.9888 19.8169 28.0881 19.8169H29.2822C29.3786 19.8169 29.4268 19.7673 29.4268 19.6682V17.4368C29.4268 17.3707 29.4599 17.3376 29.526 17.3376H30.8483C30.9143 17.3376 30.9474 17.3707 30.9474 17.4368V19.6682C30.9474 19.7673 30.9956 19.8169 31.0921 19.8169H32.2862C32.3854 19.8169 32.4351 19.7673 32.4351 19.6682V13.7674C32.4351 13.6683 32.3854 13.6187 32.2862 13.6187ZM39.8513 18.5773H38.2024C37.8443 18.5773 37.6653 18.3982 37.6653 18.0401V17.4368C37.6653 17.3707 37.6984 17.3376 37.7645 17.3376H39.4174C39.5165 17.3376 39.5661 17.2881 39.5661 17.1888V16.2467C39.5661 16.1476 39.5165 16.098 39.4174 16.098H37.7645C37.6984 16.098 37.6653 16.0649 37.6653 15.9987V14.9575C37.6653 14.8914 37.6984 14.8582 37.7645 14.8582H39.7479C39.8472 14.8582 39.8966 14.8087 39.8966 14.7095V13.7674C39.8966 13.6683 39.8472 13.6187 39.7479 13.6187H36.3266C36.2273 13.6187 36.1777 13.6683 36.1777 13.7674V18.4203C36.1777 18.806 36.3141 19.1351 36.5868 19.4078C36.8595 19.6805 37.1887 19.8169 37.5745 19.8169H39.8513C39.9504 19.8169 40 19.7673 40 19.6682V18.726C40 18.6267 39.9504 18.5773 39.8513 18.5773ZM34.9055 13.6187H33.7113C33.6121 13.6187 33.5625 13.6683 33.5625 13.7674V19.6682C33.5625 19.7673 33.6121 19.8169 33.7113 19.8169H34.9055C35.0019 19.8169 35.0502 19.7673 35.0502 19.6682V13.7674C35.0502 13.6683 35.0019 13.6187 34.9055 13.6187ZM20.3784 18.2054C20.3784 18.4532 20.2544 18.5773 20.0065 18.5773H19.6511C19.4032 18.5773 19.2793 18.4532 19.2793 18.2054V15.2302C19.2793 14.9823 19.4032 14.8582 19.6511 14.8582H20.0065C20.2544 14.8582 20.3784 14.9823 20.3784 15.2302V18.2054ZM20.4692 13.6187H19.1883C18.8026 13.6187 18.4735 13.755 18.2007 14.0278C17.928 14.3004 17.7916 14.6296 17.7916 15.0154V18.4203C17.7916 18.806 17.928 19.1351 18.2007 19.4078C18.4735 19.6805 18.8026 19.8169 19.1883 19.8169H20.4692C20.8549 19.8169 21.1841 19.6805 21.4569 19.4078C21.7295 19.1351 21.866 18.806 21.866 18.4203V15.0154C21.866 14.6296 21.7295 14.3004 21.4569 14.0278C21.1841 13.755 20.8549 13.6187 20.4692 13.6187ZM26.8075 13.6187H22.9977C22.8985 13.6187 22.849 13.6683 22.849 13.7674V14.7137C22.849 14.8102 22.8985 14.8582 22.9977 14.8582H24.0637C24.1299 14.8582 24.163 14.8914 24.163 14.9575V19.6682C24.163 19.7673 24.2125 19.8169 24.3117 19.8169H25.5058C25.6022 19.8169 25.6505 19.7673 25.6505 19.6682V14.9575C25.6505 14.8914 25.6835 14.8582 25.7497 14.8582H26.8075C26.9066 14.8582 26.9564 14.8102 26.9564 14.7137V13.7674C26.9564 13.6683 26.9066 13.6187 26.8075 13.6187ZM3.71074 16.5526C3.70247 16.5443 3.6955 16.5373 3.69002 16.5318C3.54131 16.383 3.36909 16.2909 3.17352 16.255L1.75624 15.912C1.5771 15.8679 1.4876 15.744 1.4876 15.5401V15.1889C1.4876 14.9685 1.59771 14.8582 1.81819 14.8582H3.65281C3.75202 14.8582 3.80163 14.8087 3.80163 14.7095V13.7674C3.80163 13.6683 3.75202 13.6187 3.65281 13.6187H1.39671C1.01104 13.6187 0.681845 13.755 0.409126 14.0278C0.136358 14.3004 0 14.6296 0 15.0154V16.0194C0 16.2178 0.0496021 16.3955 0.148809 16.5526C0.184517 16.6103 0.227299 16.6654 0.276902 16.7178C0.285119 16.7261 0.291992 16.733 0.29752 16.7384C0.44628 16.8872 0.618445 16.9796 0.81407 17.0153L2.2314 17.3582C2.41039 17.4023 2.49994 17.5263 2.49994 17.7302V18.2467C2.49994 18.4671 2.38977 18.5773 2.16945 18.5773H0.210764C0.111607 18.5773 0.0619522 18.6267 0.0619522 18.726V19.6682C0.0619522 19.7673 0.111607 19.8169 0.210764 19.8169H2.59087C2.97655 19.8169 3.30574 19.6805 3.57851 19.4078C3.85118 19.1351 3.98754 18.806 3.98754 18.4203V17.2508C3.98754 17.0525 3.93794 16.8748 3.83883 16.7178C3.80297 16.6599 3.76029 16.6049 3.71074 16.5526ZM11.3134 13.6187H9.4581C9.35889 13.6187 9.29823 13.6683 9.27622 13.7674L8.28863 17.9533L7.30105 13.7674C7.27904 13.6683 7.21843 13.6187 7.11927 13.6187H5.26393C5.16477 13.6187 5.11512 13.6683 5.11512 13.7674V19.6682C5.11512 19.7673 5.16477 19.8169 5.26393 19.8169H6.45809C6.55451 19.8169 6.60277 19.7673 6.60277 19.6682V15.5111L7.58204 19.6682C7.6041 19.7673 7.66471 19.8169 7.76392 19.8169H8.81345C8.91261 19.8169 8.97322 19.7673 8.99523 19.6682L9.9746 15.5111V19.6682C9.9746 19.7673 10.0228 19.8169 10.1192 19.8169H11.3134C11.4126 19.8169 11.4622 19.7673 11.4622 19.6682V13.7674C11.4622 13.6683 11.4126 13.6187 11.3134 13.6187ZM15.1765 18.2054C15.1765 18.4532 15.0525 18.5773 14.8045 18.5773H14.4492C14.2012 18.5773 14.0773 18.4532 14.0773 18.2054V15.2302C14.0773 14.9823 14.2012 14.8582 14.4492 14.8582H14.8045C15.0525 14.8582 15.1765 14.9823 15.1765 15.2302V18.2054ZM15.2674 13.6187H13.9864C13.6008 13.6187 13.2715 13.755 12.9989 14.0278C12.726 14.3004 12.5897 14.6296 12.5897 15.0154V18.4203C12.5897 18.806 12.726 19.1351 12.9989 19.4078C13.2715 19.6805 13.6008 19.8169 13.9864 19.8169H15.2674C15.653 19.8169 15.9822 19.6805 16.2549 19.4078C16.5277 19.1351 16.664 18.806 16.664 18.4203V15.0154C16.664 14.6296 16.5277 14.3004 16.2549 14.0278C15.9822 13.755 15.653 13.6187 15.2674 13.6187Z" fill="white"/>
<path d="M27.6628 24.5146H26.4686C26.3722 24.5146 26.3239 24.5644 26.3239 24.6635V26.8949C26.3239 26.9609 26.2909 26.9941 26.2248 26.9941H24.9025C24.8363 26.9941 24.8034 26.9609 24.8034 26.8949V24.6635C24.8034 24.5644 24.7551 24.5146 24.6587 24.5146H23.4645C23.3653 24.5146 23.3157 24.5644 23.3157 24.6635V30.5642C23.3157 30.6634 23.3653 30.713 23.4645 30.713H24.6587C24.7551 30.713 24.8034 30.6634 24.8034 30.5642V28.3328C24.8034 28.2667 24.8363 28.2337 24.9025 28.2337H26.2248C26.2909 28.2337 26.3239 28.2667 26.3239 28.3328V30.5642C26.3239 30.6634 26.3722 30.713 26.4686 30.713H27.6628C27.7619 30.713 27.8115 30.6634 27.8115 30.5642V24.6635C27.8115 24.5644 27.7619 24.5146 27.6628 24.5146ZM32.6125 29.4733H30.9638C30.6058 29.4733 30.4266 29.2943 30.4266 28.9361V28.3328C30.4266 28.2667 30.4597 28.2337 30.5259 28.2337H32.1786C32.2778 28.2337 32.3274 28.184 32.3274 28.0849V27.1428C32.3274 27.0436 32.2778 26.9941 32.1786 26.9941H30.5259C30.4597 26.9941 30.4266 26.9609 30.4266 26.8949V25.8535C30.4266 25.7874 30.4597 25.7544 30.5259 25.7544H32.5093C32.6084 25.7544 32.658 25.7047 32.658 25.6056V24.6635C32.658 24.5644 32.6084 24.5146 32.5093 24.5146H29.0878C28.9887 24.5146 28.939 24.5644 28.939 24.6635V29.3163C28.939 29.702 29.0754 30.0311 29.3482 30.3038C29.6209 30.5766 29.9501 30.713 30.3357 30.713H32.6125C32.7118 30.713 32.7613 30.6634 32.7613 30.5642V29.6221C32.7613 29.5229 32.7118 29.4733 32.6125 29.4733ZM38.4922 24.5146H37.2979C37.1987 24.5146 37.1492 24.5644 37.1492 24.6635V28.2089L35.9549 24.6635C35.922 24.5644 35.8558 24.5146 35.7566 24.5146H34.0376C33.9385 24.5146 33.8888 24.5644 33.8888 24.6635V30.5642C33.8888 30.6634 33.9385 30.713 34.0376 30.713H35.2318C35.3283 30.713 35.3765 30.6634 35.3765 30.5642V26.9941L36.5831 30.5642C36.6161 30.6634 36.6822 30.713 36.7814 30.713H38.4922C38.5885 30.713 38.6368 30.6634 38.6368 30.5642V24.6635C38.6368 24.5644 38.5885 24.5146 38.4922 24.5146ZM22.0393 24.5146H19.6592C19.2736 24.5146 18.9443 24.651 18.6717 24.9238C18.399 25.1965 18.2626 25.5258 18.2626 25.9114V29.3163C18.2626 29.702 18.399 30.0311 18.6717 30.3038C18.9443 30.5766 19.2736 30.713 19.6592 30.713H22.0393C22.1385 30.713 22.1881 30.6634 22.1881 30.5642V29.6221C22.1881 29.5229 22.1385 29.4733 22.0393 29.4733H19.8535C19.7874 29.4733 19.7528 29.4402 19.7501 29.3742V25.8535C19.7528 25.7874 19.7874 25.7544 19.8535 25.7544H22.0393C22.1385 25.7544 22.1881 25.7047 22.1881 25.6056V24.6635C22.1881 24.5644 22.1385 24.5146 22.0393 24.5146ZM17.1309 24.5146H13.3209C13.2218 24.5146 13.1722 24.5644 13.1722 24.6635V25.6097C13.1722 25.7062 13.2218 25.7544 13.3209 25.7544H14.3871C14.4532 25.7544 14.4862 25.7874 14.4862 25.8535V30.5642C14.4862 30.6634 14.5359 30.713 14.6351 30.713H15.8292C15.9256 30.713 15.9738 30.6634 15.9738 30.5642V25.8535C15.9738 25.7874 16.0069 25.7544 16.073 25.7544H17.1309C17.23 25.7544 17.2796 25.7062 17.2796 25.6097V24.6635C17.2796 24.5644 17.23 24.5146 17.1309 24.5146ZM4.01698 27.157H2.68451V25.8245C2.68451 25.7484 2.64651 25.7103 2.57031 25.7103H1.88503C1.80893 25.7103 1.77083 25.7484 1.77083 25.8245V27.157H0.438417C0.362269 27.157 0.324219 27.1951 0.324219 27.2712V27.9564C0.324219 28.0326 0.362269 28.0707 0.438417 28.0707H1.77083V29.4031C1.77083 29.4792 1.80893 29.5173 1.88503 29.5173H2.57031C2.64651 29.5173 2.68451 29.4792 2.68451 29.4031V28.0707H4.01698C4.09313 28.0707 4.13117 28.0326 4.13117 27.9564V27.2712C4.13117 27.1951 4.09313 27.157 4.01698 27.157ZM9.57001 24.5146H8.42948C8.33033 24.5146 8.26145 24.5644 8.22295 24.6635L7.35933 26.7874C7.30693 26.9251 7.23123 26.9941 7.13203 26.9941H6.71468C6.64854 26.9941 6.61552 26.9609 6.61552 26.8949V24.6635C6.61552 24.5644 6.56727 24.5146 6.47085 24.5146H5.27668C5.17753 24.5146 5.12792 24.5644 5.12792 24.6635V30.5642C5.12792 30.6634 5.17753 30.713 5.27668 30.713H6.47085C6.56727 30.713 6.61552 30.6634 6.61552 30.5642V28.3328C6.61552 28.2667 6.64854 28.2337 6.71468 28.2337H7.52462C7.77254 28.2337 7.89649 28.3576 7.89649 28.6055V30.5642C7.89649 30.6634 7.94605 30.713 8.04521 30.713H9.23529C9.33444 30.713 9.3841 30.6634 9.3841 30.5642V28.1592C9.3841 27.7847 9.25187 27.4651 8.98737 27.2006C8.90196 27.1153 8.81236 27.0436 8.71873 26.9858L9.6609 24.6635C9.67186 24.636 9.67743 24.6126 9.67743 24.5932C9.67743 24.541 9.64163 24.5146 9.57001 24.5146ZM12.0445 24.5146H10.8505C10.7513 24.5146 10.7017 24.5644 10.7017 24.6635V30.5642C10.7017 30.6634 10.7513 30.713 10.8505 30.713H12.0445C12.1411 30.713 12.1892 30.6634 12.1892 30.5642V24.6635C12.1892 24.5644 12.1411 24.5146 12.0445 24.5146Z" fill="white"/>
<path d="M20.6799 21.3046C20.6799 21.3085 20.6797 21.3112 20.6797 21.3124C20.6778 21.3129 20.6745 21.3133 20.6694 21.3133H20.1899C20.129 21.3133 20.0881 21.3542 20.0881 21.4151V23.5501C20.0881 23.5554 20.0875 23.5587 20.0878 23.56C20.0862 23.5603 20.0835 23.5607 20.0794 23.5607H19.5382C19.5337 23.5607 19.5307 23.5603 19.5291 23.5603H19.5285C19.5281 23.5585 19.5276 23.5553 19.5276 23.5501V21.4151C19.5276 21.3542 19.4866 21.3133 19.4259 21.3133H18.9426C18.9374 21.3133 18.9341 21.3124 18.9327 21.313C18.9324 21.3113 18.932 21.3086 18.932 21.3046V20.8757C18.932 20.8705 18.9325 20.8673 18.9324 20.8661C18.9341 20.8657 18.9375 20.8651 18.9426 20.8651H20.6694C20.6747 20.8651 20.6783 20.8659 20.679 20.8654C20.6794 20.8673 20.6799 20.8705 20.6799 20.8757V21.3046ZM20.6694 20.7515H18.9426C18.866 20.7515 18.8184 20.7991 18.8184 20.8757V21.3046C18.8184 21.3801 18.866 21.4269 18.9426 21.4269H19.4139V23.5501C19.4139 23.6266 19.4616 23.6743 19.5382 23.6743H20.0794C20.1549 23.6743 20.2017 23.6266 20.2017 23.5501L20.2018 21.4269H20.6694C20.746 21.4269 20.7935 21.3801 20.7935 21.3046V20.8757C20.7935 20.7991 20.746 20.7515 20.6694 20.7515ZM23.8925 22.9845C23.8925 23.1451 23.8374 23.2782 23.7239 23.392C23.6102 23.5055 23.4769 23.5607 23.3164 23.5607H22.7358C22.5752 23.5607 22.4419 23.5055 22.3283 23.392C22.2147 23.2782 22.1595 23.1451 22.1595 22.9845V21.4413C22.1595 21.2807 22.2149 21.1475 22.3283 21.0338C22.4419 20.9202 22.5752 20.8651 22.7358 20.8651H23.3164C23.477 20.8651 23.6103 20.9202 23.7239 21.0338C23.8373 21.1475 23.8925 21.2807 23.8925 21.4413V22.9845ZM23.3164 20.7515H22.7358C22.5461 20.7515 22.3821 20.8195 22.2481 20.9535C22.114 21.0876 22.0459 21.2517 22.0459 21.4413V22.9845C22.0459 23.1741 22.114 23.3382 22.2481 23.4722C22.3821 23.6063 22.5462 23.6743 22.7358 23.6743H23.3164C23.5059 23.6743 23.67 23.6063 23.8041 23.4722C23.9382 23.3382 24.0062 23.1741 24.0062 22.9845V21.4413C24.0062 21.2517 23.9382 21.0876 23.8041 20.9535C23.6701 20.8195 23.5059 20.7515 23.3164 20.7515ZM30.0537 22.3384L30.0462 22.3514V23.5501C30.0462 23.5554 30.0458 23.5587 30.046 23.56C30.0442 23.5603 30.0415 23.5607 30.0374 23.5607H29.4962C29.4919 23.5607 29.4889 23.5603 29.4873 23.5603H29.4866C29.4861 23.5585 29.4857 23.5553 29.4857 23.5501V22.3514L28.6378 20.8651H29.2321C29.249 20.8651 29.2687 20.8696 29.2877 20.9038L29.7659 21.7434L30.2444 20.9033C30.2631 20.8696 30.2829 20.8651 30.2998 20.8651H30.8939L30.0537 22.3384ZM30.9251 20.7515H30.2998C30.2537 20.7515 30.1895 20.7683 30.1455 20.8476L29.7659 21.5138L29.3867 20.8481C29.3423 20.7683 29.2782 20.7515 29.2321 20.7515H28.6067C28.533 20.7515 28.5068 20.7962 28.5068 20.8344C28.5068 20.8567 28.5144 20.88 28.5293 20.9039L29.3721 22.3816V23.5501C29.3721 23.6266 29.4195 23.6743 29.4962 23.6743H30.0374C30.1129 23.6743 30.1598 23.6266 30.1598 23.5501V22.3816L31.0017 20.9056C31.0174 20.8799 31.0251 20.8566 31.0251 20.8344C31.0251 20.7962 30.9989 20.7515 30.9251 20.7515ZM17.4524 21.3027C17.4524 21.308 17.4518 21.3112 17.452 21.3123C17.4503 21.3127 17.4471 21.3133 17.4418 21.3133H16.451C16.3908 21.3133 16.35 21.3523 16.3474 21.4151V23.0106L16.3475 23.013C16.35 23.0734 16.3908 23.1125 16.451 23.1125H17.4418C17.447 23.1125 17.4501 23.1126 17.4514 23.1128C17.4518 23.1146 17.4524 23.1178 17.4524 23.1232V23.5501C17.4524 23.5553 17.4518 23.5585 17.452 23.5597C17.4503 23.5601 17.4471 23.5607 17.4418 23.5607H16.3631C16.2025 23.5607 16.0692 23.5055 15.9556 23.392C15.842 23.2782 15.7868 23.1451 15.7868 22.9845V21.4413C15.7868 21.2807 15.842 21.1475 15.9556 21.0338C16.0691 20.9202 16.2024 20.8651 16.3631 20.8651H17.4418C17.4471 20.8651 17.4504 20.8659 17.4514 20.8654C17.4518 20.8673 17.4524 20.8705 17.4524 20.8757V21.3027ZM17.4418 20.7515H16.3631C16.1734 20.7515 16.0093 20.8195 15.8752 20.9535C15.7413 21.0876 15.6732 21.2517 15.6732 21.4413V22.9845C15.6732 23.1741 15.7413 23.3382 15.8752 23.4722C16.0094 23.6063 16.1734 23.6743 16.3631 23.6743H17.4418C17.5184 23.6743 17.566 23.6266 17.566 23.5501V23.1232C17.566 23.0465 17.5184 22.9989 17.4418 22.9989L16.461 22.9987L16.4612 21.4269H17.4418C17.5184 21.4269 17.566 21.3793 17.566 21.3027V20.8757C17.566 20.7991 17.5184 20.7515 17.4418 20.7515ZM26.4572 21.8008C26.4572 21.8571 26.4391 21.8751 26.3829 21.8751L26.1119 21.875V21.4269H26.3829C26.4391 21.4269 26.4572 21.445 26.4572 21.5012V21.8008ZM26.3829 21.3133H26.1002C26.0392 21.3133 25.9983 21.3542 25.9983 21.4151V21.887C25.9983 21.9479 26.0392 21.9888 26.1002 21.9888H26.3829C26.5023 21.9888 26.5707 21.9203 26.5707 21.8008V21.5012C26.5707 21.3818 26.5023 21.3133 26.3829 21.3133ZM27.1408 22.6287V23.5501C27.1408 23.5553 27.1402 23.5585 27.1403 23.5597C27.1387 23.5601 27.1353 23.5607 27.1301 23.5607H26.5814C26.5769 23.5607 26.574 23.5603 26.5724 23.5603H26.5717C26.5713 23.5585 26.5707 23.5553 26.5707 23.5501V22.6436C26.5707 22.5122 26.4955 22.437 26.3641 22.437H26.0927C26.0457 22.437 25.9983 22.4685 25.9983 22.5387V23.5501C25.9983 23.5553 25.9979 23.5585 25.998 23.5597C25.9962 23.5601 25.993 23.5607 25.9878 23.5607H25.4484C25.4431 23.5607 25.4399 23.5605 25.4387 23.5603C25.4382 23.5585 25.4377 23.5553 25.4377 23.5501V20.8757C25.4377 20.8705 25.4382 20.8673 25.438 20.8661C25.4399 20.8657 25.4431 20.8651 25.4484 20.8651H26.5552C26.7158 20.8651 26.8491 20.9202 26.9625 21.0338C27.0761 21.1475 27.1313 21.2807 27.1313 21.4413V21.8008C27.1313 21.9443 27.0874 22.0659 26.997 22.1723L26.9835 22.1882V22.2327L26.9979 22.2489C27.0941 22.3564 27.1408 22.4807 27.1408 22.6287ZM27.245 21.8008V21.4413C27.245 21.2517 27.177 21.0876 27.0429 20.9535C26.9089 20.8195 26.7447 20.7515 26.5552 20.7515H25.4484C25.3717 20.7515 25.3242 20.7991 25.3242 20.8757V23.5501C25.3242 23.6266 25.3717 23.6743 25.4484 23.6743H25.9878C26.0644 23.6743 26.1119 23.6266 26.1119 23.5501L26.1123 22.5506H26.3641C26.4328 22.5506 26.4572 22.5749 26.4572 22.6436V23.5501C26.4572 23.6266 26.5048 23.6743 26.5814 23.6743H27.1301C27.2067 23.6743 27.2544 23.6266 27.2544 23.5501V22.6287C27.2544 22.4701 27.2067 22.3292 27.1127 22.2092C27.2005 22.091 27.245 21.9539 27.245 21.8008ZM23.2184 22.887C23.2184 22.9685 23.1881 22.9989 23.1067 22.9989H22.9455C22.8641 22.9989 22.8338 22.9685 22.8338 22.887V21.5386C22.8338 21.4572 22.8641 21.4269 22.9455 21.4269H23.1067C23.1881 21.4269 23.2184 21.4572 23.2184 21.5386V22.887ZM23.1067 21.3133H22.9455C22.8024 21.3133 22.7202 21.3955 22.7202 21.5386V22.887C22.7202 23.0302 22.8024 23.1125 22.9455 23.1125H23.1067C23.2498 23.1125 23.3319 23.0302 23.3319 22.887V21.5386C23.3319 21.3955 23.2498 21.3133 23.1067 21.3133ZM13.2043 22.3809L13.3059 21.7618L13.4076 22.3809H13.2043ZM13.0704 22.4945H13.5414L13.3059 21.0608L13.0704 22.4945ZM10.8906 21.3027C10.8906 21.3079 10.89 21.3112 10.8902 21.3123C10.8884 21.3127 10.8851 21.3133 10.8799 21.3133H9.72812C9.66726 21.3133 9.62637 21.3542 9.62637 21.4151V21.887C9.62637 21.9479 9.66726 21.9888 9.72812 21.9888H10.599C10.6043 21.9888 10.6076 21.9891 10.6086 21.9892C10.6091 21.991 10.6096 21.994 10.6096 21.9994V22.4264C10.6096 22.4316 10.6091 22.4348 10.6092 22.436C10.6075 22.4364 10.6042 22.437 10.599 22.437H9.72812C9.66726 22.437 9.62637 22.4778 9.62637 22.5387V23.5501C9.62637 23.5553 9.62583 23.5585 9.62603 23.5597C9.62423 23.5601 9.621 23.5607 9.61577 23.5607H9.07641C9.07192 23.5607 9.06889 23.5603 9.06739 23.5603H9.06674C9.0663 23.5585 9.06575 23.5553 9.06575 23.5501V20.8757C9.06575 20.8705 9.0663 20.8673 9.0661 20.8661C9.06789 20.8657 9.07118 20.8651 9.07641 20.8651H10.8799C10.8852 20.8651 10.8885 20.8654 10.8896 20.8656C10.89 20.8673 10.8906 20.8705 10.8906 20.8757V21.3027ZM10.8799 20.7515H9.07641C8.99976 20.7515 8.95215 20.7991 8.95215 20.8757V23.5501C8.95215 23.6266 8.99976 23.6743 9.07641 23.6743H9.61577C9.69236 23.6743 9.73997 23.6266 9.73997 23.5501L9.74012 22.5506H10.599C10.6756 22.5506 10.7232 22.503 10.7232 22.4264V21.9994C10.7232 21.9227 10.6756 21.8751 10.599 21.8751L9.73997 21.875L9.74012 21.4269H10.8799C10.9566 21.4269 11.0042 21.3793 11.0042 21.3027V20.8757C11.0042 20.7991 10.9566 20.7515 10.8799 20.7515ZM13.7328 23.5607C13.7166 23.5607 13.7133 23.5592 13.7104 23.5411L13.6071 22.8959H13.0046L12.9015 23.5407C12.8984 23.5592 12.8953 23.5607 12.8788 23.5607H12.3167L12.8297 20.8865C12.8335 20.8671 12.8377 20.8651 12.8545 20.8651H13.7572C13.774 20.8651 13.7781 20.8671 13.7819 20.8864L14.2948 23.559C14.2949 23.5596 14.295 23.5601 14.2952 23.5607H13.7328ZM13.8935 20.865C13.8795 20.7929 13.8299 20.7515 13.7572 20.7515H12.8545C12.7819 20.7515 12.7323 20.7929 12.7182 20.865L12.2048 23.5407C12.203 23.5515 12.2022 23.5615 12.2022 23.5707C12.2022 23.6184 12.2318 23.6743 12.3152 23.6743H12.8788C12.9512 23.6743 13.0017 23.6313 13.0136 23.559L13.1015 23.0094H13.5103L13.5982 23.5593C13.6102 23.6313 13.6605 23.6743 13.7328 23.6743H14.2966C14.38 23.6743 14.4096 23.6184 14.4096 23.5707C14.4096 23.5617 14.4087 23.5519 14.4067 23.5393L13.8935 20.865Z" fill="white"/>
</svg>
