<svg width="120" height="120" viewBox="0 0 120 120" fill="none" xmlns="http://www.w3.org/2000/svg">
<rect width="120" height="120" rx="60" fill="#23AA5D"/>
<path d="M34.7398 52.6101L85.6406 51.557C86.8336 51.5323 87.8483 52.5059 87.9406 53.7638C88.1911 69.0752 76.1214 81.7903 60.7451 82.1084C45.4337 82.3589 32.7835 70.2215 32.533 54.9101C32.4544 54.315 32.7085 53.7793 33.1628 53.3058C33.5523 52.8999 34.077 52.6238 34.7398 52.6101ZM60.6518 77.6016C72.7143 77.352 82.3989 67.9352 83.3478 56.1132L80.2991 56.1763C79.927 60.6264 78.159 64.9066 74.8488 68.3566C67.0601 76.4744 54.2673 76.6728 46.2171 68.949C42.7671 65.6388 40.691 61.4382 40.1352 57.0072L37.0864 57.0703C38.5235 68.843 48.5894 77.8512 60.6518 77.6016ZM75.7923 56.2695L67.7714 56.3692L73.8597 62.2107C74.8817 60.333 75.5034 58.331 75.7923 56.2695ZM64.5444 57.4305C63.7655 58.2423 62.8486 58.7917 61.7936 59.0788L62.0185 69.9482C65.5243 69.5441 68.9406 68.0147 71.6017 65.2412C71.7315 65.1059 71.8586 64.838 72.0533 64.6351L64.5444 57.4305ZM58.7449 59.1418C57.7439 58.831 56.805 58.32 56.0609 57.606L48.7914 65.1826C48.9267 65.3125 49.1297 65.5072 49.3326 65.7019C52.0386 68.2981 55.4502 69.7526 58.9698 70.0113L58.7449 59.1418ZM44.642 56.914C45.0159 58.9617 45.7198 60.9363 46.8863 62.8351L52.7278 56.7467L44.642 56.914Z" fill="white"/>
</svg>
