<svg width="1511" height="777" viewBox="0 0 1511 777" fill="none" xmlns="http://www.w3.org/2000/svg">
<path d="M-1 86.8912C61.5744 112.593 232.75 151.272 386.75 151.272C540.75 151.272 626.016 117.391 774.5 86.8912C930.389 54.8708 1000.57 0 1162.25 0C1323.93 0 1412.54 44.4241 1550 86.8912C1550 157.017 1550 577.133 1550 739.469C1417.16 718.065 1321.37 673.258 1162.25 673.258C1003.13 673.258 929.829 713.697 774.5 739.469C625.443 764.201 539.443 777 386.75 777C234.057 777 99.5288 769 -1 739.469C-1 647.599 -1 159.698 -1 86.8912Z" fill="url(#paint0_linear_1236_4568)"/>
<defs>
<linearGradient id="paint0_linear_1236_4568" x1="774.5" y1="0" x2="774.5" y2="777" gradientUnits="userSpaceOnUse">
<stop stop-color="#FFDB31"/>
<stop offset="1" stop-color="#FFDB31" stop-opacity="0"/>
</linearGradient>
</defs>
</svg>
