<svg width="188" height="188" viewBox="0 0 188 188" fill="none" xmlns="http://www.w3.org/2000/svg">
<circle cx="94" cy="94" r="94" fill="#FF9E16"/>
<path d="M116.167 70.75V72.1094C116.167 73.2988 115.997 74.4883 115.659 75.5078C122.091 77.377 127 83.4941 127 90.4609C127 96.4082 123.615 101.676 118.875 104.225V108.812C118.875 111.871 116.336 114.25 113.458 114.25H113.12L111.258 131.242C110.919 133.961 108.549 136 105.841 136H82.9896C80.2813 136 77.9115 133.961 77.5729 131.242L75.7109 114.25H75.5417C72.4948 114.25 70.125 111.871 70.125 108.812V104.225C65.2161 101.676 62 96.4082 62 90.4609C62 83.4941 66.5703 77.5469 73.0026 75.5078C72.8333 74.6582 72.8333 73.8086 72.8333 72.7891C72.8333 65.8223 78.5885 59.875 85.6979 59.875H91.9609C92.4688 59.875 93.1458 59.3652 93.1458 58.8555C93.1458 58.5156 92.9766 58.3457 92.8073 58.1758L91.1146 55.457C90.2682 54.0977 90.099 52.5684 90.776 51.209C91.6224 49.8496 92.9766 49 94.5 49C106.349 49 116.167 58.8555 116.167 70.75ZM111.427 97.9375C115.49 97.9375 118.875 94.709 118.875 90.4609C118.875 86.3828 115.49 82.9844 111.427 82.9844H98.5625C96.1927 82.9844 94.3307 81.2852 94.3307 78.9062C94.3307 76.6973 96.1927 74.8281 98.5625 74.8281H107.195C107.703 74.1484 108.042 73.1289 108.042 72.1094V70.75C108.042 65.8223 105.164 61.4043 101.102 59.0254C101.102 64.123 97.0391 68.0312 91.9609 68.0312H85.5286C82.9896 68.0312 80.7891 70.2402 80.7891 72.7891C80.7891 73.6387 80.9583 74.3184 81.2969 74.998C83.3281 75.168 84.8516 76.8672 84.8516 78.9062C84.8516 81.2852 83.1589 82.9844 80.7891 82.9844H77.4036C73.3411 82.9844 69.9557 86.3828 69.9557 90.4609C69.9557 94.709 73.3411 97.9375 77.4036 97.9375H111.427Z" fill="white"/>
<path d="M172.452 92.8877C172.452 136.547 137.013 171.944 93.2941 171.944C49.5747 171.944 14.1362 136.547 14.1362 92.8877C14.1362 49.2278 49.5747 13.8315 93.2941 13.8315C137.013 13.8315 172.452 49.2278 172.452 92.8877Z" stroke="white" stroke-width="2.82707"/>
</svg>
