<svg width="120" height="120" viewBox="0 0 120 120" fill="none" xmlns="http://www.w3.org/2000/svg">
<rect width="120" height="120" rx="60" fill="#98C44A"/>
<path d="M66.6562 43.5625L72 41.5L73.9688 36.25C74.0625 35.7812 74.5312 35.5 75 35.5C75.375 35.5 75.8438 35.7812 75.9375 36.25L78 41.5L83.25 43.5625C83.7188 43.6562 84 44.125 84 44.5C84 44.9688 83.7188 45.4375 83.25 45.5312L78 47.5L75.9375 52.8438C75.8438 53.2188 75.375 53.5 75 53.5C74.5312 53.5 74.0625 53.2188 73.9688 52.8438L72 47.5L66.6562 45.5312C66.1875 45.4375 66 44.9688 66 44.5C66 44.125 66.1875 43.6562 66.6562 43.5625ZM52.5 42.4375C52.6875 41.875 53.25 41.5 53.8125 41.5C54.375 41.5 54.9375 41.875 55.2188 42.4375L60.0938 53.125L70.7812 58C71.3438 58.2812 71.7188 58.8438 71.7188 59.4062C71.7188 59.9688 71.3438 60.5312 70.7812 60.8125L60.0938 65.6875L55.2188 76.375C54.9375 76.9375 54.375 77.3125 53.8125 77.3125C53.25 77.3125 52.6875 76.9375 52.5 76.375L47.5312 65.6875L36.8438 60.8125C36.2812 60.5312 36 59.9688 36 59.4062C36 58.8438 36.2812 58.2812 36.8438 58L47.5312 53.125L52.5 42.4375ZM51.5625 55C51.1875 55.9375 50.3438 56.7812 49.4062 57.1562L44.625 59.4062L49.4062 61.6562C50.3438 62.0312 51.1875 62.875 51.5625 63.8125L53.8125 68.5938L56.0625 63.8125C56.4375 62.875 57.2812 62.0312 58.2188 61.6562L63 59.4062L58.2188 57.1562C57.2812 56.7812 56.4375 55.9375 56.0625 55L53.8125 50.2188L51.5625 55ZM73.9688 66.25C74.0625 65.7812 74.5312 65.5 75 65.5C75.375 65.5 75.8438 65.7812 75.9375 66.25L78 71.5L83.25 73.5625C83.7188 73.6562 84 74.125 84 74.5C84 74.9688 83.7188 75.4375 83.25 75.5312L78 77.5L75.9375 82.8438C75.8438 83.2188 75.375 83.5 75 83.5C74.5312 83.5 74.0625 83.2188 73.9688 82.8438L72 77.5L66.6562 75.5312C66.1875 75.4375 66 74.9688 66 74.5C66 74.125 66.1875 73.6562 66.6562 73.5625L72 71.5L73.9688 66.25Z" fill="white"/>
</svg>
